<svg xmlns="http://www.w3.org/2000/svg" xmlns:xlink="http://www.w3.org/1999/xlink" width="50" zoomAndPan="magnify" viewBox="0 0 37.5 40.5" height="54" preserveAspectRatio="xMidYMid meet" version="1.0"><defs><clipPath id="512f6d5c08"><path d="M 0 0.0195312 L 37.007812 0.0195312 L 37.007812 39.988281 L 0 39.988281 Z M 0 0.0195312 " clip-rule="nonzero"/></clipPath><clipPath id="d1e9f085cb"><path d="M 0 0.0195312 L 37.007812 0.0195312 L 37.007812 37.027344 L 0 37.027344 Z M 0 0.0195312 " clip-rule="nonzero"/></clipPath><clipPath id="bc7f1230e4"><path d="M 8.4375 8.050781 L 28.421875 8.050781 L 28.421875 28.773438 L 8.4375 28.773438 Z M 8.4375 8.050781 " clip-rule="nonzero"/></clipPath><clipPath id="915a28f1f8"><path d="M 16 18 L 28.421875 18 L 28.421875 27 L 16 27 Z M 16 18 " clip-rule="nonzero"/></clipPath></defs><g clip-path="url(#512f6d5c08)"><path fill="#ffffff" d="M 0 0.0195312 L 37.007812 0.0195312 L 37.007812 39.988281 L 0 39.988281 Z M 0 0.0195312 " fill-opacity="1" fill-rule="nonzero"/><path fill="#ffffff" d="M 0 0.0195312 L 37.007812 0.0195312 L 37.007812 39.988281 L 0 39.988281 Z M 0 0.0195312 " fill-opacity="1" fill-rule="nonzero"/></g><g clip-path="url(#d1e9f085cb)"><path fill="#9cd6c9" d="M 18.503906 0.0195312 C 8.296875 0.0195312 0 8.324219 0 18.523438 C 0 28.730469 8.296875 37.027344 18.503906 37.027344 C 28.703125 37.027344 37.007812 28.730469 37.007812 18.523438 C 37.007812 8.324219 28.703125 0.0195312 18.503906 0.0195312 Z M 18.503906 35.582031 C 9.097656 35.582031 1.441406 27.929688 1.441406 18.523438 C 1.441406 9.117188 9.097656 1.464844 18.503906 1.464844 C 27.910156 1.464844 35.5625 9.117188 35.5625 18.523438 C 35.5625 27.929688 27.910156 35.582031 18.503906 35.582031 Z M 18.503906 35.582031 " fill-opacity="1" fill-rule="nonzero"/></g><path fill="#9cd6c9" d="M 18.503906 2.425781 C 9.628906 2.425781 2.40625 9.648438 2.40625 18.523438 C 2.40625 27.398438 9.628906 34.621094 18.503906 34.621094 C 27.378906 34.621094 34.601562 27.398438 34.601562 18.523438 C 34.601562 9.648438 27.378906 2.425781 18.503906 2.425781 Z M 18.503906 2.425781 " fill-opacity="1" fill-rule="nonzero"/><g clip-path="url(#bc7f1230e4)"><path fill="#000000" d="M 28.421875 11.734375 C 28.3125 11.863281 28.203125 11.964844 28.082031 12.058594 C 27.816406 12.257812 27.550781 12.457031 27.273438 12.640625 C 27.078125 12.773438 26.878906 12.898438 26.667969 13.011719 C 26.34375 13.191406 25.988281 13.273438 25.621094 13.304688 C 25.398438 13.320312 25.179688 13.320312 24.957031 13.320312 C 24.773438 13.316406 24.59375 13.316406 24.410156 13.320312 C 24.257812 13.320312 24.105469 13.335938 23.953125 13.351562 C 23.726562 13.367188 23.5 13.390625 23.273438 13.40625 C 23.015625 13.425781 22.765625 13.484375 22.515625 13.539062 C 22.25 13.597656 21.984375 13.667969 21.714844 13.703125 C 21.578125 13.722656 21.441406 13.738281 21.300781 13.742188 C 21.0625 13.746094 20.828125 13.75 20.589844 13.726562 C 20.484375 13.71875 20.382812 13.695312 20.28125 13.664062 C 20.203125 13.636719 20.125 13.613281 20.046875 13.597656 C 19.957031 13.582031 19.945312 13.589844 19.953125 13.683594 C 19.96875 13.859375 20.050781 14.003906 20.1875 14.117188 C 20.289062 14.199219 20.40625 14.257812 20.53125 14.300781 C 20.796875 14.386719 21.066406 14.429688 21.34375 14.433594 C 21.601562 14.441406 21.863281 14.441406 22.121094 14.449219 C 22.183594 14.449219 22.242188 14.449219 22.300781 14.464844 C 22.316406 14.46875 22.335938 14.476562 22.351562 14.480469 C 22.378906 14.484375 22.390625 14.527344 22.421875 14.511719 C 22.445312 14.5 22.464844 14.480469 22.484375 14.460938 C 22.515625 14.433594 22.550781 14.40625 22.582031 14.378906 C 22.601562 14.367188 22.621094 14.34375 22.644531 14.363281 C 22.667969 14.382812 22.636719 14.402344 22.625 14.417969 C 22.585938 14.476562 22.539062 14.535156 22.484375 14.585938 C 22.164062 14.890625 21.871094 15.222656 21.554688 15.535156 C 21.382812 15.703125 21.207031 15.863281 21.03125 16.023438 C 20.746094 16.289062 20.464844 16.554688 20.199219 16.839844 C 19.992188 17.058594 19.792969 17.289062 19.609375 17.535156 C 19.4375 17.769531 19.28125 18.011719 19.179688 18.285156 C 19.113281 18.46875 19.070312 18.660156 19.113281 18.859375 C 19.117188 18.890625 19.121094 18.925781 19.144531 18.949219 C 19.171875 18.941406 19.179688 18.917969 19.191406 18.902344 C 19.277344 18.773438 19.382812 18.660156 19.496094 18.558594 C 19.714844 18.363281 19.929688 18.164062 20.15625 17.980469 C 20.203125 17.941406 20.246094 17.902344 20.292969 17.859375 C 20.636719 17.539062 20.992188 17.230469 21.367188 16.941406 C 21.554688 16.796875 21.734375 16.644531 21.925781 16.503906 C 21.960938 16.480469 21.996094 16.445312 22.042969 16.457031 C 22.058594 16.476562 22.035156 16.484375 22.027344 16.492188 C 21.847656 16.699219 21.636719 16.878906 21.429688 17.058594 C 21.050781 17.378906 20.679688 17.707031 20.320312 18.046875 C 20.054688 18.296875 19.773438 18.535156 19.511719 18.789062 C 19.285156 19.003906 19.109375 19.257812 19.027344 19.566406 C 18.984375 19.71875 18.972656 19.871094 19.027344 20.027344 C 19.035156 20.050781 19.042969 20.078125 19.058594 20.101562 C 19.089844 20.148438 19.136719 20.164062 19.1875 20.144531 C 19.21875 20.132812 19.246094 20.109375 19.273438 20.089844 C 19.425781 19.964844 19.5625 19.828125 19.683594 19.667969 C 19.90625 19.367188 20.164062 19.09375 20.445312 18.847656 C 20.792969 18.546875 21.136719 18.246094 21.511719 17.980469 C 21.796875 17.777344 22.089844 17.585938 22.386719 17.398438 C 22.417969 17.378906 22.453125 17.359375 22.492188 17.355469 C 22.507812 17.351562 22.523438 17.351562 22.53125 17.367188 C 22.542969 17.378906 22.535156 17.394531 22.527344 17.40625 C 22.511719 17.425781 22.496094 17.449219 22.472656 17.460938 C 22.242188 17.589844 22.0625 17.78125 21.863281 17.953125 C 21.496094 18.265625 21.148438 18.59375 20.832031 18.960938 C 20.628906 19.199219 20.40625 19.425781 20.203125 19.664062 C 20.121094 19.761719 20.046875 19.863281 20.003906 19.988281 C 19.984375 20.0625 19.988281 20.128906 20.015625 20.195312 C 20.035156 20.25 20.074219 20.273438 20.128906 20.277344 C 20.183594 20.28125 20.234375 20.269531 20.285156 20.25 C 20.390625 20.207031 20.488281 20.148438 20.578125 20.082031 C 21.144531 19.671875 21.679688 19.226562 22.175781 18.734375 C 22.328125 18.582031 22.484375 18.4375 22.640625 18.289062 C 22.738281 18.195312 22.847656 18.113281 22.960938 18.039062 C 23.003906 18.007812 23.046875 17.984375 23.09375 17.964844 C 23.140625 17.941406 23.191406 17.941406 23.242188 17.96875 C 23.21875 18.003906 23.222656 18.035156 23.226562 18.070312 C 23.234375 18.125 23.21875 18.179688 23.207031 18.234375 C 23.117188 18.550781 23.015625 18.863281 22.886719 19.167969 C 22.785156 19.40625 22.6875 19.644531 22.589844 19.886719 C 22.539062 20.011719 22.5 20.140625 22.46875 20.273438 C 22.457031 20.316406 22.453125 20.359375 22.460938 20.398438 C 22.480469 20.515625 22.585938 20.566406 22.6875 20.503906 C 22.703125 20.492188 22.71875 20.484375 22.730469 20.472656 C 22.835938 20.367188 22.945312 20.261719 23.027344 20.132812 C 23.226562 19.808594 23.394531 19.46875 23.523438 19.109375 C 23.664062 18.710938 23.851562 18.328125 24.074219 17.964844 C 24.230469 17.707031 24.425781 17.488281 24.652344 17.289062 C 24.847656 17.117188 25.039062 16.945312 25.234375 16.773438 C 25.320312 16.699219 25.402344 16.621094 25.484375 16.542969 C 25.773438 16.253906 26.050781 15.949219 26.316406 15.636719 C 26.542969 15.367188 26.8125 15.160156 27.128906 15.007812 C 27.242188 14.953125 27.351562 14.890625 27.464844 14.839844 C 27.636719 14.757812 27.804688 14.671875 27.960938 14.5625 C 27.972656 14.554688 27.984375 14.539062 28.011719 14.546875 C 28.011719 14.566406 27.992188 14.578125 27.980469 14.589844 C 27.832031 14.757812 27.65625 14.882812 27.464844 14.992188 C 27.367188 15.046875 27.265625 15.101562 27.160156 15.148438 C 26.914062 15.257812 26.699219 15.414062 26.511719 15.609375 C 26.308594 15.820312 26.117188 16.046875 25.914062 16.257812 C 25.789062 16.386719 25.667969 16.515625 25.539062 16.640625 C 25.507812 16.667969 25.503906 16.6875 25.527344 16.722656 C 25.546875 16.746094 25.558594 16.773438 25.566406 16.804688 C 25.617188 16.972656 25.660156 17.144531 25.644531 17.320312 C 25.628906 17.53125 25.652344 17.734375 25.6875 17.9375 C 25.714844 18.09375 25.738281 18.253906 25.742188 18.414062 C 25.75 18.6875 25.675781 18.9375 25.550781 19.179688 C 25.304688 19.65625 24.902344 19.945312 24.425781 20.152344 C 24.148438 20.269531 23.859375 20.332031 23.5625 20.363281 C 23.363281 20.382812 23.171875 20.417969 22.992188 20.507812 C 22.957031 20.527344 22.917969 20.542969 22.894531 20.585938 C 22.886719 20.597656 22.867188 20.609375 22.851562 20.617188 C 22.683594 20.730469 22.53125 20.871094 22.386719 21.015625 C 22.304688 21.097656 22.214844 21.15625 22.121094 21.21875 C 21.917969 21.351562 21.71875 21.484375 21.519531 21.621094 C 21.082031 21.914062 20.636719 22.1875 20.171875 22.429688 C 19.640625 22.707031 19.078125 22.894531 18.488281 23 C 18.351562 23.027344 18.214844 23.058594 18.074219 23.085938 C 18.019531 23.097656 17.96875 23.113281 17.910156 23.109375 C 17.875 23.105469 17.855469 23.125 17.828125 23.144531 C 17.652344 23.257812 17.496094 23.394531 17.335938 23.53125 C 17.097656 23.734375 16.878906 23.960938 16.675781 24.203125 C 16.375 24.558594 16.164062 24.957031 16.011719 25.394531 C 15.914062 25.6875 15.90625 25.988281 15.96875 26.289062 C 16.023438 26.558594 16.117188 26.820312 16.253906 27.0625 C 16.425781 27.363281 16.667969 27.601562 16.960938 27.785156 C 17.109375 27.875 17.257812 27.960938 17.40625 28.050781 C 17.5 28.105469 17.589844 28.160156 17.671875 28.230469 C 17.738281 28.285156 17.804688 28.351562 17.847656 28.433594 C 17.863281 28.464844 17.882812 28.5 17.871094 28.539062 C 17.839844 28.542969 17.828125 28.523438 17.816406 28.503906 C 17.710938 28.375 17.574219 28.28125 17.425781 28.199219 C 17.28125 28.125 17.140625 28.042969 16.992188 27.96875 C 16.523438 27.722656 16.191406 27.351562 15.984375 26.867188 C 15.84375 26.53125 15.765625 26.1875 15.785156 25.824219 C 15.800781 25.550781 15.878906 25.296875 15.988281 25.046875 C 16.152344 24.675781 16.363281 24.332031 16.636719 24.027344 C 16.902344 23.71875 17.203125 23.453125 17.519531 23.203125 C 17.757812 23.015625 18.027344 22.867188 18.300781 22.734375 C 18.398438 22.683594 18.5 22.640625 18.601562 22.59375 C 18.621094 22.585938 18.640625 22.582031 18.652344 22.558594 C 18.589844 22.53125 18.527344 22.511719 18.464844 22.484375 C 18.234375 22.386719 18.089844 22.210938 18.011719 21.976562 C 17.984375 21.890625 17.988281 21.800781 18.027344 21.714844 C 18.046875 21.667969 18.066406 21.621094 18.097656 21.578125 C 18.109375 21.558594 18.128906 21.550781 18.15625 21.558594 C 18.183594 21.570312 18.191406 21.59375 18.1875 21.621094 C 18.175781 21.667969 18.160156 21.710938 18.152344 21.757812 C 18.136719 21.847656 18.132812 21.9375 18.179688 22.023438 C 18.191406 22.046875 18.203125 22.074219 18.222656 22.09375 C 18.359375 22.210938 18.492188 22.328125 18.683594 22.34375 C 18.789062 22.351562 18.886719 22.382812 18.988281 22.414062 C 19.011719 22.421875 19.039062 22.429688 19.058594 22.453125 C 19.074219 22.476562 19.09375 22.472656 19.117188 22.464844 C 19.160156 22.449219 19.199219 22.421875 19.226562 22.386719 C 19.363281 22.234375 19.480469 22.070312 19.566406 21.882812 C 19.746094 21.5 19.871094 21.101562 19.941406 20.683594 C 19.960938 20.589844 19.96875 20.492188 19.980469 20.394531 C 19.984375 20.367188 19.976562 20.351562 19.960938 20.335938 C 19.855469 20.230469 19.832031 20.105469 19.863281 19.964844 C 19.894531 19.820312 19.964844 19.695312 20.066406 19.59375 C 20.144531 19.519531 20.140625 19.445312 20.117188 19.359375 C 20.089844 19.355469 20.082031 19.371094 20.070312 19.382812 C 19.972656 19.488281 19.878906 19.59375 19.792969 19.710938 C 19.667969 19.882812 19.519531 20.035156 19.355469 20.171875 C 19.320312 20.199219 19.28125 20.230469 19.238281 20.25 C 19.125 20.296875 19.011719 20.265625 18.949219 20.160156 C 18.886719 20.0625 18.863281 19.953125 18.859375 19.839844 C 18.84375 19.605469 18.921875 19.394531 19.019531 19.1875 C 19.042969 19.140625 19.070312 19.09375 19.09375 19.042969 C 19.003906 19.003906 18.976562 18.921875 18.960938 18.835938 C 18.929688 18.699219 18.941406 18.5625 18.96875 18.425781 C 19.042969 18.101562 19.207031 17.820312 19.398438 17.550781 C 19.53125 17.371094 19.671875 17.199219 19.820312 17.03125 C 19.949219 16.882812 20.078125 16.734375 20.21875 16.597656 C 20.242188 16.574219 20.246094 16.558594 20.242188 16.527344 C 20.226562 16.445312 20.230469 16.367188 20.222656 16.285156 C 20.183594 15.847656 20.109375 15.421875 19.949219 15.007812 C 19.722656 14.421875 19.332031 13.988281 18.746094 13.746094 C 18.570312 13.671875 18.394531 13.605469 18.210938 13.5625 C 17.925781 13.5 17.648438 13.523438 17.375 13.617188 C 17 13.742188 16.65625 13.933594 16.332031 14.15625 C 16.179688 14.261719 16.039062 14.386719 15.878906 14.484375 C 15.871094 14.488281 15.867188 14.492188 15.855469 14.503906 C 15.933594 14.5625 16.003906 14.625 16.074219 14.6875 C 16.117188 14.726562 16.15625 14.773438 16.183594 14.824219 C 16.203125 14.855469 16.214844 14.886719 16.222656 14.921875 C 16.238281 15.003906 16.21875 15.078125 16.144531 15.125 C 16.109375 15.148438 16.105469 15.167969 16.113281 15.207031 C 16.128906 15.273438 16.140625 15.335938 16.148438 15.40625 C 16.160156 15.5625 16.09375 15.671875 15.957031 15.746094 C 15.730469 15.867188 15.496094 15.96875 15.246094 16.035156 C 15.101562 16.074219 14.960938 16.117188 14.816406 16.15625 C 14.5625 16.21875 14.410156 16.394531 14.289062 16.609375 C 14.273438 16.632812 14.277344 16.648438 14.304688 16.660156 C 14.34375 16.675781 14.363281 16.710938 14.367188 16.75 C 14.386719 16.867188 14.371094 16.984375 14.324219 17.109375 C 14.292969 17.070312 14.289062 17.039062 14.285156 17.003906 C 14.28125 16.949219 14.277344 16.898438 14.273438 16.84375 C 14.269531 16.828125 14.277344 16.796875 14.25 16.796875 C 14.21875 16.796875 14.203125 16.816406 14.199219 16.847656 C 14.191406 16.917969 14.191406 16.984375 14.203125 17.050781 C 14.207031 17.074219 14.210938 17.101562 14.21875 17.128906 C 14.171875 17.125 14.148438 17.097656 14.136719 17.0625 C 14.113281 17.011719 14.105469 16.960938 14.109375 16.90625 C 14.113281 16.8125 14.128906 16.722656 14.167969 16.636719 C 14.226562 16.503906 14.304688 16.386719 14.40625 16.28125 C 14.472656 16.210938 14.546875 16.160156 14.636719 16.125 C 14.765625 16.074219 14.898438 16.035156 15.035156 16.007812 C 15.078125 16 15.121094 15.988281 15.171875 15.964844 C 15.109375 15.949219 15.050781 15.933594 14.996094 15.917969 C 14.949219 15.902344 14.898438 15.890625 14.855469 15.867188 C 14.800781 15.839844 14.761719 15.847656 14.71875 15.886719 C 14.652344 15.957031 14.5625 15.988281 14.472656 16.027344 C 14.316406 16.101562 14.167969 16.195312 14.027344 16.296875 C 13.835938 16.433594 13.644531 16.574219 13.496094 16.761719 C 13.4375 16.835938 13.382812 16.914062 13.335938 17 C 13.226562 17.199219 13.128906 17.402344 13.027344 17.605469 C 12.933594 17.785156 12.820312 17.953125 12.695312 18.117188 C 12.613281 18.226562 12.523438 18.332031 12.441406 18.445312 C 12.332031 18.59375 12.234375 18.753906 12.164062 18.925781 C 12.050781 19.1875 12.070312 19.441406 12.199219 19.691406 C 12.316406 19.925781 12.472656 20.128906 12.648438 20.320312 C 12.726562 20.410156 12.8125 20.488281 12.925781 20.535156 C 12.949219 20.546875 12.976562 20.5625 12.996094 20.578125 C 13.179688 20.734375 13.382812 20.859375 13.585938 20.988281 C 14.035156 21.28125 14.519531 21.511719 15.027344 21.699219 C 15.097656 21.726562 15.171875 21.746094 15.25 21.765625 C 15.265625 21.769531 15.28125 21.769531 15.292969 21.789062 C 15.1875 21.777344 15.09375 21.753906 14.996094 21.726562 C 14.253906 21.5 13.570312 21.160156 12.960938 20.675781 C 12.933594 20.652344 12.898438 20.632812 12.863281 20.617188 C 12.832031 20.597656 12.800781 20.574219 12.765625 20.554688 C 12.738281 20.617188 12.710938 20.683594 12.679688 20.742188 C 12.578125 20.941406 12.457031 21.125 12.316406 21.296875 C 12.140625 21.511719 11.984375 21.742188 11.789062 21.9375 C 11.628906 22.101562 11.472656 22.261719 11.292969 22.40625 C 11.269531 22.425781 11.242188 22.441406 11.210938 22.460938 C 11.222656 22.488281 11.246094 22.503906 11.265625 22.523438 C 11.558594 22.800781 11.859375 23.070312 12.148438 23.355469 C 12.703125 23.898438 13.199219 24.484375 13.621094 25.132812 C 14.128906 25.914062 14.644531 26.691406 15.113281 27.5 C 15.296875 27.8125 15.496094 28.113281 15.695312 28.414062 C 15.761719 28.511719 15.832031 28.605469 15.90625 28.691406 C 15.925781 28.714844 15.945312 28.738281 15.945312 28.773438 C 15.878906 28.710938 15.808594 28.648438 15.742188 28.578125 C 15.640625 28.46875 15.546875 28.351562 15.457031 28.226562 C 15.195312 27.867188 14.941406 27.496094 14.707031 27.113281 C 14.308594 26.460938 13.898438 25.816406 13.480469 25.179688 C 12.992188 24.441406 12.410156 23.78125 11.765625 23.171875 C 11.347656 22.777344 10.929688 22.386719 10.511719 21.996094 C 10.320312 21.816406 10.125 21.648438 9.917969 21.488281 C 9.496094 21.167969 9.089844 20.824219 8.675781 20.492188 C 8.601562 20.433594 8.519531 20.382812 8.4375 20.320312 C 8.476562 20.3125 8.503906 20.332031 8.527344 20.34375 C 8.683594 20.410156 8.824219 20.507812 8.957031 20.613281 C 9.273438 20.859375 9.59375 21.101562 9.917969 21.339844 C 10.1875 21.542969 10.445312 21.753906 10.691406 21.984375 C 10.8125 22.097656 10.933594 22.210938 11.054688 22.328125 C 11.066406 22.339844 11.078125 22.351562 11.09375 22.363281 C 11.105469 22.378906 11.121094 22.378906 11.136719 22.363281 C 11.277344 22.253906 11.421875 22.148438 11.550781 22.023438 C 11.675781 21.898438 11.800781 21.777344 11.910156 21.636719 C 12.089844 21.410156 12.28125 21.191406 12.449219 20.957031 C 12.535156 20.839844 12.613281 20.714844 12.671875 20.582031 C 12.703125 20.511719 12.699219 20.496094 12.644531 20.441406 C 12.523438 20.324219 12.390625 20.210938 12.292969 20.070312 C 12.1875 19.921875 12.101562 19.757812 12.039062 19.585938 C 11.953125 19.335938 11.972656 19.097656 12.085938 18.867188 C 12.171875 18.695312 12.269531 18.53125 12.394531 18.382812 C 12.558594 18.1875 12.695312 17.976562 12.808594 17.746094 C 12.953125 17.453125 13.125 17.167969 13.285156 16.882812 C 13.320312 16.816406 13.367188 16.753906 13.414062 16.699219 C 13.433594 16.675781 13.453125 16.65625 13.417969 16.628906 C 13.402344 16.613281 13.402344 16.585938 13.410156 16.566406 C 13.417969 16.535156 13.429688 16.507812 13.441406 16.480469 C 13.476562 16.417969 13.507812 16.355469 13.546875 16.296875 C 13.777344 15.953125 13.996094 15.597656 14.238281 15.261719 C 14.429688 14.992188 14.597656 14.703125 14.761719 14.417969 C 14.867188 14.230469 14.972656 14.042969 15.082031 13.859375 C 15.316406 13.464844 15.484375 13.039062 15.605469 12.597656 C 15.699219 12.25 15.792969 11.902344 15.902344 11.5625 C 15.976562 11.324219 16.035156 11.082031 16.101562 10.84375 C 16.15625 10.660156 16.214844 10.484375 16.28125 10.304688 C 16.34375 10.136719 16.425781 9.976562 16.53125 9.824219 C 16.652344 9.652344 16.777344 9.476562 16.914062 9.3125 C 17.136719 9.039062 17.351562 8.761719 17.542969 8.464844 C 17.578125 8.414062 17.613281 8.367188 17.652344 8.316406 C 17.660156 8.304688 17.679688 8.292969 17.695312 8.304688 C 17.714844 8.316406 17.707031 8.335938 17.699219 8.351562 C 17.691406 8.363281 17.6875 8.375 17.679688 8.382812 C 17.496094 8.699219 17.304688 9.007812 17.070312 9.289062 C 16.933594 9.449219 16.8125 9.621094 16.691406 9.789062 C 16.53125 10 16.417969 10.234375 16.332031 10.480469 C 16.226562 10.785156 16.136719 11.089844 16.050781 11.398438 C 15.964844 11.699219 15.867188 11.996094 15.789062 12.300781 C 15.746094 12.484375 15.695312 12.667969 15.644531 12.847656 C 15.558594 13.152344 15.441406 13.441406 15.289062 13.71875 C 15.023438 14.1875 14.753906 14.652344 14.46875 15.109375 C 14.410156 15.203125 14.34375 15.292969 14.28125 15.382812 C 14.050781 15.710938 13.84375 16.050781 13.621094 16.386719 C 13.597656 16.421875 13.574219 16.460938 13.566406 16.507812 C 13.605469 16.476562 13.648438 16.445312 13.683594 16.410156 C 13.890625 16.207031 14.132812 16.0625 14.402344 15.957031 C 14.449219 15.941406 14.5 15.917969 14.550781 15.902344 C 14.601562 15.878906 14.644531 15.84375 14.679688 15.804688 C 14.628906 15.765625 14.582031 15.730469 14.53125 15.695312 C 14.507812 15.679688 14.488281 15.660156 14.476562 15.636719 C 14.460938 15.609375 14.457031 15.578125 14.480469 15.554688 C 14.507812 15.527344 14.539062 15.53125 14.566406 15.550781 C 14.585938 15.570312 14.609375 15.589844 14.628906 15.605469 C 14.65625 15.625 14.679688 15.652344 14.722656 15.660156 C 14.769531 15.550781 14.84375 15.453125 14.90625 15.351562 C 14.953125 15.277344 14.988281 15.195312 15.011719 15.109375 C 15.027344 15.058594 15.054688 15.011719 15.085938 14.96875 C 15.183594 14.84375 15.289062 14.726562 15.425781 14.640625 C 15.527344 14.582031 15.628906 14.527344 15.75 14.527344 C 15.769531 14.523438 15.785156 14.523438 15.789062 14.5 C 15.796875 14.453125 15.835938 14.421875 15.871094 14.394531 C 15.925781 14.351562 15.972656 14.300781 16.011719 14.242188 C 16.074219 14.148438 16.152344 14.070312 16.226562 13.984375 C 16.453125 13.726562 16.640625 13.441406 16.824219 13.152344 C 16.871094 13.074219 16.921875 13 16.972656 12.925781 C 17.121094 12.707031 17.320312 12.542969 17.535156 12.398438 C 17.589844 12.359375 17.648438 12.332031 17.714844 12.316406 C 17.746094 12.304688 17.753906 12.292969 17.742188 12.261719 C 17.714844 12.195312 17.683594 12.128906 17.644531 12.066406 C 17.632812 12.046875 17.621094 12.027344 17.609375 12.007812 C 17.601562 11.988281 17.601562 11.972656 17.617188 11.960938 C 17.632812 11.945312 17.648438 11.945312 17.667969 11.953125 C 17.699219 11.96875 17.722656 12 17.742188 12.027344 C 17.839844 12.164062 17.910156 12.3125 17.929688 12.480469 C 17.941406 12.5625 17.964844 12.636719 17.992188 12.714844 C 18.042969 12.871094 18.144531 12.988281 18.285156 13.074219 C 18.453125 13.175781 18.621094 13.171875 18.789062 13.082031 C 18.898438 13.023438 18.925781 12.914062 18.910156 12.824219 C 18.878906 12.65625 18.824219 12.496094 18.757812 12.34375 C 18.707031 12.226562 18.683594 12.109375 18.675781 11.984375 C 18.675781 11.929688 18.671875 11.875 18.675781 11.820312 C 18.6875 11.597656 18.636719 11.386719 18.542969 11.191406 C 18.46875 11.042969 18.4375 10.890625 18.417969 10.730469 C 18.402344 10.601562 18.34375 10.492188 18.242188 10.40625 C 18.007812 10.207031 17.960938 9.945312 17.988281 9.65625 C 17.988281 9.65625 17.992188 9.652344 18 9.648438 C 18.015625 9.671875 18.015625 9.703125 18.019531 9.730469 C 18.042969 9.890625 18.105469 10.042969 18.175781 10.191406 C 18.195312 10.234375 18.226562 10.273438 18.261719 10.304688 C 18.371094 10.398438 18.46875 10.496094 18.496094 10.640625 C 18.523438 10.644531 18.535156 10.628906 18.546875 10.617188 C 18.707031 10.488281 18.871094 10.367188 19.046875 10.261719 C 19.746094 9.855469 20.4375 9.425781 21.128906 9.003906 C 21.570312 8.734375 22.027344 8.488281 22.496094 8.261719 C 22.636719 8.191406 22.78125 8.132812 22.925781 8.078125 C 22.953125 8.066406 22.980469 8.050781 23.011719 8.0625 C 22.996094 8.085938 22.972656 8.09375 22.949219 8.105469 C 22.535156 8.332031 22.117188 8.550781 21.703125 8.785156 C 21.277344 9.027344 20.863281 9.285156 20.457031 9.558594 C 20.078125 9.8125 19.691406 10.050781 19.296875 10.28125 C 19.050781 10.425781 18.8125 10.585938 18.574219 10.746094 C 18.539062 10.769531 18.527344 10.789062 18.53125 10.832031 C 18.542969 10.929688 18.570312 11.019531 18.613281 11.105469 C 18.71875 11.332031 18.785156 11.566406 18.765625 11.820312 C 18.746094 12.046875 18.792969 12.261719 18.886719 12.472656 C 18.933594 12.578125 18.96875 12.691406 19.007812 12.804688 C 19.039062 12.886719 19.03125 12.972656 18.988281 13.050781 C 18.980469 13.0625 18.96875 13.074219 18.96875 13.09375 C 19.003906 13.113281 19.042969 13.105469 19.078125 13.113281 C 19.46875 13.183594 19.851562 13.269531 20.203125 13.449219 C 20.410156 13.554688 20.621094 13.574219 20.839844 13.582031 C 21.125 13.589844 21.40625 13.582031 21.6875 13.550781 C 21.945312 13.519531 22.199219 13.464844 22.453125 13.40625 C 22.84375 13.3125 23.242188 13.265625 23.640625 13.246094 C 23.816406 13.234375 23.988281 13.21875 24.160156 13.207031 C 24.371094 13.191406 24.582031 13.1875 24.789062 13.1875 C 25.003906 13.1875 25.21875 13.191406 25.433594 13.183594 C 25.765625 13.175781 26.089844 13.113281 26.398438 12.988281 C 26.582031 12.910156 26.753906 12.808594 26.921875 12.703125 C 27.390625 12.417969 27.851562 12.121094 28.292969 11.792969 C 28.355469 11.746094 28.355469 11.746094 28.421875 11.734375 Z M 19.414062 22.382812 C 19.417969 22.386719 19.421875 22.390625 19.425781 22.390625 C 19.574219 22.328125 19.722656 22.269531 19.871094 22.203125 C 20.59375 21.886719 21.308594 21.554688 21.988281 21.160156 C 22.03125 21.136719 22.070312 21.105469 22.101562 21.074219 C 22.238281 20.9375 22.371094 20.800781 22.523438 20.679688 C 22.53125 20.671875 22.550781 20.664062 22.542969 20.644531 C 22.539062 20.640625 22.527344 20.636719 22.519531 20.632812 C 22.386719 20.566406 22.320312 20.457031 22.332031 20.308594 C 22.335938 20.253906 22.347656 20.203125 22.359375 20.152344 C 22.414062 19.949219 22.5 19.753906 22.585938 19.5625 C 22.785156 19.125 22.953125 18.679688 23.074219 18.21875 C 23.082031 18.1875 23.101562 18.15625 23.089844 18.125 C 23.074219 18.125 23.066406 18.128906 23.054688 18.136719 C 22.960938 18.203125 22.867188 18.265625 22.789062 18.347656 C 22.640625 18.488281 22.484375 18.617188 22.335938 18.757812 C 22.089844 18.992188 21.839844 19.222656 21.582031 19.445312 C 21.289062 19.695312 20.980469 19.921875 20.675781 20.160156 C 20.5625 20.242188 20.4375 20.304688 20.308594 20.355469 C 20.253906 20.378906 20.195312 20.394531 20.132812 20.390625 C 20.09375 20.386719 20.082031 20.40625 20.078125 20.441406 C 20.066406 20.546875 20.054688 20.65625 20.035156 20.761719 C 19.960938 21.152344 19.867188 21.535156 19.707031 21.902344 C 19.648438 22.042969 19.574219 22.175781 19.480469 22.292969 C 19.460938 22.324219 19.4375 22.351562 19.414062 22.382812 Z M 25.421875 16.753906 C 25.390625 16.78125 25.367188 16.796875 25.34375 16.816406 C 25.257812 16.886719 25.171875 16.960938 25.082031 17.023438 C 25.035156 17.058594 24.992188 17.097656 24.953125 17.148438 C 24.90625 17.210938 24.855469 17.277344 24.792969 17.328125 C 24.636719 17.449219 24.5 17.59375 24.378906 17.753906 C 24.140625 18.0625 23.960938 18.40625 23.789062 18.75 C 23.652344 19.027344 23.535156 19.3125 23.398438 19.589844 C 23.273438 19.835938 23.160156 20.085938 23.019531 20.320312 C 23.011719 20.332031 22.992188 20.34375 23.003906 20.367188 C 23.011719 20.367188 23.015625 20.367188 23.019531 20.363281 C 23.191406 20.273438 23.382812 20.246094 23.574219 20.226562 C 23.804688 20.199219 24.03125 20.164062 24.253906 20.089844 C 24.742188 19.925781 25.148438 19.648438 25.417969 19.195312 C 25.558594 18.957031 25.628906 18.699219 25.636719 18.421875 C 25.640625 18.269531 25.617188 18.121094 25.597656 17.972656 C 25.570312 17.761719 25.542969 17.554688 25.5625 17.339844 C 25.574219 17.183594 25.527344 17.035156 25.480469 16.882812 C 25.46875 16.84375 25.445312 16.800781 25.421875 16.753906 Z M 17.253906 13.511719 C 17.269531 13.515625 17.273438 13.515625 17.277344 13.515625 C 17.292969 13.511719 17.308594 13.503906 17.328125 13.5 C 17.601562 13.410156 17.882812 13.386719 18.167969 13.441406 C 18.386719 13.480469 18.597656 13.554688 18.800781 13.640625 C 19.335938 13.855469 19.722656 14.230469 19.972656 14.742188 C 20.101562 15.003906 20.183594 15.28125 20.25 15.5625 C 20.3125 15.835938 20.328125 16.117188 20.351562 16.398438 C 20.351562 16.414062 20.34375 16.433594 20.371094 16.449219 C 20.6875 16.140625 21.023438 15.851562 21.351562 15.554688 C 21.679688 15.257812 21.957031 14.910156 22.300781 14.609375 C 22.234375 14.59375 22.183594 14.589844 22.128906 14.589844 C 21.867188 14.589844 21.601562 14.589844 21.335938 14.585938 C 21.113281 14.578125 20.890625 14.554688 20.671875 14.496094 C 20.484375 14.445312 20.304688 14.386719 20.144531 14.273438 C 19.984375 14.160156 19.878906 14.007812 19.824219 13.820312 C 19.800781 13.75 19.792969 13.671875 19.800781 13.597656 C 19.816406 13.496094 19.867188 13.449219 19.972656 13.4375 C 19.984375 13.4375 20 13.445312 20.007812 13.429688 C 19.996094 13.417969 19.980469 13.414062 19.964844 13.410156 C 19.746094 13.347656 19.527344 13.292969 19.304688 13.246094 C 19.191406 13.21875 19.082031 13.191406 18.964844 13.171875 C 18.929688 13.167969 18.894531 13.164062 18.855469 13.183594 C 18.667969 13.300781 18.46875 13.316406 18.265625 13.214844 C 18.234375 13.199219 18.207031 13.195312 18.171875 13.199219 C 17.9375 13.230469 17.714844 13.304688 17.496094 13.386719 C 17.414062 13.417969 17.335938 13.460938 17.253906 13.511719 Z M 16.03125 15.328125 C 16.03125 15.292969 16.027344 15.253906 16.027344 15.210938 C 16.027344 15.1875 16.019531 15.167969 15.992188 15.152344 C 15.949219 15.125 15.914062 15.09375 15.871094 15.0625 C 15.6875 14.917969 15.488281 14.878906 15.261719 14.957031 C 15.179688 14.984375 15.132812 15.042969 15.109375 15.121094 C 15.070312 15.261719 15.007812 15.390625 14.929688 15.515625 C 14.898438 15.5625 14.871094 15.613281 14.84375 15.667969 C 14.816406 15.71875 14.820312 15.722656 14.871094 15.746094 C 14.996094 15.808594 15.125 15.859375 15.253906 15.910156 C 15.296875 15.925781 15.335938 15.925781 15.378906 15.910156 C 15.53125 15.863281 15.683594 15.804688 15.828125 15.734375 C 15.992188 15.648438 16.046875 15.558594 16.035156 15.371094 C 16.035156 15.359375 16.03125 15.34375 16.03125 15.328125 Z M 16.34375 13.996094 C 16.375 13.996094 16.382812 13.980469 16.394531 13.976562 C 16.566406 13.871094 16.722656 13.75 16.890625 13.640625 C 17.054688 13.535156 17.210938 13.425781 17.386719 13.34375 C 17.621094 13.230469 17.863281 13.132812 18.132812 13.15625 C 18.140625 13.15625 18.144531 13.152344 18.148438 13.136719 C 18.023438 13.0625 17.941406 12.945312 17.886719 12.8125 C 17.828125 12.679688 17.800781 12.539062 17.78125 12.394531 C 17.714844 12.40625 17.65625 12.433594 17.605469 12.46875 C 17.359375 12.628906 17.140625 12.820312 16.984375 13.074219 C 16.855469 13.289062 16.71875 13.5 16.570312 13.703125 C 16.503906 13.804688 16.421875 13.894531 16.34375 13.996094 Z M 18.183594 22.9375 C 18.691406 22.855469 19.183594 22.753906 19.65625 22.558594 C 20.121094 22.363281 20.558594 22.117188 21 21.84375 C 20.957031 21.839844 20.933594 21.855469 20.914062 21.867188 C 20.628906 21.996094 20.34375 22.132812 20.054688 22.257812 C 19.757812 22.382812 19.453125 22.492188 19.160156 22.625 C 19.136719 22.636719 19.113281 22.636719 19.089844 22.628906 C 18.992188 22.59375 18.894531 22.589844 18.796875 22.632812 C 18.605469 22.714844 18.417969 22.808594 18.230469 22.902344 C 18.214844 22.910156 18.199219 22.914062 18.183594 22.9375 Z M 15.40625 14.796875 C 15.421875 14.796875 15.429688 14.796875 15.4375 14.796875 C 15.636719 14.769531 15.804688 14.832031 15.945312 14.976562 C 15.96875 15 15.992188 15.023438 16.015625 15.050781 C 16.035156 15.066406 16.050781 15.078125 16.078125 15.070312 C 16.105469 15.058594 16.125 15.039062 16.125 15.007812 C 16.128906 14.980469 16.121094 14.957031 16.109375 14.933594 C 16.082031 14.859375 16.035156 14.792969 15.984375 14.730469 C 15.96875 14.71875 15.953125 14.707031 15.933594 14.695312 C 15.757812 14.601562 15.566406 14.636719 15.40625 14.796875 Z M 20.996094 18.554688 C 20.960938 18.554688 20.945312 18.574219 20.929688 18.589844 C 20.789062 18.707031 20.644531 18.828125 20.503906 18.949219 C 20.414062 19.027344 20.328125 19.113281 20.246094 19.199219 C 20.230469 19.21875 20.207031 19.230469 20.210938 19.257812 C 20.21875 19.308594 20.207031 19.363281 20.207031 19.429688 C 20.484375 19.144531 20.738281 18.851562 20.996094 18.554688 Z M 20.996094 18.554688 " fill-opacity="1" fill-rule="nonzero"/></g><g clip-path="url(#915a28f1f8)"><path fill="#000000" d="M 25.839844 18.179688 C 25.855469 18.183594 25.863281 18.191406 25.871094 18.203125 C 25.980469 18.339844 26.121094 18.4375 26.269531 18.523438 C 26.550781 18.679688 26.832031 18.832031 27.105469 18.996094 C 27.429688 19.183594 27.742188 19.394531 28.054688 19.605469 C 28.140625 19.664062 28.21875 19.734375 28.289062 19.816406 C 28.339844 19.871094 28.347656 19.929688 28.316406 20 C 28.273438 20.09375 28.226562 20.179688 28.175781 20.265625 C 28.148438 20.308594 28.109375 20.335938 28.070312 20.363281 C 28.019531 20.394531 27.972656 20.429688 27.933594 20.46875 C 27.566406 20.828125 27.183594 21.171875 26.800781 21.515625 C 26.140625 22.105469 25.476562 22.691406 24.789062 23.25 C 24.03125 23.867188 23.261719 24.472656 22.449219 25.015625 C 21.796875 25.449219 21.136719 25.867188 20.457031 26.25 C 20.25 26.367188 20.039062 26.472656 19.824219 26.566406 C 19.738281 26.601562 19.652344 26.632812 19.5625 26.640625 C 19.472656 26.648438 19.386719 26.632812 19.304688 26.59375 C 19.140625 26.519531 18.992188 26.421875 18.851562 26.308594 C 18.429688 25.960938 18.035156 25.589844 17.644531 25.210938 C 17.433594 25.011719 17.238281 24.800781 17.074219 24.558594 C 17.015625 24.472656 16.941406 24.402344 16.875 24.324219 C 16.859375 24.304688 16.824219 24.28125 16.855469 24.253906 C 16.882812 24.230469 16.90625 24.257812 16.925781 24.273438 C 17.035156 24.367188 17.136719 24.464844 17.21875 24.578125 C 17.347656 24.753906 17.496094 24.910156 17.65625 25.058594 C 17.910156 25.304688 18.164062 25.554688 18.425781 25.792969 C 18.601562 25.949219 18.777344 26.101562 18.960938 26.25 C 19.074219 26.34375 19.195312 26.421875 19.328125 26.488281 C 19.421875 26.539062 19.523438 26.546875 19.628906 26.515625 C 19.714844 26.492188 19.796875 26.457031 19.878906 26.417969 C 20.265625 26.234375 20.636719 26.019531 21.003906 25.796875 C 21.800781 25.308594 22.585938 24.804688 23.335938 24.242188 C 24.328125 23.5 25.292969 22.714844 26.226562 21.894531 C 26.722656 21.460938 27.214844 21.019531 27.695312 20.570312 C 27.8125 20.457031 27.921875 20.34375 28.042969 20.234375 C 28.121094 20.160156 28.144531 20.050781 28.179688 19.953125 C 28.1875 19.925781 28.171875 19.910156 28.15625 19.890625 C 28.101562 19.835938 28.046875 19.789062 27.984375 19.746094 C 27.867188 19.664062 27.738281 19.59375 27.617188 19.519531 C 27.476562 19.433594 27.335938 19.34375 27.199219 19.25 C 27.03125 19.132812 26.859375 19.03125 26.6875 18.925781 C 26.507812 18.820312 26.332031 18.710938 26.167969 18.585938 C 26.046875 18.488281 25.933594 18.382812 25.859375 18.242188 C 25.847656 18.222656 25.832031 18.210938 25.839844 18.179688 Z M 25.839844 18.179688 " fill-opacity="1" fill-rule="nonzero"/></g><path fill="#000000" d="M 19.570312 26.242188 C 19.578125 26.203125 19.601562 26.195312 19.621094 26.183594 C 19.835938 26.050781 20.050781 25.90625 20.261719 25.761719 C 20.601562 25.527344 20.957031 25.320312 21.308594 25.109375 C 22.261719 24.535156 23.167969 23.894531 24.0625 23.238281 C 24.910156 22.617188 25.757812 21.996094 26.589844 21.359375 C 26.613281 21.339844 26.632812 21.328125 26.664062 21.320312 C 26.644531 21.339844 26.628906 21.355469 26.609375 21.371094 C 25.457031 22.351562 24.242188 23.253906 23.007812 24.121094 C 22.347656 24.585938 21.664062 25.003906 20.96875 25.410156 C 20.660156 25.589844 20.355469 25.789062 20.054688 25.980469 C 19.941406 26.050781 19.828125 26.117188 19.714844 26.179688 C 19.671875 26.203125 19.628906 26.230469 19.570312 26.242188 Z M 19.570312 26.242188 " fill-opacity="1" fill-rule="nonzero"/><path fill="#000000" d="M 13.066406 16.582031 C 13.078125 16.609375 13.058594 16.632812 13.046875 16.65625 C 13.015625 16.710938 12.976562 16.761719 12.9375 16.808594 C 12.796875 16.988281 12.636719 17.15625 12.472656 17.3125 C 11.953125 17.804688 11.417969 18.28125 10.875 18.746094 C 10.625 18.957031 10.386719 19.183594 10.132812 19.386719 C 10.085938 19.425781 10.085938 19.4375 10.121094 19.488281 C 10.164062 19.550781 10.222656 19.59375 10.285156 19.632812 C 10.398438 19.699219 10.519531 19.757812 10.636719 19.820312 C 10.710938 19.859375 10.78125 19.894531 10.851562 19.933594 C 11.113281 20.0625 11.335938 20.253906 11.542969 20.453125 C 11.648438 20.550781 11.742188 20.65625 11.835938 20.757812 C 11.855469 20.777344 11.875 20.796875 11.886719 20.824219 C 11.863281 20.839844 11.847656 20.820312 11.835938 20.808594 C 11.664062 20.691406 11.503906 20.5625 11.339844 20.433594 C 11.117188 20.257812 10.878906 20.109375 10.628906 19.980469 C 10.515625 19.921875 10.402344 19.859375 10.289062 19.796875 C 10.210938 19.753906 10.136719 19.699219 10.078125 19.628906 C 10.054688 19.605469 10.035156 19.578125 10.015625 19.550781 C 9.957031 19.453125 9.964844 19.390625 10.050781 19.3125 C 10.066406 19.296875 10.082031 19.285156 10.09375 19.273438 C 10.546875 18.898438 10.980469 18.511719 11.425781 18.132812 C 11.824219 17.789062 12.207031 17.4375 12.59375 17.082031 C 12.75 16.9375 12.890625 16.773438 13.027344 16.609375 C 13.039062 16.597656 13.042969 16.582031 13.066406 16.582031 Z M 13.066406 16.582031 " fill-opacity="1" fill-rule="nonzero"/><path fill="#000000" d="M 18.972656 17.6875 C 18.941406 17.699219 18.921875 17.679688 18.90625 17.664062 C 18.859375 17.625 18.824219 17.574219 18.796875 17.519531 C 18.683594 17.300781 18.589844 17.074219 18.480469 16.851562 C 18.402344 16.691406 18.300781 16.542969 18.160156 16.429688 C 18.0625 16.351562 17.957031 16.285156 17.847656 16.230469 C 17.671875 16.140625 17.503906 16.039062 17.339844 15.9375 C 17.273438 15.894531 17.207031 15.859375 17.144531 15.820312 C 17.082031 15.78125 17.074219 15.746094 17.109375 15.679688 C 17.164062 15.578125 17.257812 15.519531 17.363281 15.480469 C 17.421875 15.460938 17.476562 15.476562 17.53125 15.5 C 17.769531 15.601562 17.992188 15.726562 18.191406 15.894531 C 18.421875 16.082031 18.597656 16.304688 18.71875 16.578125 C 18.832031 16.832031 18.890625 17.097656 18.933594 17.371094 C 18.941406 17.441406 18.957031 17.511719 18.96875 17.585938 C 18.976562 17.621094 18.980469 17.652344 18.972656 17.6875 Z M 18.851562 17.414062 C 18.828125 17.269531 18.8125 17.136719 18.78125 17.003906 C 18.703125 16.699219 18.578125 16.417969 18.359375 16.179688 C 18.265625 16.078125 18.160156 15.984375 18.042969 15.902344 C 17.871094 15.785156 17.703125 15.664062 17.503906 15.585938 C 17.460938 15.570312 17.417969 15.546875 17.367188 15.566406 C 17.300781 15.589844 17.238281 15.621094 17.1875 15.671875 C 17.152344 15.714844 17.15625 15.742188 17.203125 15.769531 C 17.421875 15.890625 17.640625 16.015625 17.859375 16.136719 C 17.996094 16.214844 18.125 16.296875 18.238281 16.398438 C 18.367188 16.519531 18.460938 16.667969 18.539062 16.820312 C 18.625 16.992188 18.707031 17.164062 18.792969 17.332031 C 18.808594 17.359375 18.820312 17.386719 18.851562 17.414062 Z M 18.851562 17.414062 " fill-opacity="1" fill-rule="nonzero"/><path fill="#000000" d="M 13.035156 17.84375 C 13.03125 17.8125 13.046875 17.800781 13.0625 17.792969 C 13.109375 17.765625 13.144531 17.726562 13.179688 17.6875 C 13.300781 17.546875 13.453125 17.453125 13.625 17.386719 C 13.726562 17.34375 13.816406 17.359375 13.886719 17.449219 C 13.914062 17.484375 13.949219 17.5 14 17.5 C 14.082031 17.496094 14.144531 17.527344 14.199219 17.59375 C 14.277344 17.683594 14.335938 17.785156 14.375 17.890625 C 14.433594 18.050781 14.492188 18.214844 14.542969 18.375 C 14.613281 18.613281 14.703125 18.847656 14.828125 19.066406 C 14.832031 19.074219 14.839844 19.085938 14.84375 19.097656 C 14.847656 19.121094 14.847656 19.144531 14.832031 19.160156 C 14.8125 19.179688 14.789062 19.171875 14.769531 19.160156 C 14.734375 19.140625 14.699219 19.117188 14.671875 19.089844 C 14.519531 18.925781 14.367188 18.761719 14.242188 18.574219 C 14.171875 18.46875 14.085938 18.371094 14.003906 18.269531 C 13.976562 18.234375 13.9375 18.203125 13.902344 18.171875 C 13.859375 18.136719 13.816406 18.113281 13.757812 18.109375 C 13.679688 18.105469 13.609375 18.074219 13.558594 18.007812 C 13.511719 17.949219 13.441406 17.921875 13.371094 17.902344 C 13.289062 17.878906 13.210938 17.859375 13.128906 17.84375 C 13.097656 17.839844 13.070312 17.84375 13.035156 17.84375 Z M 14.75 19.019531 C 14.746094 19.011719 14.746094 19.007812 14.742188 19 C 14.617188 18.800781 14.53125 18.578125 14.457031 18.355469 C 14.417969 18.222656 14.367188 18.09375 14.320312 17.964844 C 14.28125 17.863281 14.234375 17.769531 14.171875 17.675781 C 14.128906 17.609375 14.074219 17.578125 13.996094 17.585938 C 13.945312 17.585938 13.902344 17.566406 13.867188 17.53125 C 13.84375 17.511719 13.824219 17.488281 13.808594 17.464844 C 13.777344 17.417969 13.738281 17.410156 13.691406 17.421875 C 13.644531 17.433594 13.597656 17.453125 13.554688 17.472656 C 13.414062 17.539062 13.292969 17.636719 13.183594 17.75 C 13.171875 17.765625 13.15625 17.777344 13.164062 17.796875 C 13.171875 17.816406 13.195312 17.8125 13.210938 17.8125 C 13.21875 17.8125 13.226562 17.8125 13.234375 17.8125 C 13.390625 17.832031 13.535156 17.871094 13.648438 17.992188 C 13.671875 18.019531 13.703125 18.027344 13.734375 18.03125 C 13.828125 18.035156 13.902344 18.082031 13.96875 18.140625 C 14.019531 18.183594 14.0625 18.230469 14.105469 18.28125 C 14.199219 18.398438 14.289062 18.511719 14.375 18.636719 C 14.476562 18.785156 14.605469 18.90625 14.75 19.019531 Z M 14.75 19.019531 " fill-opacity="1" fill-rule="nonzero"/><path fill="#000000" d="M 17.96875 17.734375 C 17.921875 17.742188 17.886719 17.726562 17.847656 17.714844 C 17.671875 17.660156 17.503906 17.578125 17.339844 17.488281 C 17.261719 17.445312 17.195312 17.386719 17.140625 17.316406 C 17.046875 17.203125 16.957031 17.082031 16.894531 16.949219 C 16.875 16.902344 16.84375 16.867188 16.800781 16.84375 C 16.769531 16.828125 16.742188 16.808594 16.71875 16.792969 C 16.699219 16.777344 16.6875 16.761719 16.699219 16.738281 C 16.707031 16.722656 16.730469 16.722656 16.746094 16.730469 C 16.820312 16.753906 16.894531 16.773438 16.949219 16.835938 C 17.007812 16.90625 17.058594 16.980469 17.109375 17.054688 C 17.234375 17.238281 17.398438 17.378906 17.585938 17.488281 C 17.695312 17.554688 17.8125 17.613281 17.917969 17.6875 C 17.933594 17.699219 17.953125 17.710938 17.96875 17.734375 Z M 17.96875 17.734375 " fill-opacity="1" fill-rule="nonzero"/><path fill="#000000" d="M 14.949219 17.371094 C 14.960938 17.335938 14.945312 17.316406 14.933594 17.292969 C 14.898438 17.214844 14.847656 17.144531 14.792969 17.078125 C 14.785156 17.066406 14.769531 17.054688 14.757812 17.042969 C 14.722656 17.019531 14.703125 17.027344 14.691406 17.066406 C 14.683594 17.082031 14.695312 17.109375 14.664062 17.113281 C 14.640625 17.113281 14.617188 17.097656 14.601562 17.074219 C 14.570312 17.023438 14.589844 16.960938 14.652344 16.941406 C 14.714844 16.914062 14.773438 16.933594 14.820312 16.972656 C 14.933594 17.066406 15.011719 17.1875 15.054688 17.324219 C 15.054688 17.332031 15.058594 17.339844 15.058594 17.347656 C 15.0625 17.40625 15.046875 17.449219 15.007812 17.464844 C 14.96875 17.480469 14.910156 17.460938 14.878906 17.425781 C 14.863281 17.402344 14.847656 17.378906 14.867188 17.355469 C 14.882812 17.332031 14.90625 17.347656 14.925781 17.359375 C 14.933594 17.363281 14.9375 17.363281 14.949219 17.371094 Z M 14.949219 17.371094 " fill-opacity="1" fill-rule="nonzero"/><path fill="#000000" d="M 13.609375 18.777344 C 13.566406 18.792969 13.53125 18.785156 13.496094 18.773438 C 13.261719 18.707031 13.097656 18.554688 12.976562 18.347656 C 12.96875 18.332031 12.964844 18.316406 12.980469 18.300781 C 12.996094 18.289062 13.015625 18.289062 13.03125 18.300781 C 13.066406 18.320312 13.089844 18.351562 13.113281 18.386719 C 13.210938 18.519531 13.332031 18.625 13.476562 18.710938 C 13.519531 18.738281 13.5625 18.757812 13.609375 18.777344 Z M 13.609375 18.777344 " fill-opacity="1" fill-rule="nonzero"/></svg>