<svg xmlns="http://www.w3.org/2000/svg" xmlns:xlink="http://www.w3.org/1999/xlink" width="50" zoomAndPan="magnify" viewBox="0 0 37.5 40.5" height="54" preserveAspectRatio="xMidYMid meet" version="1.0"><defs><clipPath id="8303852f25"><path d="M 0 0.0195312 L 37.007812 0.0195312 L 37.007812 39.988281 L 0 39.988281 Z M 0 0.0195312 " clip-rule="nonzero"/></clipPath><clipPath id="158a44b931"><path d="M 0 0.0195312 L 37.007812 0.0195312 L 37.007812 37.027344 L 0 37.027344 Z M 0 0.0195312 " clip-rule="nonzero"/></clipPath><clipPath id="7b44911327"><path d="M 9.0625 17.378906 L 28.496094 17.378906 L 28.496094 26.25 L 9.0625 26.25 Z M 9.0625 17.378906 " clip-rule="nonzero"/></clipPath><clipPath id="f99dbeb8ab"><path d="M 8.511719 10.777344 L 12 10.777344 L 12 14 L 8.511719 14 Z M 8.511719 10.777344 " clip-rule="nonzero"/></clipPath></defs><g clip-path="url(#8303852f25)"><path fill="#ffffff" d="M 0 0.0195312 L 37.007812 0.0195312 L 37.007812 39.988281 L 0 39.988281 Z M 0 0.0195312 " fill-opacity="1" fill-rule="nonzero"/><path fill="#ffffff" d="M 0 0.0195312 L 37.007812 0.0195312 L 37.007812 39.988281 L 0 39.988281 Z M 0 0.0195312 " fill-opacity="1" fill-rule="nonzero"/></g><g clip-path="url(#158a44b931)"><path fill="#9cd6c9" d="M 18.503906 0.0195312 C 8.296875 0.0195312 0 8.324219 0 18.523438 C 0 28.730469 8.296875 37.027344 18.503906 37.027344 C 28.703125 37.027344 37.007812 28.730469 37.007812 18.523438 C 37.007812 8.324219 28.703125 0.0195312 18.503906 0.0195312 Z M 18.503906 35.582031 C 9.097656 35.582031 1.441406 27.929688 1.441406 18.523438 C 1.441406 9.117188 9.097656 1.464844 18.503906 1.464844 C 27.910156 1.464844 35.5625 9.117188 35.5625 18.523438 C 35.5625 27.929688 27.910156 35.582031 18.503906 35.582031 Z M 18.503906 35.582031 " fill-opacity="1" fill-rule="nonzero"/></g><path fill="#9cd6c9" d="M 18.503906 2.425781 C 9.628906 2.425781 2.40625 9.648438 2.40625 18.523438 C 2.40625 27.398438 9.628906 34.621094 18.503906 34.621094 C 27.378906 34.621094 34.601562 27.398438 34.601562 18.523438 C 34.601562 9.648438 27.378906 2.425781 18.503906 2.425781 Z M 18.503906 2.425781 " fill-opacity="1" fill-rule="nonzero"/><path fill="#000000" d="M 13.511719 16.269531 L 11.789062 14.527344 L 11.503906 14.808594 L 13.226562 16.546875 L 13.511719 16.269531 " fill-opacity="1" fill-rule="nonzero"/><path fill="#000000" d="M 10.148438 15.007812 C 9.988281 15.164062 9.988281 15.417969 10.140625 15.578125 C 10.222656 15.65625 10.324219 15.699219 10.429688 15.699219 C 10.53125 15.699219 10.632812 15.660156 10.710938 15.585938 L 10.929688 15.371094 L 10.648438 15.085938 C 10.574219 15.007812 10.53125 14.90625 10.53125 14.800781 C 10.535156 14.691406 10.578125 14.589844 10.652344 14.515625 L 10.148438 15.007812 " fill-opacity="1" fill-rule="nonzero"/><path fill="#000000" d="M 19.695312 22.042969 C 19.695312 21.820312 19.875 21.636719 20.097656 21.636719 C 20.320312 21.636719 20.5 21.820312 20.5 22.042969 L 20.5 22.316406 C 20.5 22.539062 20.320312 22.71875 20.097656 22.71875 C 19.875 22.71875 19.695312 22.539062 19.695312 22.316406 Z M 18.523438 21.335938 L 17.144531 19.941406 C 17.074219 20.003906 16.980469 20.039062 16.882812 20.039062 L 16.265625 20.035156 C 16.160156 20.035156 16.058594 19.992188 15.984375 19.917969 L 15.941406 19.871094 L 15.523438 20.355469 C 15.457031 20.300781 15.25 20.078125 15.140625 19.523438 L 14.714844 19.613281 C 14.695312 19.613281 14.679688 19.617188 14.660156 19.617188 C 14.660156 19.617188 14.460938 19.636719 14.242188 19.734375 C 13.925781 19.875 13.757812 20.101562 13.71875 20.425781 C 13.675781 20.777344 13.71875 21.121094 13.785156 21.640625 C 13.8125 21.882812 13.847656 22.152344 13.878906 22.46875 C 13.878906 22.472656 13.878906 22.476562 13.878906 22.480469 C 13.878906 22.484375 13.878906 22.488281 13.878906 22.492188 L 13.878906 22.503906 C 13.882812 22.507812 13.882812 22.511719 13.882812 22.515625 C 13.90625 22.757812 13.925781 23.023438 13.945312 23.328125 C 13.960938 23.546875 13.792969 23.738281 13.570312 23.753906 C 13.5625 23.753906 13.554688 23.753906 13.542969 23.753906 C 13.335938 23.753906 13.160156 23.59375 13.144531 23.382812 L 13.113281 23 C 12.511719 23.125 11.445312 23.335938 10.6875 23.410156 C 10.285156 23.449219 10.03125 23.445312 9.855469 23.402344 C 9.6875 23.359375 9.535156 23.320312 9.40625 23.292969 L 9.472656 24.242188 C 10.558594 24.332031 13.816406 24.578125 16.402344 24.515625 C 18.445312 24.46875 20.203125 23.800781 21.175781 23.34375 C 21.195312 23.066406 21.222656 22.71875 21.257812 22.371094 C 21.230469 22.375 21.203125 22.378906 21.175781 22.378906 C 21.058594 22.378906 20.941406 22.332031 20.863281 22.234375 L 20.660156 21.984375 C 20.519531 21.8125 20.546875 21.5625 20.71875 21.417969 C 20.890625 21.277344 21.144531 21.304688 21.285156 21.476562 L 21.355469 21.5625 C 21.371094 21.457031 21.390625 21.351562 21.410156 21.253906 C 21.480469 20.882812 21.378906 19.96875 21.230469 19.042969 C 20.957031 19 20.589844 18.933594 20.1875 18.855469 C 20.28125 18.878906 20.367188 18.929688 20.429688 19.015625 L 20.558594 19.203125 C 20.78125 19.511719 20.847656 19.902344 20.75 20.269531 L 20.574219 20.90625 C 20.527344 21.085938 20.367188 21.203125 20.1875 21.203125 C 20.152344 21.203125 20.117188 21.199219 20.082031 21.191406 C 19.867188 21.132812 19.742188 20.910156 19.800781 20.695312 L 19.890625 20.355469 C 19.707031 20.320312 19.566406 20.15625 19.566406 19.960938 C 19.566406 19.785156 19.679688 19.632812 19.839844 19.582031 L 19.769531 19.480469 C 19.640625 19.296875 19.683594 19.046875 19.867188 18.917969 C 19.953125 18.859375 20.054688 18.835938 20.152344 18.851562 C 19.226562 18.671875 18.15625 18.441406 17.753906 18.277344 C 17.800781 18.34375 17.828125 18.421875 17.828125 18.507812 L 17.824219 19.117188 C 17.820312 19.214844 17.785156 19.304688 17.722656 19.378906 L 19.175781 20.847656 C 19.242188 20.832031 19.3125 20.824219 19.390625 20.824219 C 19.398438 20.824219 19.40625 20.824219 19.410156 20.824219 C 19.632812 20.828125 19.808594 21.011719 19.808594 21.234375 C 19.804688 21.457031 19.625 21.636719 19.398438 21.628906 C 19.257812 21.632812 19.210938 21.730469 19.191406 21.816406 C 19.144531 22 18.980469 22.128906 18.796875 22.128906 C 18.769531 22.128906 18.738281 22.125 18.710938 22.121094 C 18.496094 22.074219 18.359375 21.867188 18.402344 21.652344 C 18.421875 21.5625 18.460938 21.449219 18.523438 21.335938 " fill-opacity="1" fill-rule="nonzero"/><path fill="#000000" d="M 16.125 18.914062 L 16.441406 19.230469 L 16.542969 19.234375 L 16.722656 19.234375 L 16.769531 19.1875 L 17.019531 18.941406 L 17.023438 18.667969 L 16.703125 18.347656 L 16.664062 18.386719 L 16.390625 18.65625 L 16.132812 18.90625 L 16.125 18.914062 " fill-opacity="1" fill-rule="nonzero"/><path fill="#000000" d="M 12.953125 12.824219 L 13.238281 13.113281 L 13.453125 12.902344 C 13.609375 12.746094 13.613281 12.492188 13.457031 12.335938 C 13.300781 12.175781 13.046875 12.171875 12.890625 12.328125 L 12.382812 12.820312 C 12.542969 12.667969 12.796875 12.667969 12.953125 12.824219 " fill-opacity="1" fill-rule="nonzero"/><g clip-path="url(#7b44911327)"><path fill="#000000" d="M 26.398438 22.15625 C 26.320312 22.257812 26.203125 22.308594 26.082031 22.308594 C 26.039062 22.308594 25.996094 22.300781 25.953125 22.289062 C 25.914062 22.273438 25.871094 22.253906 25.835938 22.226562 C 25.738281 22.148438 25.625 22.085938 25.503906 22.027344 C 25.367188 21.964844 25.222656 21.910156 25.066406 21.863281 C 24.398438 21.664062 23.601562 21.621094 23.253906 21.628906 C 23.253906 21.628906 23.25 21.628906 23.25 21.628906 C 23.03125 21.628906 22.851562 21.453125 22.847656 21.234375 C 22.84375 21.011719 23.019531 20.828125 23.242188 20.824219 C 23.296875 20.824219 24.09375 20.816406 24.933594 21 C 25.074219 21.03125 25.214844 21.070312 25.355469 21.113281 C 25.503906 21.160156 25.648438 21.214844 25.785156 21.273438 C 25.984375 21.363281 26.171875 21.464844 26.332031 21.589844 C 26.503906 21.726562 26.535156 21.980469 26.398438 22.15625 Z M 23.953125 18.9375 C 23.742188 18.914062 23.554688 18.894531 23.402344 18.882812 C 23.171875 18.867188 23.019531 18.863281 23.015625 18.863281 C 22.90625 18.863281 22.804688 18.816406 22.734375 18.742188 C 22.660156 18.667969 22.617188 18.566406 22.621094 18.457031 C 22.621094 18.417969 22.628906 18.382812 22.636719 18.347656 C 22.691406 18.179688 22.851562 18.0625 23.027344 18.058594 C 23.058594 18.058594 23.375 18.066406 23.820312 18.113281 C 24.464844 18.179688 25.382812 18.332031 26.121094 18.679688 C 26.320312 18.773438 26.40625 19.015625 26.3125 19.214844 C 26.242188 19.363281 26.097656 19.445312 25.945312 19.445312 C 25.890625 19.445312 25.832031 19.433594 25.773438 19.40625 C 25.398438 19.230469 24.953125 19.109375 24.53125 19.03125 C 24.328125 18.992188 24.132812 18.960938 23.953125 18.9375 Z M 26.234375 18.335938 C 24.496094 17.445312 22.597656 17.527344 21.792969 17.621094 C 21.824219 17.78125 21.863281 17.976562 21.902344 18.191406 C 21.925781 18.320312 21.949219 18.457031 21.972656 18.597656 C 21.996094 18.726562 22.019531 18.863281 22.039062 19 C 22.058594 19.109375 22.074219 19.21875 22.089844 19.332031 C 22.671875 19.363281 23.457031 19.445312 23.894531 19.523438 C 24.03125 19.546875 24.136719 19.570312 24.1875 19.59375 C 24.390625 19.683594 24.484375 19.917969 24.394531 20.125 C 24.386719 20.136719 24.378906 20.148438 24.371094 20.160156 C 24.296875 20.289062 24.164062 20.363281 24.027344 20.363281 C 23.976562 20.363281 23.929688 20.355469 23.882812 20.339844 C 23.726562 20.296875 22.898438 20.1875 22.191406 20.140625 C 22.242188 20.65625 22.253906 21.117188 22.199219 21.410156 C 22.082031 22.007812 22.007812 22.964844 21.972656 23.527344 L 25.300781 23.246094 L 25.535156 23.226562 C 25.597656 23.222656 25.65625 23.234375 25.710938 23.253906 C 25.851562 23.308594 25.953125 23.4375 25.96875 23.59375 C 25.980469 23.730469 25.921875 23.855469 25.828125 23.933594 C 25.765625 23.988281 25.6875 24.023438 25.601562 24.03125 L 25.4375 24.042969 L 21.578125 24.367188 C 21.464844 24.378906 21.347656 24.335938 21.265625 24.253906 C 21.25 24.238281 21.234375 24.222656 21.222656 24.207031 C 20.578125 24.488281 19.703125 24.8125 18.679688 25.039062 C 17.988281 25.191406 17.226562 25.300781 16.421875 25.320312 C 13.910156 25.382812 10.789062 25.15625 9.558594 25.054688 C 9.507812 25.050781 9.457031 25.046875 9.410156 25.042969 L 9.355469 25.457031 L 9.25 26.25 L 28.296875 26.25 C 28.507812 24.976562 29.167969 19.84375 26.234375 18.335938 " fill-opacity="1" fill-rule="nonzero"/></g><g clip-path="url(#f99dbeb8ab)"><path fill="#000000" d="M 11.222656 13.957031 L 11.519531 13.667969 L 11.800781 13.394531 L 10.519531 12.101562 L 11.101562 11.53125 C 11.261719 11.375 11.265625 11.121094 11.109375 10.964844 C 10.953125 10.804688 10.699219 10.800781 10.539062 10.957031 L 8.683594 12.773438 C 8.523438 12.929688 8.519531 13.183594 8.675781 13.34375 C 8.753906 13.421875 8.859375 13.464844 8.964844 13.464844 C 9.066406 13.464844 9.167969 13.425781 9.246094 13.347656 L 9.945312 12.664062 L 11.222656 13.957031 " fill-opacity="1" fill-rule="nonzero"/></g><path fill="#000000" d="M 14.382812 15.417969 L 12.660156 13.675781 L 12.367188 13.964844 L 14.085938 15.707031 L 14.382812 15.417969 " fill-opacity="1" fill-rule="nonzero"/><path fill="#000000" d="M 14.804688 17.882812 L 14.609375 17.945312 L 15.105469 18.445312 L 15.429688 18.34375 L 15.613281 18.289062 L 16.097656 17.816406 L 16.15625 17.632812 L 16.261719 17.316406 L 15.761719 16.8125 L 15.699219 17.011719 C 15.679688 17.074219 15.644531 17.128906 15.597656 17.171875 L 14.96875 17.785156 C 14.925781 17.832031 14.867188 17.863281 14.804688 17.882812 " fill-opacity="1" fill-rule="nonzero"/><path fill="#000000" d="M 14.367188 16.558594 C 14.367188 16.558594 14.367188 16.558594 14.367188 16.5625 L 13.792969 17.121094 L 13.96875 17.296875 L 14.480469 17.140625 L 14.964844 16.667969 L 15.125 16.167969 L 14.949219 15.988281 L 14.367188 16.558594 " fill-opacity="1" fill-rule="nonzero"/></svg>