<svg xmlns="http://www.w3.org/2000/svg" xmlns:xlink="http://www.w3.org/1999/xlink" width="50" zoomAndPan="magnify" viewBox="0 0 37.5 40.5" height="54" preserveAspectRatio="xMidYMid meet" version="1.0"><defs><clipPath id="8db1d061ca"><path d="M 0 0.0195312 L 37.007812 0.0195312 L 37.007812 39.988281 L 0 39.988281 Z M 0 0.0195312 " clip-rule="nonzero"/></clipPath><clipPath id="51b997123b"><path d="M 0 0.0195312 L 37.007812 0.0195312 L 37.007812 37.027344 L 0 37.027344 Z M 0 0.0195312 " clip-rule="nonzero"/></clipPath><clipPath id="e58133beab"><path d="M 10 9.679688 L 24 9.679688 L 24 27.441406 L 10 27.441406 Z M 10 9.679688 " clip-rule="nonzero"/></clipPath><clipPath id="0943039606"><path d="M 18 21 L 24 21 L 24 27.441406 L 18 27.441406 Z M 18 21 " clip-rule="nonzero"/></clipPath><clipPath id="f2e3adc1b7"><path d="M 18 19 L 27.421875 19 L 27.421875 27.441406 L 18 27.441406 Z M 18 19 " clip-rule="nonzero"/></clipPath></defs><g clip-path="url(#8db1d061ca)"><path fill="#ffffff" d="M 0 0.0195312 L 37.007812 0.0195312 L 37.007812 39.988281 L 0 39.988281 Z M 0 0.0195312 " fill-opacity="1" fill-rule="nonzero"/><path fill="#ffffff" d="M 0 0.0195312 L 37.007812 0.0195312 L 37.007812 39.988281 L 0 39.988281 Z M 0 0.0195312 " fill-opacity="1" fill-rule="nonzero"/></g><g clip-path="url(#51b997123b)"><path fill="#9cd6c9" d="M 18.503906 0.0195312 C 8.296875 0.0195312 0 8.324219 0 18.523438 C 0 28.730469 8.296875 37.027344 18.503906 37.027344 C 28.703125 37.027344 37.007812 28.730469 37.007812 18.523438 C 37.007812 8.324219 28.703125 0.0195312 18.503906 0.0195312 Z M 18.503906 35.582031 C 9.097656 35.582031 1.441406 27.929688 1.441406 18.523438 C 1.441406 9.117188 9.097656 1.464844 18.503906 1.464844 C 27.910156 1.464844 35.5625 9.117188 35.5625 18.523438 C 35.5625 27.929688 27.910156 35.582031 18.503906 35.582031 Z M 18.503906 35.582031 " fill-opacity="1" fill-rule="nonzero"/></g><path fill="#9cd6c9" d="M 18.503906 2.425781 C 9.628906 2.425781 2.40625 9.648438 2.40625 18.523438 C 2.40625 27.398438 9.628906 34.621094 18.503906 34.621094 C 27.378906 34.621094 34.601562 27.398438 34.601562 18.523438 C 34.601562 9.648438 27.378906 2.425781 18.503906 2.425781 Z M 18.503906 2.425781 " fill-opacity="1" fill-rule="nonzero"/><g clip-path="url(#e58133beab)"><path fill="#000000" d="M 12.058594 17.652344 C 12.058594 17.097656 12.125 16.574219 12.25 16.097656 C 11.367188 16.800781 11.375 17.609375 11.375 17.644531 C 11.378906 17.761719 10.957031 17.773438 10.957031 17.660156 C 10.953125 17.609375 10.960938 15.792969 13.359375 15.222656 C 15.203125 14.785156 16.410156 12.613281 16.464844 12.515625 C 16.667969 12.15625 16.734375 11.902344 16.738281 11.902344 C 16.769531 11.789062 17.171875 11.902344 17.144531 12.011719 C 17.140625 12.023438 17.0625 12.308594 16.835938 12.71875 C 16.835938 12.746094 18.492188 13.753906 19.34375 14.273438 C 19.996094 14.671875 20.550781 15.214844 20.910156 15.886719 C 21.292969 16.589844 21.546875 17.550781 21.199219 18.699219 C 21.054688 19.175781 20.808594 19.785156 20.480469 20.414062 L 21.0625 20.929688 C 21.199219 20.84375 21.355469 20.796875 21.519531 20.796875 C 21.71875 20.796875 21.914062 20.871094 22.066406 21.003906 L 22.265625 21.179688 C 22.320312 21.148438 22.632812 20.492188 22.71875 20.292969 C 23.042969 19.523438 23.25 18.667969 23.328125 17.761719 C 23.726562 13.277344 20.769531 9.671875 16.695312 9.671875 C 12.621094 9.671875 9.664062 13.277344 10.0625 17.761719 C 10.144531 18.667969 10.351562 19.523438 10.671875 20.292969 C 11.914062 23.273438 11.074219 26.011719 10.027344 27.207031 L 13.628906 27.207031 C 14.941406 26.269531 15.199219 24.597656 15.34375 23.273438 C 13.441406 22.257812 12.058594 19.339844 12.058594 17.652344 Z M 12.058594 17.652344 " fill-opacity="1" fill-rule="nonzero"/></g><g clip-path="url(#0943039606)"><path fill="#000000" d="M 20.96875 23.984375 C 20.78125 23.8125 20.664062 23.582031 20.652344 23.324219 C 20.640625 23.1875 20.660156 23.054688 20.707031 22.929688 L 20.511719 22.757812 C 20.347656 22.613281 20.25 22.410156 20.234375 22.191406 C 20.226562 22.042969 20.257812 21.898438 20.320312 21.773438 L 19.90625 21.40625 C 19.390625 22.191406 18.757812 22.902344 18.050781 23.277344 C 18.195312 24.597656 18.449219 26.269531 19.765625 27.207031 L 23.363281 27.207031 C 22.960938 26.75 22.589844 26.058594 22.355469 25.210938 Z M 20.96875 23.984375 " fill-opacity="1" fill-rule="nonzero"/></g><path fill="#000000" d="M 14.015625 16.753906 C 14.109375 16.726562 14.203125 16.691406 14.292969 16.65625 C 14.464844 16.59375 14.621094 16.535156 14.78125 16.515625 C 15.140625 16.46875 15.519531 16.636719 15.726562 16.929688 C 15.769531 16.988281 15.835938 17.019531 15.902344 17.019531 C 15.945312 17.019531 15.988281 17.003906 16.023438 16.980469 C 16.117188 16.914062 16.140625 16.78125 16.074219 16.6875 C 15.777344 16.265625 15.238281 16.03125 14.730469 16.097656 C 14.519531 16.121094 14.328125 16.195312 14.144531 16.261719 C 14.0625 16.292969 13.976562 16.328125 13.894531 16.351562 C 13.703125 16.410156 13.4375 16.457031 13.253906 16.335938 C 13.15625 16.277344 13.027344 16.308594 12.964844 16.40625 C 12.898438 16.503906 12.929688 16.632812 13.027344 16.695312 C 13.28125 16.855469 13.625 16.875 14.015625 16.753906 Z M 14.015625 16.753906 " fill-opacity="1" fill-rule="nonzero"/><path fill="#000000" d="M 13.304688 17.785156 C 13.335938 17.785156 13.363281 17.78125 13.394531 17.765625 C 13.519531 17.707031 13.644531 17.660156 13.769531 17.621094 C 13.796875 18.015625 14.125 18.328125 14.523438 18.328125 C 14.925781 18.328125 15.261719 18.007812 15.277344 17.605469 C 15.5 17.675781 15.625 17.75 15.628906 17.753906 C 15.726562 17.816406 15.859375 17.785156 15.917969 17.6875 C 15.976562 17.585938 15.949219 17.457031 15.847656 17.394531 C 15.839844 17.386719 15.53125 17.203125 15.039062 17.117188 C 14.699219 17.058594 14.34375 17.0625 13.992188 17.132812 C 13.730469 17.183594 13.46875 17.265625 13.21875 17.382812 C 13.109375 17.433594 13.066406 17.558594 13.113281 17.660156 C 13.148438 17.742188 13.226562 17.785156 13.304688 17.785156 Z M 13.304688 17.785156 " fill-opacity="1" fill-rule="nonzero"/><path fill="#000000" d="M 20.433594 16.40625 C 20.371094 16.308594 20.238281 16.277344 20.140625 16.339844 C 19.957031 16.457031 19.695312 16.414062 19.503906 16.355469 C 19.417969 16.328125 19.335938 16.296875 19.25 16.265625 C 19.066406 16.195312 18.875 16.125 18.667969 16.097656 C 18.152344 16.03125 17.617188 16.269531 17.324219 16.691406 C 17.253906 16.785156 17.277344 16.914062 17.371094 16.984375 C 17.410156 17.007812 17.453125 17.023438 17.492188 17.023438 C 17.558594 17.023438 17.625 16.992188 17.664062 16.933594 C 17.871094 16.636719 18.257812 16.46875 18.613281 16.515625 C 18.773438 16.535156 18.933594 16.597656 19.101562 16.660156 C 19.195312 16.695312 19.285156 16.726562 19.378906 16.753906 C 19.773438 16.878906 20.113281 16.859375 20.367188 16.695312 C 20.464844 16.632812 20.492188 16.503906 20.433594 16.40625 Z M 20.433594 16.40625 " fill-opacity="1" fill-rule="nonzero"/><path fill="#000000" d="M 20.089844 17.785156 C 20.171875 17.785156 20.246094 17.742188 20.28125 17.660156 C 20.332031 17.558594 20.28125 17.433594 20.179688 17.382812 C 19.921875 17.265625 19.664062 17.183594 19.40625 17.132812 C 19.046875 17.0625 18.699219 17.058594 18.355469 17.117188 C 17.859375 17.203125 17.558594 17.386719 17.542969 17.394531 C 17.445312 17.457031 17.414062 17.585938 17.476562 17.683594 C 17.539062 17.78125 17.667969 17.8125 17.765625 17.753906 C 17.769531 17.75 17.894531 17.671875 18.121094 17.601562 C 18.136719 18.007812 18.464844 18.328125 18.875 18.328125 C 19.273438 18.328125 19.601562 18.015625 19.625 17.621094 C 19.75 17.660156 19.875 17.707031 20.003906 17.765625 C 20.03125 17.78125 20.0625 17.785156 20.089844 17.785156 Z M 20.089844 17.785156 " fill-opacity="1" fill-rule="nonzero"/><path fill="#000000" d="M 16.695312 20.730469 C 17.113281 20.730469 17.40625 20.5 17.476562 20.117188 C 17.496094 20.003906 17.421875 19.894531 17.304688 19.875 C 17.191406 19.855469 17.082031 19.929688 17.0625 20.042969 C 17.042969 20.160156 16.980469 20.3125 16.695312 20.3125 C 16.414062 20.3125 16.351562 20.160156 16.328125 20.042969 C 16.308594 19.929688 16.203125 19.855469 16.085938 19.875 C 15.96875 19.894531 15.894531 20.003906 15.917969 20.121094 C 15.988281 20.5 16.277344 20.730469 16.695312 20.730469 Z M 16.695312 20.730469 " fill-opacity="1" fill-rule="nonzero"/><g clip-path="url(#f2e3adc1b7)"><path fill="#000000" d="M 27.316406 25.914062 C 27.226562 25.839844 27.097656 25.847656 27.019531 25.933594 L 26.835938 26.140625 L 26.023438 25.433594 L 26.515625 24.886719 L 26.515625 24.882812 L 26.832031 24.523438 C 26.910156 24.4375 26.902344 24.304688 26.816406 24.230469 C 26.730469 24.148438 26.597656 24.160156 26.519531 24.246094 L 26.339844 24.449219 L 23.101562 21.578125 C 22.851562 21.351562 22.46875 21.378906 22.246094 21.628906 L 22.242188 21.628906 L 21.832031 21.269531 C 21.636719 21.09375 21.335938 21.109375 21.160156 21.308594 L 21.070312 21.410156 L 19.28125 19.820312 C 19.195312 19.742188 19.0625 19.75 18.984375 19.835938 C 18.90625 19.925781 18.917969 20.058594 19.003906 20.132812 L 20.792969 21.722656 L 20.707031 21.820312 C 20.53125 22.015625 20.550781 22.320312 20.746094 22.496094 L 21.15625 22.855469 L 21.152344 22.859375 C 21.042969 22.984375 20.988281 23.136719 21 23.300781 C 21.007812 23.460938 21.082031 23.609375 21.203125 23.71875 L 24.4375 26.589844 L 24.257812 26.789062 C 24.183594 26.878906 24.1875 27.007812 24.277344 27.085938 C 24.316406 27.121094 24.367188 27.136719 24.417969 27.136719 C 24.476562 27.136719 24.535156 27.117188 24.574219 27.070312 L 25.382812 26.15625 L 26.191406 26.863281 L 26.011719 27.070312 C 25.933594 27.15625 25.941406 27.289062 26.027344 27.367188 C 26.070312 27.402344 26.121094 27.417969 26.167969 27.417969 C 26.226562 27.417969 26.285156 27.394531 26.324219 27.347656 L 27.335938 26.210938 C 27.410156 26.125 27.40625 25.992188 27.316406 25.914062 Z M 24.714844 26.269531 L 24.414062 26.003906 L 24.578125 25.824219 C 24.65625 25.734375 24.648438 25.601562 24.558594 25.523438 C 24.472656 25.445312 24.335938 25.453125 24.261719 25.542969 L 24.097656 25.722656 L 23.800781 25.460938 L 24.316406 24.875 C 24.398438 24.789062 24.386719 24.65625 24.300781 24.578125 C 24.214844 24.503906 24.078125 24.511719 24.003906 24.597656 L 23.488281 25.179688 L 23.1875 24.917969 L 23.351562 24.734375 C 23.425781 24.648438 23.417969 24.511719 23.332031 24.4375 C 23.242188 24.359375 23.113281 24.367188 23.035156 24.453125 L 22.871094 24.636719 L 22.574219 24.371094 L 23.09375 23.789062 C 23.167969 23.699219 23.160156 23.570312 23.074219 23.492188 C 22.984375 23.414062 22.851562 23.421875 22.773438 23.511719 L 22.257812 24.089844 L 21.960938 23.828125 L 22.121094 23.644531 C 22.199219 23.558594 22.191406 23.425781 22.105469 23.347656 C 22.015625 23.273438 21.886719 23.277344 21.808594 23.367188 L 21.648438 23.546875 L 21.484375 23.402344 C 21.445312 23.371094 21.421875 23.324219 21.417969 23.273438 C 21.417969 23.222656 21.433594 23.175781 21.46875 23.140625 L 22.558594 21.90625 C 22.597656 21.867188 22.648438 21.84375 22.699219 21.84375 C 22.742188 21.84375 22.789062 21.859375 22.824219 21.890625 L 26.0625 24.757812 Z M 24.714844 26.269531 " fill-opacity="1" fill-rule="nonzero"/></g><path fill="#000000" d="M 19.621094 19.105469 L 19.480469 19.261719 C 19.40625 19.347656 19.410156 19.480469 19.496094 19.558594 C 19.535156 19.59375 19.585938 19.613281 19.636719 19.613281 C 19.695312 19.613281 19.753906 19.585938 19.792969 19.542969 L 19.933594 19.386719 C 20.011719 19.296875 20.003906 19.167969 19.917969 19.085938 C 19.832031 19.007812 19.695312 19.015625 19.621094 19.105469 Z M 19.621094 19.105469 " fill-opacity="1" fill-rule="nonzero"/><path fill="#000000" d="M 19.0625 18.800781 C 18.945312 18.808594 18.855469 18.90625 18.867188 19.023438 L 18.878906 19.234375 C 18.882812 19.347656 18.976562 19.433594 19.085938 19.433594 C 19.09375 19.433594 19.097656 19.433594 19.101562 19.433594 C 19.214844 19.425781 19.304688 19.324219 19.296875 19.210938 L 19.285156 19 C 19.277344 18.882812 19.175781 18.789062 19.0625 18.800781 Z M 19.0625 18.800781 " fill-opacity="1" fill-rule="nonzero"/><path fill="#000000" d="M 18.566406 19.695312 C 18.628906 19.695312 18.683594 19.671875 18.726562 19.625 C 18.804688 19.535156 18.796875 19.40625 18.707031 19.324219 L 18.550781 19.1875 C 18.464844 19.109375 18.328125 19.117188 18.253906 19.203125 C 18.175781 19.289062 18.183594 19.421875 18.269531 19.5 L 18.429688 19.640625 C 18.46875 19.675781 18.519531 19.695312 18.566406 19.695312 Z M 18.566406 19.695312 " fill-opacity="1" fill-rule="nonzero"/><path fill="#000000" d="M 17.964844 20.0625 C 17.96875 20.171875 18.0625 20.257812 18.175781 20.257812 C 18.179688 20.257812 18.183594 20.257812 18.191406 20.257812 L 18.398438 20.242188 C 18.515625 20.238281 18.605469 20.136719 18.597656 20.023438 C 18.589844 19.90625 18.476562 19.816406 18.375 19.824219 L 18.164062 19.839844 C 18.046875 19.84375 17.960938 19.945312 17.964844 20.0625 Z M 17.964844 20.0625 " fill-opacity="1" fill-rule="nonzero"/><path fill="#000000" d="M 18.507812 20.921875 C 18.566406 20.921875 18.625 20.898438 18.667969 20.851562 L 18.808594 20.695312 C 18.886719 20.609375 18.878906 20.476562 18.789062 20.398438 C 18.703125 20.324219 18.566406 20.328125 18.492188 20.414062 L 18.351562 20.570312 C 18.273438 20.660156 18.28125 20.789062 18.367188 20.871094 C 18.410156 20.90625 18.457031 20.921875 18.507812 20.921875 Z M 18.507812 20.921875 " fill-opacity="1" fill-rule="nonzero"/><path fill="#000000" d="M 19.214844 21.15625 C 19.21875 21.15625 19.222656 21.15625 19.226562 21.15625 C 19.34375 21.148438 19.433594 21.050781 19.425781 20.933594 L 19.414062 20.722656 C 19.40625 20.609375 19.304688 20.519531 19.191406 20.527344 C 19.078125 20.53125 18.988281 20.632812 18.996094 20.75 L 19.007812 20.960938 C 19.007812 21.070312 19.101562 21.15625 19.214844 21.15625 Z M 19.214844 21.15625 " fill-opacity="1" fill-rule="nonzero"/><path fill="#000000" d="M 17.605469 21.722656 C 17.460938 21.664062 17.316406 21.589844 17.171875 21.53125 C 16.957031 21.445312 16.695312 21.59375 16.695312 21.59375 C 16.695312 21.59375 16.4375 21.445312 16.222656 21.53125 C 16.078125 21.589844 15.933594 21.664062 15.789062 21.722656 C 15.640625 21.777344 15.472656 21.816406 15.3125 21.789062 C 15.644531 22.078125 15.976562 22.523438 16.695312 22.523438 C 17.417969 22.523438 17.75 22.078125 18.082031 21.789062 C 17.921875 21.816406 17.757812 21.777344 17.605469 21.722656 Z M 17.605469 21.722656 " fill-opacity="1" fill-rule="nonzero"/></svg>