<svg xmlns="http://www.w3.org/2000/svg" xmlns:xlink="http://www.w3.org/1999/xlink" width="50" zoomAndPan="magnify" viewBox="0 0 37.5 40.5" height="54" preserveAspectRatio="xMidYMid meet" version="1.0"><defs><clipPath id="6e551bc76b"><path d="M 0 0.0195312 L 37.007812 0.0195312 L 37.007812 39.988281 L 0 39.988281 Z M 0 0.0195312 " clip-rule="nonzero"/></clipPath><clipPath id="47c291aa2b"><path d="M 0 0.0195312 L 37.007812 0.0195312 L 37.007812 37.027344 L 0 37.027344 Z M 0 0.0195312 " clip-rule="nonzero"/></clipPath><clipPath id="5cea9e5633"><path d="M 2.21875 2.460938 L 34.785156 2.460938 L 34.785156 35.027344 L 2.21875 35.027344 Z M 2.21875 2.460938 " clip-rule="nonzero"/></clipPath></defs><g clip-path="url(#6e551bc76b)"><path fill="#ffffff" d="M 0 0.0195312 L 37.007812 0.0195312 L 37.007812 39.988281 L 0 39.988281 Z M 0 0.0195312 " fill-opacity="1" fill-rule="nonzero"/><path fill="#ffffff" d="M 0 0.0195312 L 37.007812 0.0195312 L 37.007812 39.988281 L 0 39.988281 Z M 0 0.0195312 " fill-opacity="1" fill-rule="nonzero"/></g><g clip-path="url(#47c291aa2b)"><path fill="#9cd6c9" d="M 18.503906 0.0195312 C 8.296875 0.0195312 0 8.324219 0 18.523438 C 0 28.730469 8.296875 37.027344 18.503906 37.027344 C 28.703125 37.027344 37.007812 28.730469 37.007812 18.523438 C 37.007812 8.324219 28.703125 0.0195312 18.503906 0.0195312 Z M 18.503906 35.582031 C 9.097656 35.582031 1.441406 27.929688 1.441406 18.523438 C 1.441406 9.117188 9.097656 1.464844 18.503906 1.464844 C 27.910156 1.464844 35.5625 9.117188 35.5625 18.523438 C 35.5625 27.929688 27.910156 35.582031 18.503906 35.582031 Z M 18.503906 35.582031 " fill-opacity="1" fill-rule="nonzero"/></g><path fill="#9cd6c9" d="M 18.503906 2.425781 C 9.628906 2.425781 2.40625 9.648438 2.40625 18.523438 C 2.40625 27.398438 9.628906 34.621094 18.503906 34.621094 C 27.378906 34.621094 34.601562 27.398438 34.601562 18.523438 C 34.601562 9.648438 27.378906 2.425781 18.503906 2.425781 Z M 18.503906 2.425781 " fill-opacity="1" fill-rule="nonzero"/><path fill="#ff293c" d="M 20.488281 15.003906 C 20.488281 15.453125 20.402344 15.882812 20.230469 16.296875 C 20.058594 16.710938 19.816406 17.078125 19.5 17.394531 C 19.183594 17.710938 18.816406 17.953125 18.402344 18.125 C 17.988281 18.296875 17.558594 18.382812 17.109375 18.382812 C 16.660156 18.382812 16.230469 18.296875 15.816406 18.125 C 15.402344 17.953125 15.039062 17.710938 14.71875 17.394531 C 14.402344 17.078125 14.160156 16.710938 13.988281 16.296875 C 13.816406 15.882812 13.730469 15.453125 13.730469 15.003906 C 13.730469 14.554688 13.816406 14.125 13.988281 13.710938 C 14.160156 13.296875 14.402344 12.929688 14.71875 12.613281 C 15.039062 12.296875 15.402344 12.054688 15.816406 11.882812 C 16.230469 11.710938 16.660156 11.625 17.109375 11.625 C 17.558594 11.625 17.988281 11.710938 18.402344 11.882812 C 18.816406 12.054688 19.183594 12.296875 19.5 12.613281 C 19.816406 12.929688 20.058594 13.296875 20.230469 13.710938 C 20.402344 14.125 20.488281 14.554688 20.488281 15.003906 Z M 20.488281 15.003906 " fill-opacity="0.71" fill-rule="nonzero"/><path fill="#ff293c" d="M 21.015625 26.980469 C 21.253906 27.214844 21.433594 27.488281 21.5625 27.796875 C 21.6875 28.101562 21.753906 28.421875 21.753906 28.757812 C 21.753906 29.089844 21.6875 29.410156 21.5625 29.71875 C 21.433594 30.023438 21.253906 30.296875 21.015625 30.53125 C 20.78125 30.765625 20.507812 30.949219 20.203125 31.074219 C 19.894531 31.203125 19.574219 31.265625 19.242188 31.265625 C 18.90625 31.265625 18.585938 31.203125 18.28125 31.074219 C 17.972656 30.949219 17.699219 30.765625 17.464844 30.53125 C 17.230469 30.296875 17.046875 30.023438 16.921875 29.71875 C 16.792969 29.410156 16.730469 29.089844 16.730469 28.757812 C 16.730469 28.421875 16.792969 28.101562 16.921875 27.796875 C 17.046875 27.488281 17.230469 27.214844 17.464844 26.980469 C 17.699219 26.746094 17.972656 26.5625 18.28125 26.4375 C 18.585938 26.308594 18.90625 26.246094 19.242188 26.246094 C 19.574219 26.246094 19.894531 26.308594 20.203125 26.4375 C 20.507812 26.5625 20.78125 26.746094 21.015625 26.980469 Z M 21.015625 26.980469 " fill-opacity="0.71" fill-rule="nonzero"/><path fill="#231f20" d="M 17.761719 30.070312 C 17.660156 30.070312 17.574219 29.996094 17.5625 29.894531 C 17.546875 29.785156 17.621094 29.683594 17.734375 29.667969 C 18.652344 29.542969 19.488281 29.21875 20.214844 28.703125 C 20.304688 28.640625 20.429688 28.660156 20.496094 28.753906 C 20.558594 28.84375 20.539062 28.96875 20.449219 29.03125 C 19.667969 29.585938 18.773438 29.933594 17.789062 30.066406 C 17.777344 30.070312 17.769531 30.070312 17.761719 30.070312 Z M 17.761719 30.070312 " fill-opacity="1" fill-rule="nonzero"/><path fill="#231f20" d="M 18.148438 30.617188 C 18.050781 30.617188 17.964844 30.546875 17.949219 30.445312 C 17.933594 30.335938 18.007812 30.234375 18.121094 30.21875 C 18.882812 30.101562 19.59375 29.847656 20.226562 29.464844 C 20.324219 29.40625 20.445312 29.4375 20.503906 29.53125 C 20.5625 29.628906 20.53125 29.75 20.433594 29.808594 C 19.753906 30.21875 18.996094 30.492188 18.179688 30.617188 C 18.171875 30.617188 18.160156 30.617188 18.148438 30.617188 Z M 18.148438 30.617188 " fill-opacity="1" fill-rule="nonzero"/><path fill="#231f20" d="M 22.902344 30.78125 C 22.792969 30.78125 22.703125 30.691406 22.703125 30.582031 L 22.703125 27.539062 C 22.703125 27.429688 22.792969 27.335938 22.902344 27.335938 C 23.015625 27.335938 23.105469 27.429688 23.105469 27.539062 L 23.105469 30.582031 C 23.105469 30.691406 23.015625 30.78125 22.902344 30.78125 Z M 22.902344 30.78125 " fill-opacity="1" fill-rule="nonzero"/><path fill="#231f20" d="M 15.476562 14.386719 C 15.449219 14.25 15.417969 14.117188 15.386719 13.984375 C 15.296875 13.621094 15.183594 13.289062 15.050781 12.980469 L 15.359375 11.289062 C 15.367188 11.257812 15.363281 11.222656 15.351562 11.191406 C 15.179688 10.65625 14.832031 10.296875 14.402344 10 C 14.347656 9.960938 14.289062 9.921875 14.230469 9.882812 C 14.097656 9.800781 13.964844 9.722656 13.824219 9.648438 L 13.824219 9.644531 C 13.773438 9.617188 13.722656 9.589844 13.667969 9.5625 C 13.601562 9.523438 13.535156 9.488281 13.464844 9.453125 C 13.0625 9.242188 12.648438 9.019531 12.253906 8.730469 C 12.164062 8.664062 12.039062 8.683594 11.972656 8.773438 C 11.90625 8.863281 11.925781 8.988281 12.015625 9.054688 C 12.433594 9.363281 12.863281 9.589844 13.277344 9.808594 C 13.492188 9.925781 13.703125 10.035156 13.898438 10.152344 C 14.207031 11.058594 14.261719 11.824219 14.058594 12.46875 C 14.050781 12.488281 14.042969 12.511719 14.035156 12.535156 C 13.824219 12.292969 13.597656 12.078125 13.382812 11.890625 C 13.296875 11.816406 13.171875 11.824219 13.097656 11.910156 C 13.023438 11.992188 13.03125 12.121094 13.117188 12.191406 C 13.460938 12.496094 13.738281 12.785156 13.953125 13.066406 C 14.027344 13.164062 14.09375 13.261719 14.15625 13.359375 C 14.308594 13.605469 14.410156 13.851562 14.472656 14.101562 C 14.472656 14.113281 14.476562 14.125 14.480469 14.132812 C 13.835938 14.332031 13.066406 14.710938 12.175781 15.195312 C 12.078125 15.25 12.039062 15.371094 12.09375 15.46875 C 12.128906 15.535156 12.199219 15.574219 12.269531 15.574219 C 12.304688 15.574219 12.335938 15.566406 12.367188 15.550781 C 13.164062 15.113281 13.96875 14.707031 14.632812 14.511719 C 14.660156 14.5 14.6875 14.492188 14.714844 14.484375 C 14.773438 14.46875 14.828125 14.457031 14.878906 14.445312 C 14.929688 14.433594 14.972656 14.425781 15.019531 14.417969 C 15.035156 14.414062 15.054688 14.410156 15.070312 14.410156 C 15.101562 14.5625 15.128906 14.722656 15.15625 14.890625 C 15.167969 14.992188 15.253906 15.0625 15.355469 15.0625 C 15.363281 15.0625 15.375 15.0625 15.382812 15.058594 C 15.492188 15.042969 15.570312 14.941406 15.554688 14.832031 C 15.53125 14.679688 15.503906 14.53125 15.476562 14.386719 Z M 14.867188 14.035156 C 14.867188 14.027344 14.867188 14.019531 14.863281 14.015625 C 14.835938 13.890625 14.796875 13.773438 14.753906 13.660156 C 14.664062 13.433594 14.550781 13.222656 14.421875 13.027344 C 14.390625 12.980469 14.359375 12.9375 14.328125 12.894531 C 14.335938 12.878906 14.339844 12.867188 14.347656 12.851562 C 14.625 12.195312 14.65625 11.4375 14.4375 10.554688 L 14.4375 10.550781 C 14.433594 10.542969 14.429688 10.535156 14.429688 10.527344 C 14.5 10.589844 14.570312 10.65625 14.632812 10.726562 C 14.769531 10.886719 14.878906 11.0625 14.953125 11.269531 L 14.644531 12.96875 C 14.636719 13.007812 14.640625 13.050781 14.65625 13.085938 C 14.738281 13.265625 14.8125 13.457031 14.875 13.660156 C 14.914062 13.777344 14.945312 13.894531 14.976562 14.015625 C 14.941406 14.023438 14.90625 14.027344 14.867188 14.035156 Z M 14.867188 14.035156 " fill-opacity="1" fill-rule="nonzero"/><path fill="#231f20" d="M 15.882812 12.960938 C 15.773438 12.964844 15.6875 13.0625 15.695312 13.171875 L 15.914062 16.460938 C 15.917969 16.566406 16.007812 16.648438 16.113281 16.648438 C 16.117188 16.648438 16.121094 16.648438 16.125 16.648438 C 16.238281 16.640625 16.320312 16.542969 16.3125 16.433594 L 16.097656 13.148438 C 16.089844 13.035156 15.996094 12.953125 15.882812 12.960938 Z M 15.882812 12.960938 " fill-opacity="1" fill-rule="nonzero"/><path fill="#231f20" d="M 16.824219 16.5625 C 16.933594 16.5625 17.023438 16.476562 17.023438 16.367188 L 17.109375 13.164062 C 17.113281 13.054688 17.023438 12.960938 16.914062 12.957031 C 16.804688 12.957031 16.710938 13.042969 16.707031 13.15625 L 16.621094 16.355469 C 16.621094 16.46875 16.707031 16.5625 16.816406 16.5625 C 16.820312 16.5625 16.820312 16.5625 16.824219 16.5625 Z M 16.824219 16.5625 " fill-opacity="1" fill-rule="nonzero"/><path fill="#231f20" d="M 17.605469 12.570312 C 17.496094 12.570312 17.40625 12.65625 17.40625 12.769531 C 17.402344 12.855469 17.316406 15.109375 17.285156 15.96875 C 17.28125 16.082031 17.367188 16.175781 17.476562 16.179688 C 17.480469 16.179688 17.484375 16.179688 17.484375 16.179688 C 17.59375 16.179688 17.683594 16.09375 17.6875 15.984375 C 17.699219 15.664062 17.808594 12.847656 17.808594 12.769531 C 17.808594 12.660156 17.71875 12.570312 17.605469 12.570312 Z M 17.605469 12.570312 " fill-opacity="1" fill-rule="nonzero"/><path fill="#231f20" d="M 30.507812 21.753906 C 29.859375 20.53125 28.753906 19.320312 27.304688 18.246094 C 26.640625 16.207031 24.308594 15.425781 22.25 14.738281 C 21.636719 14.53125 21.039062 14.332031 20.503906 14.109375 C 20.570312 13.976562 20.632812 13.847656 20.695312 13.71875 C 21.78125 11.457031 22.640625 9.671875 22.058594 7.757812 C 22.054688 7.753906 22.054688 7.746094 22.050781 7.742188 C 21.449219 6.269531 20.199219 5.464844 18.78125 5.640625 C 17.425781 5.808594 16.359375 6.8125 15.9375 8.273438 C 14.699219 6.628906 13.488281 5.316406 12.074219 6.191406 C 11.789062 6.367188 11.5625 6.636719 11.425781 6.960938 C 10.625 8.878906 10.363281 10.878906 10.640625 12.90625 C 9.617188 14.476562 9.621094 16.25 10.652344 18.335938 C 10.859375 20.265625 11.566406 22.175781 12.253906 24.027344 C 13.101562 26.320312 13.902344 28.484375 13.636719 30.390625 C 13.625 30.5 13.699219 30.601562 13.8125 30.617188 C 13.820312 30.617188 13.828125 30.617188 13.839844 30.617188 C 13.9375 30.617188 14.023438 30.546875 14.039062 30.445312 C 14.316406 28.441406 13.496094 26.230469 12.628906 23.886719 C 11.949219 22.050781 11.246094 20.148438 11.050781 18.257812 C 11.046875 18.230469 11.039062 18.207031 11.03125 18.1875 C 10.039062 16.203125 10.03125 14.527344 11.015625 13.066406 C 11.042969 13.023438 11.054688 12.976562 11.046875 12.925781 C 10.765625 10.945312 11.015625 8.992188 11.796875 7.117188 C 11.902344 6.867188 12.070312 6.667969 12.285156 6.535156 C 13.480469 5.792969 14.578125 7.117188 15.820312 8.785156 C 15.90625 8.90625 15.996094 9.027344 16.085938 9.148438 C 16.09375 9.15625 16.101562 9.167969 16.109375 9.175781 C 16.523438 9.738281 16.949219 10.320312 17.398438 10.851562 C 17.402344 10.855469 17.410156 10.859375 17.414062 10.867188 C 17.914062 11.332031 18.238281 11.894531 18.394531 12.59375 C 18.4375 12.777344 18.46875 12.96875 18.488281 13.171875 C 18.542969 13.777344 18.5 14.472656 18.355469 15.273438 C 18.335938 15.382812 18.410156 15.488281 18.519531 15.507812 C 18.628906 15.527344 18.734375 15.453125 18.753906 15.34375 C 18.863281 14.722656 18.917969 14.15625 18.914062 13.648438 C 19.207031 13.902344 19.570312 14.117188 19.976562 14.3125 C 20.089844 14.367188 20.203125 14.417969 20.324219 14.46875 C 20.875 14.703125 21.492188 14.910156 22.121094 15.121094 C 24.207031 15.816406 26.367188 16.539062 26.941406 18.425781 C 26.953125 18.46875 26.980469 18.503906 27.015625 18.53125 C 29.984375 20.714844 31.292969 23.296875 30.625 25.636719 C 29.058594 26.296875 27.378906 26.460938 25.894531 26.605469 C 24.308594 26.761719 23.054688 26.886719 22.492188 27.578125 C 22.476562 27.597656 22.464844 27.621094 22.457031 27.648438 C 21.925781 29.460938 20.808594 30.476562 19.050781 30.75 C 18.941406 30.765625 18.863281 30.871094 18.882812 30.980469 C 18.898438 31.078125 18.984375 31.148438 19.082031 31.148438 C 19.089844 31.148438 19.101562 31.148438 19.113281 31.148438 C 21 30.851562 22.253906 29.726562 22.832031 27.800781 C 23.304688 27.265625 24.523438 27.148438 25.933594 27.007812 C 27.398438 26.863281 29.222656 26.683594 30.871094 25.972656 C 30.925781 25.949219 30.96875 25.902344 30.984375 25.847656 C 31.394531 24.507812 31.234375 23.132812 30.507812 21.753906 Z M 18.878906 13.027344 C 18.765625 12.011719 18.378906 11.222656 17.699219 10.582031 C 17.261719 10.0625 16.839844 9.492188 16.433594 8.9375 C 16.371094 8.855469 16.308594 8.769531 16.246094 8.6875 C 16.617188 6.929688 17.847656 6.160156 18.832031 6.039062 C 20.054688 5.886719 21.144531 6.59375 21.675781 7.882812 C 22.207031 9.644531 21.378906 11.363281 20.332031 13.542969 C 20.265625 13.675781 20.203125 13.808594 20.136719 13.941406 C 19.601562 13.6875 19.160156 13.394531 18.878906 13.027344 Z M 18.878906 13.027344 " fill-opacity="1" fill-rule="nonzero"/><path fill="#231f20" d="M 20.238281 27.933594 C 20.566406 27.183594 21.085938 26.644531 21.875 26.246094 C 24.238281 25.417969 26.273438 24.648438 27.273438 23.644531 C 27.3125 23.605469 27.335938 23.546875 27.328125 23.488281 C 27.289062 22.929688 26.710938 22.574219 26.039062 22.164062 C 25.339844 21.734375 24.550781 21.253906 24.058594 20.425781 C 24.03125 20.378906 23.980469 20.34375 23.925781 20.332031 C 23.871094 20.320312 23.8125 20.335938 23.769531 20.367188 C 22.558594 21.242188 22.605469 23.195312 22.660156 25.453125 L 22.664062 25.539062 C 22.359375 25.648438 22.046875 25.757812 21.730469 25.871094 C 21.722656 25.871094 21.714844 25.875 21.707031 25.878906 C 20.855469 26.3125 20.257812 26.914062 19.890625 27.71875 L 17.828125 29.113281 C 17.734375 29.171875 17.710938 29.296875 17.773438 29.390625 C 17.8125 29.449219 17.875 29.480469 17.9375 29.480469 C 17.976562 29.480469 18.015625 29.46875 18.050781 29.445312 L 20.164062 28.019531 C 20.195312 28 20.222656 27.96875 20.238281 27.933594 Z M 23.839844 20.832031 C 24.382812 21.621094 25.179688 22.109375 25.828125 22.507812 C 26.359375 22.832031 26.820312 23.113281 26.914062 23.433594 C 26.140625 24.160156 24.746094 24.773438 23.0625 25.390625 C 23.015625 23.46875 22.980469 21.652344 23.839844 20.832031 Z M 23.839844 20.832031 " fill-opacity="1" fill-rule="nonzero"/><path fill="#231f20" d="M 20.46875 12.589844 C 20.570312 12.546875 20.621094 12.429688 20.578125 12.328125 C 20.339844 11.742188 20.546875 11.15625 20.84375 10.863281 C 20.984375 10.71875 21.132812 10.65625 21.234375 10.699219 C 21.339844 10.738281 21.457031 10.691406 21.496094 10.585938 C 21.539062 10.484375 21.488281 10.367188 21.386719 10.324219 C 21.128906 10.222656 20.816406 10.316406 20.558594 10.578125 C 20.171875 10.964844 19.898438 11.726562 20.207031 12.480469 C 20.238281 12.558594 20.3125 12.605469 20.390625 12.605469 C 20.417969 12.605469 20.441406 12.601562 20.46875 12.589844 Z M 20.46875 12.589844 " fill-opacity="1" fill-rule="nonzero"/><g clip-path="url(#5cea9e5633)"><path fill="#231f20" d="M 18.503906 35.027344 C 14.152344 35.027344 10.066406 33.335938 6.988281 30.257812 C 3.914062 27.183594 2.21875 23.09375 2.21875 18.746094 C 2.21875 14.394531 3.914062 10.308594 6.988281 7.230469 C 10.066406 4.15625 14.152344 2.460938 18.503906 2.460938 C 22.851562 2.460938 26.941406 4.15625 30.015625 7.230469 C 33.09375 10.308594 34.785156 14.394531 34.785156 18.746094 C 34.785156 23.09375 33.09375 27.183594 30.015625 30.257812 C 26.941406 33.335938 22.851562 35.027344 18.503906 35.027344 Z M 18.503906 3.15625 C 9.910156 3.15625 2.914062 10.148438 2.914062 18.746094 C 2.914062 27.339844 9.910156 34.332031 18.503906 34.332031 C 27.097656 34.332031 34.089844 27.339844 34.089844 18.746094 C 34.089844 10.148438 27.097656 3.15625 18.503906 3.15625 Z M 18.503906 3.15625 " fill-opacity="1" fill-rule="nonzero"/></g><path fill="#231f20" d="M 17.300781 30.851562 C 17.300781 30.929688 17.277344 30.992188 17.222656 31.046875 C 17.167969 31.097656 17.105469 31.125 17.03125 31.125 C 16.957031 31.125 16.890625 31.097656 16.839844 31.046875 C 16.785156 30.992188 16.757812 30.929688 16.757812 30.851562 C 16.757812 30.777344 16.785156 30.714844 16.839844 30.660156 C 16.890625 30.609375 16.957031 30.582031 17.03125 30.582031 C 17.105469 30.582031 17.167969 30.609375 17.222656 30.660156 C 17.277344 30.714844 17.300781 30.777344 17.300781 30.851562 Z M 17.300781 30.851562 " fill-opacity="1" fill-rule="nonzero"/><path fill="#231f20" d="M 17.464844 29.613281 C 17.464844 29.703125 17.433594 29.777344 17.367188 29.84375 C 17.304688 29.90625 17.226562 29.9375 17.136719 29.9375 C 17.046875 29.9375 16.972656 29.90625 16.90625 29.84375 C 16.84375 29.777344 16.8125 29.703125 16.8125 29.613281 C 16.8125 29.519531 16.84375 29.445312 16.90625 29.382812 C 16.972656 29.316406 17.046875 29.285156 17.136719 29.285156 C 17.226562 29.285156 17.304688 29.316406 17.367188 29.382812 C 17.433594 29.445312 17.464844 29.519531 17.464844 29.613281 Z M 17.464844 29.613281 " fill-opacity="1" fill-rule="nonzero"/><path fill="#231f20" d="M 17.535156 28.242188 C 17.535156 28.355469 17.496094 28.449219 17.417969 28.523438 C 17.339844 28.601562 17.246094 28.640625 17.136719 28.640625 C 17.027344 28.640625 16.933594 28.601562 16.855469 28.523438 C 16.777344 28.449219 16.738281 28.355469 16.738281 28.242188 C 16.738281 28.132812 16.777344 28.039062 16.855469 27.960938 C 16.933594 27.886719 17.027344 27.847656 17.136719 27.847656 C 17.246094 27.847656 17.339844 27.886719 17.417969 27.960938 C 17.496094 28.039062 17.535156 28.132812 17.535156 28.242188 Z M 17.535156 28.242188 " fill-opacity="1" fill-rule="nonzero"/><path fill="#231f20" d="M 17.535156 26.585938 C 17.535156 26.695312 17.496094 26.789062 17.417969 26.867188 C 17.339844 26.941406 17.246094 26.980469 17.136719 26.980469 C 17.027344 26.980469 16.933594 26.941406 16.855469 26.867188 C 16.777344 26.789062 16.738281 26.695312 16.738281 26.585938 C 16.738281 26.472656 16.777344 26.378906 16.855469 26.304688 C 16.933594 26.226562 17.027344 26.1875 17.136719 26.1875 C 17.246094 26.1875 17.339844 26.226562 17.417969 26.304688 C 17.496094 26.378906 17.535156 26.472656 17.535156 26.585938 Z M 17.535156 26.585938 " fill-opacity="1" fill-rule="nonzero"/><path fill="#231f20" d="M 17.25 16.972656 C 17.25 17.050781 17.222656 17.113281 17.167969 17.167969 C 17.117188 17.21875 17.050781 17.246094 16.976562 17.246094 C 16.902344 17.246094 16.839844 17.21875 16.785156 17.167969 C 16.730469 17.113281 16.707031 17.050781 16.707031 16.972656 C 16.707031 16.898438 16.730469 16.835938 16.785156 16.78125 C 16.839844 16.730469 16.902344 16.703125 16.976562 16.703125 C 17.050781 16.703125 17.117188 16.730469 17.167969 16.78125 C 17.222656 16.835938 17.25 16.898438 17.25 16.972656 Z M 17.25 16.972656 " fill-opacity="1" fill-rule="nonzero"/><path fill="#231f20" d="M 17.144531 18.214844 C 17.144531 18.304688 17.109375 18.382812 17.046875 18.445312 C 16.984375 18.511719 16.90625 18.542969 16.816406 18.542969 C 16.726562 18.542969 16.648438 18.511719 16.585938 18.445312 C 16.523438 18.382812 16.492188 18.304688 16.492188 18.214844 C 16.492188 18.125 16.523438 18.046875 16.585938 17.984375 C 16.648438 17.921875 16.726562 17.890625 16.816406 17.890625 C 16.90625 17.890625 16.984375 17.921875 17.046875 17.984375 C 17.109375 18.046875 17.144531 18.125 17.144531 18.214844 Z M 17.144531 18.214844 " fill-opacity="1" fill-rule="nonzero"/><path fill="#231f20" d="M 17.109375 19.582031 C 17.109375 19.691406 17.070312 19.785156 16.992188 19.863281 C 16.914062 19.941406 16.820312 19.980469 16.710938 19.980469 C 16.601562 19.980469 16.507812 19.941406 16.429688 19.863281 C 16.351562 19.785156 16.3125 19.691406 16.3125 19.582031 C 16.3125 19.472656 16.351562 19.378906 16.429688 19.300781 C 16.507812 19.222656 16.601562 19.183594 16.710938 19.183594 C 16.820312 19.183594 16.914062 19.222656 16.992188 19.300781 C 17.070312 19.378906 17.109375 19.472656 17.109375 19.582031 Z M 17.109375 19.582031 " fill-opacity="1" fill-rule="nonzero"/><path fill="#231f20" d="M 17.160156 21.242188 C 17.160156 21.351562 17.121094 21.445312 17.042969 21.523438 C 16.96875 21.601562 16.875 21.640625 16.761719 21.640625 C 16.652344 21.640625 16.558594 21.601562 16.480469 21.523438 C 16.402344 21.445312 16.367188 21.351562 16.367188 21.242188 C 16.367188 21.132812 16.402344 21.039062 16.480469 20.960938 C 16.558594 20.882812 16.652344 20.84375 16.761719 20.84375 C 16.875 20.84375 16.96875 20.882812 17.042969 20.960938 C 17.121094 21.039062 17.160156 21.132812 17.160156 21.242188 Z M 17.160156 21.242188 " fill-opacity="1" fill-rule="nonzero"/><path fill="#231f20" d="M 17.472656 24.835938 C 17.472656 24.972656 17.425781 25.089844 17.328125 25.1875 C 17.230469 25.285156 17.113281 25.332031 16.976562 25.332031 C 16.839844 25.332031 16.722656 25.285156 16.625 25.1875 C 16.527344 25.089844 16.480469 24.972656 16.480469 24.835938 C 16.480469 24.699219 16.527344 24.582031 16.625 24.484375 C 16.722656 24.386719 16.839844 24.339844 16.976562 24.339844 C 17.113281 24.339844 17.230469 24.386719 17.328125 24.484375 C 17.425781 24.582031 17.472656 24.699219 17.472656 24.835938 Z M 17.472656 24.835938 " fill-opacity="1" fill-rule="nonzero"/><path fill="#231f20" d="M 17.367188 22.992188 C 17.367188 23.128906 17.320312 23.246094 17.222656 23.34375 C 17.125 23.4375 17.007812 23.488281 16.871094 23.488281 C 16.734375 23.488281 16.617188 23.4375 16.519531 23.34375 C 16.421875 23.246094 16.375 23.128906 16.375 22.992188 C 16.375 22.851562 16.421875 22.734375 16.519531 22.640625 C 16.617188 22.542969 16.734375 22.492188 16.871094 22.492188 C 17.007812 22.492188 17.125 22.542969 17.222656 22.640625 C 17.320312 22.734375 17.367188 22.851562 17.367188 22.992188 Z M 17.367188 22.992188 " fill-opacity="1" fill-rule="nonzero"/></svg>