<svg xmlns="http://www.w3.org/2000/svg" xmlns:xlink="http://www.w3.org/1999/xlink" width="50" zoomAndPan="magnify" viewBox="0 0 37.5 40.5" height="54" preserveAspectRatio="xMidYMid meet" version="1.0"><defs><clipPath id="b164b103d0"><path d="M 0 0.0195312 L 37.007812 0.0195312 L 37.007812 39.988281 L 0 39.988281 Z M 0 0.0195312 " clip-rule="nonzero"/></clipPath><clipPath id="4172352abc"><path d="M 0 0.0195312 L 37.007812 0.0195312 L 37.007812 37.027344 L 0 37.027344 Z M 0 0.0195312 " clip-rule="nonzero"/></clipPath><clipPath id="7f1f2ad4f8"><path d="M 18 8.085938 L 24 8.085938 L 24 13 L 18 13 Z M 18 8.085938 " clip-rule="nonzero"/></clipPath><clipPath id="4cdc95f48d"><path d="M 8.066406 22 L 14 22 L 14 28.8125 L 8.066406 28.8125 Z M 8.066406 22 " clip-rule="nonzero"/></clipPath><clipPath id="9fa310fcbf"><path d="M 13 13 L 28.792969 13 L 28.792969 28.8125 L 13 28.8125 Z M 13 13 " clip-rule="nonzero"/></clipPath></defs><g clip-path="url(#b164b103d0)"><path fill="#ffffff" d="M 0 0.0195312 L 37.007812 0.0195312 L 37.007812 39.988281 L 0 39.988281 Z M 0 0.0195312 " fill-opacity="1" fill-rule="nonzero"/><path fill="#ffffff" d="M 0 0.0195312 L 37.007812 0.0195312 L 37.007812 39.988281 L 0 39.988281 Z M 0 0.0195312 " fill-opacity="1" fill-rule="nonzero"/></g><g clip-path="url(#4172352abc)"><path fill="#9cd6c9" d="M 18.503906 0.0195312 C 8.296875 0.0195312 0 8.324219 0 18.523438 C 0 28.730469 8.296875 37.027344 18.503906 37.027344 C 28.703125 37.027344 37.007812 28.730469 37.007812 18.523438 C 37.007812 8.324219 28.703125 0.0195312 18.503906 0.0195312 Z M 18.503906 35.582031 C 9.097656 35.582031 1.441406 27.929688 1.441406 18.523438 C 1.441406 9.117188 9.097656 1.464844 18.503906 1.464844 C 27.910156 1.464844 35.5625 9.117188 35.5625 18.523438 C 35.5625 27.929688 27.910156 35.582031 18.503906 35.582031 Z M 18.503906 35.582031 " fill-opacity="1" fill-rule="nonzero"/></g><path fill="#9cd6c9" d="M 18.503906 2.425781 C 9.628906 2.425781 2.40625 9.648438 2.40625 18.523438 C 2.40625 27.398438 9.628906 34.621094 18.503906 34.621094 C 27.378906 34.621094 34.601562 27.398438 34.601562 18.523438 C 34.601562 9.648438 27.378906 2.425781 18.503906 2.425781 Z M 18.503906 2.425781 " fill-opacity="1" fill-rule="nonzero"/><g clip-path="url(#7f1f2ad4f8)"><path fill="#000000" d="M 20.804688 12.992188 C 22.15625 12.992188 23.257812 11.890625 23.257812 10.539062 C 23.257812 9.1875 22.15625 8.085938 20.804688 8.085938 C 19.449219 8.085938 18.351562 9.1875 18.351562 10.539062 C 18.351562 11.890625 19.449219 12.992188 20.804688 12.992188 Z M 20.804688 8.457031 C 21.953125 8.457031 22.886719 9.390625 22.886719 10.539062 C 22.886719 11.6875 21.953125 12.621094 20.804688 12.621094 C 19.65625 12.621094 18.71875 11.6875 18.71875 10.539062 C 18.71875 9.390625 19.65625 8.457031 20.804688 8.457031 Z M 20.804688 8.457031 " fill-opacity="1" fill-rule="nonzero"/></g><g clip-path="url(#4cdc95f48d)"><path fill="#000000" d="M 12.539062 27.09375 L 11.910156 27.09375 C 12.605469 26.660156 13.074219 25.890625 13.074219 25.011719 C 13.074219 23.660156 11.972656 22.558594 10.621094 22.558594 C 9.265625 22.558594 8.167969 23.660156 8.167969 25.011719 C 8.167969 25.890625 8.632812 26.660156 9.332031 27.09375 L 8.703125 27.09375 C 8.351562 27.09375 8.066406 27.378906 8.066406 27.726562 L 8.066406 28.175781 C 8.066406 28.527344 8.351562 28.8125 8.703125 28.8125 L 12.539062 28.8125 C 12.886719 28.8125 13.171875 28.527344 13.171875 28.175781 L 13.171875 27.726562 C 13.171875 27.378906 12.886719 27.09375 12.539062 27.09375 Z M 8.535156 25.011719 C 8.535156 23.863281 9.472656 22.929688 10.621094 22.929688 C 11.769531 22.929688 12.703125 23.863281 12.703125 25.011719 C 12.703125 26.160156 11.769531 27.09375 10.621094 27.09375 C 9.472656 27.09375 8.535156 26.160156 8.535156 25.011719 Z M 12.800781 28.175781 C 12.800781 28.320312 12.683594 28.441406 12.539062 28.441406 L 8.703125 28.441406 C 8.554688 28.441406 8.4375 28.320312 8.4375 28.175781 L 8.4375 27.726562 C 8.4375 27.582031 8.554688 27.464844 8.703125 27.464844 L 12.539062 27.464844 C 12.683594 27.464844 12.800781 27.582031 12.800781 27.726562 Z M 12.800781 28.175781 " fill-opacity="1" fill-rule="nonzero"/></g><g clip-path="url(#9fa310fcbf)"><path fill="#000000" d="M 27.507812 26.242188 L 23.484375 26.242188 C 23.46875 25.882812 23.378906 25.53125 23.203125 25.199219 L 21.695312 22.375 L 22.492188 22.375 L 22.492188 22.539062 C 22.492188 22.640625 22.574219 22.726562 22.675781 22.726562 L 24.574219 22.726562 C 24.675781 22.726562 24.757812 22.640625 24.757812 22.539062 L 24.757812 22.375 L 26.265625 22.375 C 26.972656 22.375 27.550781 21.796875 27.550781 21.089844 C 27.550781 20.378906 26.972656 19.804688 26.265625 19.804688 L 24.585938 19.804688 C 24.589844 19.800781 24.589844 19.792969 24.589844 19.789062 L 24.589844 13.949219 C 24.589844 13.46875 24.199219 13.078125 23.722656 13.078125 L 22.402344 13.078125 C 22.359375 13.078125 22.316406 13.09375 22.285156 13.121094 L 20.800781 14.371094 L 19.316406 13.121094 C 19.28125 13.09375 19.238281 13.078125 19.195312 13.078125 L 18.195312 13.078125 C 17.820312 13.089844 17.511719 13.238281 17.324219 13.5 L 14.878906 16.957031 C 14.628906 17.308594 14.632812 17.777344 14.890625 18.125 L 17.421875 21.578125 C 17.609375 21.835938 17.910156 21.988281 18.230469 21.988281 C 18.339844 21.988281 18.445312 21.964844 18.546875 21.929688 L 20.84375 26.242188 L 19.421875 26.242188 L 18.691406 24.179688 C 18.605469 23.921875 18.410156 23.722656 18.15625 23.625 C 17.90625 23.527344 17.625 23.542969 17.382812 23.675781 C 16.996094 23.886719 16.816406 24.378906 16.972656 24.820312 L 17.464844 26.242188 L 14.816406 26.242188 C 14.109375 26.242188 13.53125 26.816406 13.53125 27.523438 C 13.53125 28.234375 14.109375 28.808594 14.816406 28.808594 L 21.03125 28.808594 L 21.03125 28.8125 L 27.507812 28.808594 C 28.214844 28.808594 28.792969 28.234375 28.792969 27.527344 C 28.792969 26.816406 28.214844 26.242188 27.507812 26.242188 Z M 24.386719 22.289062 L 24.386719 22.355469 L 22.859375 22.355469 L 22.859375 22.289062 C 22.859375 21.867188 23.203125 21.523438 23.625 21.523438 C 24.046875 21.523438 24.386719 21.867188 24.386719 22.289062 Z M 23.109375 18.875 L 23.109375 15.40625 C 23.109375 15.304688 23.027344 15.222656 22.925781 15.222656 C 22.824219 15.222656 22.738281 15.304688 22.738281 15.40625 L 22.738281 19.789062 C 22.738281 19.792969 22.742188 19.800781 22.742188 19.804688 L 19.554688 19.804688 C 19.273438 19.804688 19.007812 19.898438 18.789062 20.058594 L 16.925781 17.523438 L 18.351562 15.515625 C 18.351562 15.515625 18.351562 15.515625 18.351562 15.511719 C 18.410156 15.429688 18.390625 15.316406 18.304688 15.257812 C 18.222656 15.195312 18.105469 15.214844 18.046875 15.300781 L 16.546875 17.417969 C 16.503906 17.484375 16.503906 17.570312 16.550781 17.632812 L 18.710938 20.582031 C 18.90625 20.847656 18.894531 21.207031 18.683594 21.421875 C 18.421875 21.695312 17.941406 21.660156 17.722656 21.359375 L 15.1875 17.90625 C 15.027344 17.6875 15.023438 17.390625 15.179688 17.167969 L 17.628906 13.714844 C 17.785156 13.492188 18.054688 13.453125 18.199219 13.449219 L 19.128906 13.449219 L 20.679688 14.757812 C 20.75 14.8125 20.851562 14.8125 20.917969 14.757812 L 22.46875 13.449219 L 23.722656 13.449219 C 23.996094 13.449219 24.222656 13.671875 24.222656 13.949219 L 24.222656 19.789062 C 24.222656 19.792969 24.222656 19.800781 24.222656 19.804688 L 23.105469 19.804688 C 23.105469 19.800781 23.109375 19.792969 23.109375 19.789062 Z M 21.035156 26.609375 C 21.152344 26.609375 21.21875 26.542969 21.253906 26.484375 C 21.289062 26.429688 21.316406 26.339844 21.261719 26.234375 L 18.867188 21.75 C 18.898438 21.726562 18.925781 21.707031 18.949219 21.679688 C 19.285156 21.335938 19.308594 20.773438 19.011719 20.363281 C 19.167969 20.246094 19.355469 20.175781 19.554688 20.175781 L 26.265625 20.175781 C 26.769531 20.175781 27.179688 20.585938 27.179688 21.089844 C 27.179688 21.59375 26.769531 22.003906 26.265625 22.003906 L 24.71875 22.003906 C 24.589844 21.515625 24.152344 21.152344 23.625 21.152344 C 23.097656 21.152344 22.660156 21.515625 22.53125 22.003906 L 21.386719 22.003906 C 21.320312 22.003906 21.261719 22.039062 21.226562 22.09375 C 21.195312 22.148438 21.191406 22.21875 21.222656 22.277344 L 22.875 25.375 C 23.222656 26.027344 23.203125 26.792969 22.824219 27.425781 C 22.441406 28.0625 21.773438 28.441406 21.035156 28.441406 L 19.320312 28.441406 C 19.691406 27.964844 19.804688 27.328125 19.597656 26.75 L 19.550781 26.609375 Z M 13.902344 27.523438 C 13.902344 27.019531 14.3125 26.609375 14.816406 26.609375 L 17.59375 26.609375 L 17.824219 27.273438 L 16.273438 27.277344 C 16.167969 27.277344 16.085938 27.359375 16.085938 27.460938 C 16.085938 27.5625 16.167969 27.648438 16.273438 27.648438 L 18.082031 27.644531 C 18.144531 27.644531 18.199219 27.617188 18.234375 27.566406 C 18.269531 27.519531 18.277344 27.457031 18.257812 27.398438 L 17.320312 24.699219 C 17.226562 24.425781 17.328125 24.125 17.558594 24 C 17.707031 23.921875 17.871094 23.910156 18.023438 23.96875 C 18.171875 24.027344 18.289062 24.148438 18.34375 24.300781 L 19.25 26.871094 C 19.4375 27.398438 19.292969 27.984375 18.890625 28.367188 L 18.8125 28.441406 L 14.816406 28.441406 C 14.3125 28.441406 13.902344 28.03125 13.902344 27.523438 Z M 27.507812 28.441406 L 22.335938 28.441406 C 22.375 28.414062 22.414062 28.386719 22.453125 28.359375 C 22.726562 28.164062 22.960938 27.917969 23.140625 27.617188 C 23.324219 27.308594 23.433594 26.972656 23.472656 26.632812 L 23.476562 26.628906 C 23.476562 26.625 23.476562 26.617188 23.480469 26.613281 L 27.507812 26.609375 C 28.011719 26.609375 28.421875 27.019531 28.421875 27.527344 C 28.421875 28.03125 28.011719 28.441406 27.507812 28.441406 Z M 27.507812 28.441406 " fill-opacity="1" fill-rule="nonzero"/></g></svg>