<svg xmlns="http://www.w3.org/2000/svg" xmlns:xlink="http://www.w3.org/1999/xlink" width="50" zoomAndPan="magnify" viewBox="0 0 37.5 40.5" height="54" preserveAspectRatio="xMidYMid meet" version="1.0"><defs><clipPath id="f58a349e98"><path d="M 0 0.0195312 L 37.007812 0.0195312 L 37.007812 39.988281 L 0 39.988281 Z M 0 0.0195312 " clip-rule="nonzero"/></clipPath><clipPath id="b2af0f231f"><path d="M 0 0.0195312 L 37.007812 0.0195312 L 37.007812 37.027344 L 0 37.027344 Z M 0 0.0195312 " clip-rule="nonzero"/></clipPath><clipPath id="ee6d5fa034"><path d="M 12 11.207031 L 20 11.207031 L 20 18 L 12 18 Z M 12 11.207031 " clip-rule="nonzero"/></clipPath><clipPath id="7d4c1a1042"><path d="M 10.078125 11.207031 L 27 11.207031 L 27 28.96875 L 10.078125 28.96875 Z M 10.078125 11.207031 " clip-rule="nonzero"/></clipPath><clipPath id="cd70243469"><path d="M 23.019531 12.503906 L 27.101562 12.503906 L 27.101562 13.746094 L 23.019531 13.746094 Z M 23.019531 12.503906 " clip-rule="nonzero"/></clipPath></defs><g clip-path="url(#f58a349e98)"><path fill="#ffffff" d="M 0 0.0195312 L 37.007812 0.0195312 L 37.007812 39.988281 L 0 39.988281 Z M 0 0.0195312 " fill-opacity="1" fill-rule="nonzero"/><path fill="#ffffff" d="M 0 0.0195312 L 37.007812 0.0195312 L 37.007812 39.988281 L 0 39.988281 Z M 0 0.0195312 " fill-opacity="1" fill-rule="nonzero"/></g><g clip-path="url(#b2af0f231f)"><path fill="#9cd6c9" d="M 18.503906 0.0195312 C 8.296875 0.0195312 0 8.324219 0 18.523438 C 0 28.730469 8.296875 37.027344 18.503906 37.027344 C 28.703125 37.027344 37.007812 28.730469 37.007812 18.523438 C 37.007812 8.324219 28.703125 0.0195312 18.503906 0.0195312 Z M 18.503906 35.582031 C 9.097656 35.582031 1.441406 27.929688 1.441406 18.523438 C 1.441406 9.117188 9.097656 1.464844 18.503906 1.464844 C 27.910156 1.464844 35.5625 9.117188 35.5625 18.523438 C 35.5625 27.929688 27.910156 35.582031 18.503906 35.582031 Z M 18.503906 35.582031 " fill-opacity="1" fill-rule="nonzero"/></g><path fill="#9cd6c9" d="M 18.503906 2.425781 C 9.628906 2.425781 2.40625 9.648438 2.40625 18.523438 C 2.40625 27.398438 9.628906 34.621094 18.503906 34.621094 C 27.378906 34.621094 34.601562 27.398438 34.601562 18.523438 C 34.601562 9.648438 27.378906 2.425781 18.503906 2.425781 Z M 18.503906 2.425781 " fill-opacity="1" fill-rule="nonzero"/><g clip-path="url(#ee6d5fa034)"><path fill="#000000" d="M 19.402344 17.144531 L 12.773438 17.144531 L 12.773438 12.191406 L 19.402344 12.191406 Z M 19.652344 17.269531 L 19.652344 12.066406 C 19.652344 11.996094 19.597656 11.941406 19.527344 11.941406 L 12.648438 11.941406 C 12.582031 11.941406 12.523438 11.996094 12.523438 12.066406 L 12.523438 17.269531 C 12.523438 17.335938 12.582031 17.394531 12.648438 17.394531 L 19.527344 17.394531 C 19.597656 17.394531 19.652344 17.335938 19.652344 17.269531 " fill-opacity="1" fill-rule="nonzero"/></g><path fill="#000000" d="M 14.195312 14.265625 C 14.367188 14.265625 14.507812 14.429688 14.507812 14.628906 C 14.507812 14.828125 14.367188 14.988281 14.195312 14.988281 C 14.019531 14.988281 13.875 14.828125 13.875 14.628906 C 13.875 14.429688 14.019531 14.265625 14.195312 14.265625 Z M 15.835938 14.148438 C 15.890625 14.148438 15.933594 14.101562 15.933594 14.046875 L 15.933594 13.335938 C 16.027344 13.332031 16.121094 13.332031 16.214844 13.332031 C 16.214844 13.332031 16.214844 13.332031 16.214844 13.335938 L 16.214844 14.046875 C 16.214844 14.101562 16.257812 14.148438 16.316406 14.148438 C 16.371094 14.148438 16.414062 14.101562 16.414062 14.046875 L 16.414062 13.339844 C 16.589844 13.347656 16.730469 13.363281 16.828125 13.382812 C 16.832031 13.382812 16.832031 13.382812 16.832031 13.382812 C 16.941406 13.402344 16.996094 13.429688 17.027344 13.453125 C 16.988281 13.675781 16.875 13.875 16.679688 14.058594 C 16.609375 14.128906 16.558594 14.210938 16.535156 14.300781 C 16.492188 14.480469 16.398438 14.613281 16.359375 14.613281 L 15.789062 14.613281 C 15.738281 14.613281 15.6875 14.59375 15.660156 14.574219 C 15.652344 14.5625 15.632812 14.503906 15.613281 14.359375 C 15.597656 14.238281 15.542969 14.128906 15.457031 14.046875 C 15.269531 13.867188 15.15625 13.671875 15.121094 13.453125 C 15.152344 13.429688 15.207031 13.402344 15.316406 13.382812 C 15.320312 13.382812 15.320312 13.382812 15.320312 13.382812 C 15.417969 13.363281 15.550781 13.351562 15.738281 13.339844 L 15.738281 14.046875 C 15.738281 14.101562 15.78125 14.148438 15.835938 14.148438 Z M 16.457031 16.328125 C 16.316406 16.507812 16.183594 16.621094 16.074219 16.664062 C 15.964844 16.621094 15.832031 16.507812 15.695312 16.328125 C 15.660156 16.285156 15.644531 16.230469 15.652344 16.175781 C 15.660156 16.121094 15.691406 16.070312 15.753906 16.027344 C 15.785156 16.007812 15.804688 15.976562 15.804688 15.941406 L 15.804688 14.8125 L 16.34375 14.8125 L 16.34375 15.941406 C 16.34375 15.976562 16.378906 16.019531 16.410156 16.039062 C 16.457031 16.070312 16.488281 16.121094 16.496094 16.175781 C 16.507812 16.230469 16.492188 16.285156 16.457031 16.328125 Z M 18.300781 14.628906 C 18.300781 14.839844 18.144531 15.011719 17.957031 15.011719 C 17.765625 15.011719 17.613281 14.839844 17.613281 14.628906 C 17.613281 14.414062 17.765625 14.242188 17.957031 14.242188 C 18.144531 14.242188 18.300781 14.414062 18.300781 14.628906 Z M 14.195312 15.1875 C 14.476562 15.1875 14.707031 14.9375 14.707031 14.628906 C 14.707031 14.355469 14.53125 14.128906 14.292969 14.078125 L 14.292969 13.335938 C 14.292969 13.003906 14.617188 12.730469 15.015625 12.730469 C 15.332031 12.730469 15.601562 12.90625 15.695312 13.144531 C 15.519531 13.15625 15.382812 13.167969 15.28125 13.1875 C 15.109375 13.21875 15.003906 13.273438 14.9375 13.355469 C 14.917969 13.378906 14.910156 13.40625 14.914062 13.429688 C 14.949219 13.710938 15.085938 13.96875 15.316406 14.1875 C 15.371094 14.242188 15.40625 14.308594 15.417969 14.382812 C 15.449219 14.652344 15.5 14.695312 15.523438 14.714844 C 15.546875 14.738281 15.578125 14.75 15.605469 14.765625 L 15.605469 15.886719 C 15.523438 15.953125 15.472656 16.042969 15.457031 16.144531 C 15.4375 16.253906 15.46875 16.367188 15.535156 16.453125 C 15.71875 16.683594 15.890625 16.824219 16.046875 16.867188 C 16.058594 16.871094 16.066406 16.871094 16.074219 16.871094 C 16.085938 16.871094 16.09375 16.871094 16.101562 16.867188 C 16.296875 16.8125 16.488281 16.613281 16.613281 16.453125 C 16.679688 16.367188 16.710938 16.253906 16.695312 16.144531 C 16.679688 16.042969 16.625 15.953125 16.542969 15.886719 L 16.542969 14.722656 C 16.640625 14.621094 16.703125 14.460938 16.730469 14.347656 C 16.742188 14.296875 16.773438 14.246094 16.816406 14.203125 C 17.058594 13.976562 17.199219 13.71875 17.234375 13.429688 C 17.238281 13.417969 17.234375 13.40625 17.230469 13.390625 C 17.226562 13.378906 17.222656 13.367188 17.214844 13.359375 L 17.214844 13.355469 C 17.148438 13.273438 17.042969 13.21875 16.867188 13.1875 C 16.761719 13.167969 16.625 13.152344 16.453125 13.144531 C 16.550781 12.90625 16.820312 12.730469 17.136719 12.730469 C 17.535156 12.730469 17.859375 13.003906 17.859375 13.335938 L 17.859375 14.054688 C 17.605469 14.105469 17.414062 14.34375 17.414062 14.628906 C 17.414062 14.949219 17.65625 15.210938 17.957031 15.210938 C 18.257812 15.210938 18.5 14.949219 18.5 14.628906 C 18.5 14.34375 18.308594 14.105469 18.058594 14.054688 L 18.058594 13.335938 C 18.058594 12.890625 17.644531 12.53125 17.136719 12.53125 C 16.707031 12.53125 16.351562 12.789062 16.246094 13.132812 C 16.136719 13.128906 16.019531 13.128906 15.902344 13.132812 C 15.796875 12.789062 15.441406 12.53125 15.015625 12.53125 C 14.507812 12.53125 14.09375 12.890625 14.09375 13.335938 L 14.09375 14.078125 C 13.855469 14.128906 13.675781 14.355469 13.675781 14.628906 C 13.675781 14.9375 13.910156 15.1875 14.195312 15.1875 " fill-opacity="1" fill-rule="nonzero"/><g clip-path="url(#7d4c1a1042)"><path fill="#000000" d="M 21.847656 21.28125 L 10.328125 21.28125 L 10.328125 20.523438 L 21.847656 20.523438 Z M 20.765625 26.746094 L 11.410156 26.746094 L 11.410156 21.527344 L 20.765625 21.527344 Z M 20.765625 27.75 L 11.410156 27.75 L 11.410156 26.996094 L 20.765625 26.996094 Z M 19.5625 28.664062 L 18.933594 28.664062 L 18.933594 28 L 19.5625 28 Z M 13.242188 28.664062 L 12.617188 28.664062 L 12.617188 28 L 13.242188 28 Z M 12.03125 19.058594 L 20.148438 19.058594 L 21.625 20.273438 L 10.550781 20.273438 Z M 15.320312 18.074219 L 16.855469 18.074219 L 17.253906 18.8125 L 14.921875 18.8125 Z M 12.09375 17.824219 L 12.09375 11.511719 L 20.085938 11.511719 L 20.085938 17.824219 Z M 26.148438 20.152344 L 24.71875 18.738281 L 24.71875 16.042969 L 25.449219 16.042969 L 25.449219 17.875 C 25.449219 17.910156 25.464844 17.945312 25.492188 17.96875 L 26.148438 18.53125 Z M 26.394531 18.472656 C 26.394531 18.433594 26.378906 18.402344 26.351562 18.375 L 25.695312 17.816406 L 25.695312 15.917969 C 25.695312 15.847656 25.640625 15.792969 25.574219 15.792969 L 25.292969 15.792969 L 25.292969 15.402344 C 25.292969 15.320312 25.230469 15.257812 25.152344 15.257812 L 25.046875 15.257812 C 24.96875 15.257812 24.90625 15.320312 24.90625 15.402344 L 24.90625 15.792969 L 24.597656 15.792969 C 24.527344 15.792969 24.472656 15.847656 24.472656 15.917969 L 24.472656 18.792969 C 24.472656 18.824219 24.484375 18.855469 24.507812 18.882812 L 26.152344 20.507812 C 26.585938 23.890625 26.417969 26.34375 25.703125 27.082031 C 25.527344 27.265625 25.320312 27.34375 25.074219 27.320312 C 24.167969 27.230469 24.109375 26.386719 24.078125 24.777344 C 24.0625 24.050781 24.046875 23.222656 23.90625 22.363281 C 23.742188 21.351562 23.410156 20.738281 22.917969 20.53125 C 22.597656 20.398438 22.289062 20.476562 22.097656 20.558594 L 22.097656 20.398438 C 22.097656 20.390625 22.09375 20.382812 22.09375 20.375 C 22.09375 20.371094 22.09375 20.363281 22.089844 20.359375 C 22.082031 20.339844 22.070312 20.320312 22.054688 20.304688 C 22.054688 20.304688 22.054688 20.304688 22.050781 20.300781 L 20.269531 18.839844 C 20.25 18.820312 20.21875 18.8125 20.191406 18.8125 L 17.535156 18.8125 L 17.136719 18.074219 L 20.210938 18.074219 C 20.277344 18.074219 20.332031 18.019531 20.332031 17.949219 L 20.332031 11.386719 C 20.332031 11.316406 20.277344 11.261719 20.210938 11.261719 L 11.96875 11.261719 C 11.898438 11.261719 11.84375 11.316406 11.84375 11.386719 L 11.84375 17.949219 C 11.84375 18.019531 11.898438 18.074219 11.96875 18.074219 L 15.039062 18.074219 L 14.640625 18.8125 L 11.988281 18.8125 C 11.957031 18.8125 11.929688 18.820312 11.90625 18.839844 L 10.125 20.300781 C 10.125 20.300781 10.125 20.304688 10.121094 20.304688 C 10.105469 20.320312 10.09375 20.339844 10.085938 20.359375 C 10.085938 20.363281 10.085938 20.371094 10.085938 20.375 C 10.082031 20.382812 10.078125 20.390625 10.078125 20.398438 L 10.078125 21.402344 C 10.078125 21.472656 10.132812 21.527344 10.203125 21.527344 L 11.164062 21.527344 L 11.164062 27.875 C 11.164062 27.941406 11.21875 28 11.285156 28 L 12.367188 28 L 12.367188 28.710938 C 12.367188 28.820312 12.457031 28.914062 12.570312 28.914062 L 13.289062 28.914062 C 13.402344 28.914062 13.492188 28.820312 13.492188 28.710938 L 13.492188 28 L 18.683594 28 L 18.683594 28.710938 C 18.683594 28.820312 18.773438 28.914062 18.886719 28.914062 L 19.609375 28.914062 C 19.71875 28.914062 19.808594 28.820312 19.808594 28.710938 L 19.808594 28 L 20.890625 28 C 20.960938 28 21.015625 27.941406 21.015625 27.875 L 21.015625 21.527344 L 21.972656 21.527344 C 22.042969 21.527344 22.097656 21.472656 22.097656 21.402344 L 22.097656 20.832031 C 22.214844 20.769531 22.515625 20.632812 22.824219 20.761719 C 23.222656 20.929688 23.511719 21.496094 23.660156 22.402344 C 23.800781 23.246094 23.816406 24.0625 23.828125 24.785156 C 23.859375 26.273438 23.882812 27.453125 25.050781 27.566406 C 25.085938 27.570312 25.125 27.570312 25.160156 27.570312 C 25.4375 27.570312 25.679688 27.464844 25.882812 27.257812 C 26.992188 26.113281 26.613281 22.117188 26.394531 20.441406 L 26.394531 18.472656 " fill-opacity="1" fill-rule="nonzero"/></g><g clip-path="url(#cd70243469)"><path fill="#000000" d="M 25.097656 12.71875 C 24.355469 12.71875 23.65625 13.007812 23.132812 13.53125 C 23.082031 13.582031 23.082031 13.660156 23.132812 13.707031 C 23.179688 13.757812 23.257812 13.757812 23.308594 13.707031 C 23.785156 13.230469 24.421875 12.964844 25.097656 12.964844 C 25.777344 12.964844 26.410156 13.230469 26.890625 13.707031 C 26.914062 13.730469 26.945312 13.742188 26.976562 13.742188 C 27.011719 13.742188 27.042969 13.730469 27.066406 13.707031 C 27.117188 13.660156 27.117188 13.582031 27.066406 13.53125 C 26.542969 13.007812 25.84375 12.71875 25.097656 12.71875 " fill-opacity="1" fill-rule="nonzero"/></g><path fill="#000000" d="M 24.429688 14.828125 C 24.382812 14.875 24.382812 14.953125 24.429688 15.003906 C 24.476562 15.050781 24.554688 15.050781 24.605469 15.003906 C 24.867188 14.742188 25.328125 14.742188 25.59375 15.003906 C 25.617188 15.027344 25.648438 15.039062 25.679688 15.039062 C 25.710938 15.039062 25.746094 15.027344 25.769531 15.003906 C 25.816406 14.953125 25.816406 14.875 25.769531 14.828125 C 25.414062 14.472656 24.785156 14.472656 24.429688 14.828125 " fill-opacity="1" fill-rule="nonzero"/><path fill="#000000" d="M 26.328125 14.390625 C 26.359375 14.390625 26.394531 14.378906 26.417969 14.355469 C 26.464844 14.308594 26.464844 14.226562 26.417969 14.179688 C 26.066406 13.828125 25.597656 13.632812 25.097656 13.632812 C 24.601562 13.632812 24.132812 13.828125 23.78125 14.179688 C 23.730469 14.226562 23.730469 14.308594 23.78125 14.355469 C 23.828125 14.402344 23.90625 14.402344 23.957031 14.355469 C 24.261719 14.050781 24.667969 13.882812 25.097656 13.882812 C 25.53125 13.882812 25.9375 14.050781 26.242188 14.355469 C 26.265625 14.378906 26.296875 14.390625 26.328125 14.390625 " fill-opacity="1" fill-rule="nonzero"/><path fill="#000000" d="M 12.929688 19.542969 L 12.464844 19.542969 C 12.394531 19.542969 12.339844 19.597656 12.339844 19.667969 C 12.339844 19.734375 12.394531 19.789062 12.464844 19.789062 L 12.929688 19.789062 C 12.996094 19.789062 13.050781 19.734375 13.050781 19.667969 C 13.050781 19.597656 12.996094 19.542969 12.929688 19.542969 " fill-opacity="1" fill-rule="nonzero"/><path fill="#000000" d="M 14.460938 19.542969 L 14 19.542969 C 13.929688 19.542969 13.875 19.597656 13.875 19.667969 C 13.875 19.734375 13.929688 19.789062 14 19.789062 L 14.460938 19.789062 C 14.53125 19.789062 14.585938 19.734375 14.585938 19.667969 C 14.585938 19.597656 14.53125 19.542969 14.460938 19.542969 " fill-opacity="1" fill-rule="nonzero"/><path fill="#000000" d="M 15.996094 19.542969 L 15.53125 19.542969 C 15.460938 19.542969 15.40625 19.597656 15.40625 19.667969 C 15.40625 19.734375 15.460938 19.789062 15.53125 19.789062 L 15.996094 19.789062 C 16.0625 19.789062 16.121094 19.734375 16.121094 19.667969 C 16.121094 19.597656 16.0625 19.542969 15.996094 19.542969 " fill-opacity="1" fill-rule="nonzero"/><path fill="#000000" d="M 17.527344 19.542969 L 17.0625 19.542969 C 16.996094 19.542969 16.941406 19.597656 16.941406 19.667969 C 16.941406 19.734375 16.996094 19.789062 17.0625 19.789062 L 17.527344 19.789062 C 17.597656 19.789062 17.652344 19.734375 17.652344 19.667969 C 17.652344 19.597656 17.597656 19.542969 17.527344 19.542969 " fill-opacity="1" fill-rule="nonzero"/><path fill="#000000" d="M 19.847656 19.542969 L 18.425781 19.542969 C 18.359375 19.542969 18.304688 19.597656 18.304688 19.667969 C 18.304688 19.734375 18.359375 19.789062 18.425781 19.789062 L 19.847656 19.789062 C 19.917969 19.789062 19.972656 19.734375 19.972656 19.667969 C 19.972656 19.597656 19.917969 19.542969 19.847656 19.542969 " fill-opacity="1" fill-rule="nonzero"/><path fill="#000000" d="M 12.609375 22.277344 L 19.566406 22.277344 L 19.566406 26 L 12.609375 26 Z M 12.488281 26.246094 L 19.691406 26.246094 C 19.761719 26.246094 19.816406 26.191406 19.816406 26.125 L 19.816406 22.152344 C 19.816406 22.082031 19.761719 22.027344 19.691406 22.027344 L 12.488281 22.027344 C 12.417969 22.027344 12.363281 22.082031 12.363281 22.152344 L 12.363281 26.125 C 12.363281 26.191406 12.417969 26.246094 12.488281 26.246094 " fill-opacity="1" fill-rule="nonzero"/><path fill="#000000" d="M 15.5 23.226562 L 13.410156 23.226562 C 13.339844 23.226562 13.285156 23.28125 13.285156 23.351562 C 13.285156 23.417969 13.339844 23.476562 13.410156 23.476562 L 15.5 23.476562 C 15.570312 23.476562 15.625 23.417969 15.625 23.351562 C 15.625 23.28125 15.570312 23.226562 15.5 23.226562 " fill-opacity="1" fill-rule="nonzero"/><path fill="#000000" d="M 15.5 24.011719 L 13.410156 24.011719 C 13.339844 24.011719 13.285156 24.070312 13.285156 24.136719 C 13.285156 24.207031 13.339844 24.261719 13.410156 24.261719 L 15.5 24.261719 C 15.570312 24.261719 15.625 24.207031 15.625 24.136719 C 15.625 24.070312 15.570312 24.011719 15.5 24.011719 " fill-opacity="1" fill-rule="nonzero"/><path fill="#000000" d="M 15.5 24.800781 L 13.410156 24.800781 C 13.339844 24.800781 13.285156 24.855469 13.285156 24.925781 C 13.285156 24.992188 13.339844 25.050781 13.410156 25.050781 L 15.5 25.050781 C 15.570312 25.050781 15.625 24.992188 15.625 24.925781 C 15.625 24.855469 15.570312 24.800781 15.5 24.800781 " fill-opacity="1" fill-rule="nonzero"/><path fill="#000000" d="M 17.820312 25.035156 C 17.324219 25.035156 16.921875 24.632812 16.921875 24.136719 C 16.921875 23.644531 17.324219 23.242188 17.820312 23.242188 C 18.3125 23.242188 18.714844 23.644531 18.714844 24.136719 C 18.714844 24.632812 18.3125 25.035156 17.820312 25.035156 Z M 17.820312 22.992188 C 17.1875 22.992188 16.671875 23.507812 16.671875 24.136719 C 16.671875 24.769531 17.1875 25.285156 17.820312 25.285156 C 18.449219 25.285156 18.964844 24.769531 18.964844 24.136719 C 18.964844 23.507812 18.449219 22.992188 17.820312 22.992188 " fill-opacity="1" fill-rule="nonzero"/></svg>