<svg xmlns="http://www.w3.org/2000/svg" xmlns:xlink="http://www.w3.org/1999/xlink" width="50" zoomAndPan="magnify" viewBox="0 0 37.5 40.5" height="54" preserveAspectRatio="xMidYMid meet" version="1.0"><defs><clipPath id="5e02787edd"><path d="M 0 0.0195312 L 37.007812 0.0195312 L 37.007812 39.988281 L 0 39.988281 Z M 0 0.0195312 " clip-rule="nonzero"/></clipPath><clipPath id="cf6ef0f80c"><path d="M 0 0.0195312 L 37.007812 0.0195312 L 37.007812 37.027344 L 0 37.027344 Z M 0 0.0195312 " clip-rule="nonzero"/></clipPath><clipPath id="c88259f205"><path d="M 12 23 L 21 23 L 21 27.589844 L 12 27.589844 Z M 12 23 " clip-rule="nonzero"/></clipPath><clipPath id="00dcd8ddca"><path d="M 12 9.085938 L 31.570312 9.085938 L 31.570312 21 L 12 21 Z M 12 9.085938 " clip-rule="nonzero"/></clipPath><clipPath id="e0233cf068"><path d="M 21 25 L 24 25 L 24 27.589844 L 21 27.589844 Z M 21 25 " clip-rule="nonzero"/></clipPath><clipPath id="dda6eef22c"><path d="M 5.664062 13 L 16 13 L 16 24 L 5.664062 24 Z M 5.664062 13 " clip-rule="nonzero"/></clipPath></defs><g clip-path="url(#5e02787edd)"><path fill="#ffffff" d="M 0 0.0195312 L 37.007812 0.0195312 L 37.007812 39.988281 L 0 39.988281 Z M 0 0.0195312 " fill-opacity="1" fill-rule="nonzero"/><path fill="#ffffff" d="M 0 0.0195312 L 37.007812 0.0195312 L 37.007812 39.988281 L 0 39.988281 Z M 0 0.0195312 " fill-opacity="1" fill-rule="nonzero"/></g><g clip-path="url(#cf6ef0f80c)"><path fill="#9cd6c9" d="M 18.503906 0.0195312 C 8.296875 0.0195312 0 8.324219 0 18.523438 C 0 28.730469 8.296875 37.027344 18.503906 37.027344 C 28.703125 37.027344 37.007812 28.730469 37.007812 18.523438 C 37.007812 8.324219 28.703125 0.0195312 18.503906 0.0195312 Z M 18.503906 35.582031 C 9.097656 35.582031 1.441406 27.929688 1.441406 18.523438 C 1.441406 9.117188 9.097656 1.464844 18.503906 1.464844 C 27.910156 1.464844 35.5625 9.117188 35.5625 18.523438 C 35.5625 27.929688 27.910156 35.582031 18.503906 35.582031 Z M 18.503906 35.582031 " fill-opacity="1" fill-rule="nonzero"/></g><path fill="#9cd6c9" d="M 18.503906 2.425781 C 9.628906 2.425781 2.40625 9.648438 2.40625 18.523438 C 2.40625 27.398438 9.628906 34.621094 18.503906 34.621094 C 27.378906 34.621094 34.601562 27.398438 34.601562 18.523438 C 34.601562 9.648438 27.378906 2.425781 18.503906 2.425781 Z M 18.503906 2.425781 " fill-opacity="1" fill-rule="nonzero"/><path fill="#000000" d="M 19.601562 12.496094 C 19.152344 12.496094 18.789062 12.851562 18.789062 13.285156 L 18.789062 18.339844 C 18.789062 18.632812 18.953125 18.902344 19.222656 19.039062 L 21.921875 20.421875 C 22.046875 20.484375 22.171875 20.511719 22.300781 20.511719 C 22.589844 20.511719 22.875 20.359375 23.019531 20.089844 C 23.230469 19.703125 23.078125 19.226562 22.679688 19.023438 L 20.417969 17.859375 L 20.417969 13.285156 C 20.414062 12.851562 20.050781 12.496094 19.601562 12.496094 Z M 19.601562 12.496094 " fill-opacity="1" fill-rule="nonzero"/><g clip-path="url(#c88259f205)"><path fill="#000000" d="M 20.417969 26.796875 C 20.417969 27.234375 20.050781 27.589844 19.601562 27.589844 C 16.746094 27.589844 14.179688 26.363281 12.433594 24.410156 C 12.96875 24.230469 13.394531 23.820312 13.578125 23.289062 C 15.035156 24.953125 17.191406 26.003906 19.601562 26.003906 C 20.046875 26.007812 20.417969 26.363281 20.417969 26.796875 Z M 20.417969 26.796875 " fill-opacity="1" fill-rule="nonzero"/></g><g clip-path="url(#00dcd8ddca)"><path fill="#000000" d="M 31.234375 18.386719 L 28.878906 20.679688 C 28.71875 20.835938 28.511719 20.914062 28.304688 20.914062 C 28.09375 20.914062 27.886719 20.835938 27.730469 20.679688 L 25.367188 18.386719 C 25.050781 18.082031 25.050781 17.578125 25.367188 17.273438 C 25.691406 16.957031 26.203125 16.957031 26.519531 17.273438 L 27.480469 18.207031 C 27.410156 14.035156 23.90625 10.667969 19.601562 10.667969 C 17.191406 10.667969 15.035156 11.722656 13.578125 13.378906 C 13.394531 12.859375 12.976562 12.445312 12.441406 12.257812 C 14.1875 10.316406 16.753906 9.085938 19.601562 9.085938 C 24.808594 9.085938 29.046875 13.171875 29.113281 18.21875 L 30.09375 17.269531 C 30.40625 16.957031 30.921875 16.957031 31.238281 17.269531 C 31.558594 17.578125 31.558594 18.078125 31.234375 18.386719 Z M 31.234375 18.386719 " fill-opacity="1" fill-rule="nonzero"/></g><g clip-path="url(#e0233cf068)"><path fill="#000000" d="M 22.148438 25.535156 C 21.691406 25.6875 21.449219 26.171875 21.605469 26.617188 C 21.761719 27.058594 22.261719 27.296875 22.71875 27.144531 C 23.175781 26.992188 23.417969 26.507812 23.261719 26.0625 C 23.105469 25.617188 22.605469 25.382812 22.148438 25.535156 Z M 22.148438 25.535156 " fill-opacity="1" fill-rule="nonzero"/></g><path fill="#000000" d="M 24.523438 24.25 C 24.148438 24.546875 24.089844 25.082031 24.394531 25.445312 C 24.699219 25.8125 25.25 25.871094 25.625 25.574219 C 26 25.277344 26.058594 24.742188 25.753906 24.378906 C 25.453125 24.011719 24.902344 23.957031 24.523438 24.25 Z M 24.523438 24.25 " fill-opacity="1" fill-rule="nonzero"/><path fill="#000000" d="M 27.507812 21.96875 C 27.09375 21.722656 26.554688 21.855469 26.308594 22.257812 C 26.058594 22.660156 26.195312 23.183594 26.609375 23.425781 C 27.023438 23.667969 27.5625 23.535156 27.808594 23.132812 C 28.058594 22.730469 27.925781 22.207031 27.507812 21.96875 Z M 27.507812 21.96875 " fill-opacity="1" fill-rule="nonzero"/><g clip-path="url(#dda6eef22c)"><path fill="#000000" d="M 15.449219 19.570312 C 15.449219 19.769531 15.285156 19.929688 15.082031 19.929688 L 12.199219 19.929688 L 12.199219 22.730469 C 12.199219 22.929688 12.03125 23.085938 11.832031 23.085938 L 9.296875 23.085938 C 9.089844 23.085938 8.929688 22.925781 8.929688 22.730469 L 8.929688 19.929688 L 6.042969 19.929688 C 5.839844 19.929688 5.679688 19.769531 5.679688 19.570312 L 5.679688 17.105469 C 5.679688 16.90625 5.839844 16.746094 6.042969 16.746094 L 8.925781 16.746094 L 8.925781 13.945312 C 8.925781 13.746094 9.089844 13.589844 9.292969 13.589844 L 11.828125 13.589844 C 12.03125 13.589844 12.195312 13.75 12.195312 13.945312 L 12.195312 16.75 L 15.078125 16.75 C 15.28125 16.75 15.445312 16.910156 15.445312 17.105469 L 15.445312 19.570312 Z M 15.449219 19.570312 " fill-opacity="1" fill-rule="nonzero"/></g></svg>