<svg xmlns="http://www.w3.org/2000/svg" xmlns:xlink="http://www.w3.org/1999/xlink" width="50" zoomAndPan="magnify" viewBox="0 0 37.5 40.5" height="54" preserveAspectRatio="xMidYMid meet" version="1.0"><defs><clipPath id="37b2735ec2"><path d="M 0 0.0195312 L 37.007812 0.0195312 L 37.007812 39.988281 L 0 39.988281 Z M 0 0.0195312 " clip-rule="nonzero"/></clipPath><clipPath id="ce18f3c4d8"><path d="M 0 0.0195312 L 37.007812 0.0195312 L 37.007812 37.027344 L 0 37.027344 Z M 0 0.0195312 " clip-rule="nonzero"/></clipPath><clipPath id="2e032654d1"><path d="M 15 10.382812 L 22 10.382812 L 22 19 L 15 19 Z M 15 10.382812 " clip-rule="nonzero"/></clipPath><clipPath id="f43aeaa515"><path d="M 19 18 L 26.644531 18 L 26.644531 26.664062 L 19 26.664062 Z M 19 18 " clip-rule="nonzero"/></clipPath><clipPath id="ab83a4976f"><path d="M 10.363281 17 L 17 17 L 17 26.664062 L 10.363281 26.664062 Z M 10.363281 17 " clip-rule="nonzero"/></clipPath><clipPath id="ee5db7ef34"><path d="M 10.363281 12 L 14 12 L 14 19 L 10.363281 19 Z M 10.363281 12 " clip-rule="nonzero"/></clipPath><clipPath id="a24142410b"><path d="M 16 25 L 20 25 L 20 26.664062 L 16 26.664062 Z M 16 25 " clip-rule="nonzero"/></clipPath><clipPath id="1372069219"><path d="M 23 12 L 26.644531 12 L 26.644531 20 L 23 20 Z M 23 12 " clip-rule="nonzero"/></clipPath></defs><g clip-path="url(#37b2735ec2)"><path fill="#ffffff" d="M 0 0.0195312 L 37.007812 0.0195312 L 37.007812 39.988281 L 0 39.988281 Z M 0 0.0195312 " fill-opacity="1" fill-rule="nonzero"/><path fill="#ffffff" d="M 0 0.0195312 L 37.007812 0.0195312 L 37.007812 39.988281 L 0 39.988281 Z M 0 0.0195312 " fill-opacity="1" fill-rule="nonzero"/></g><g clip-path="url(#ce18f3c4d8)"><path fill="#9cd6c9" d="M 18.503906 0.0195312 C 8.296875 0.0195312 0 8.324219 0 18.523438 C 0 28.730469 8.296875 37.027344 18.503906 37.027344 C 28.703125 37.027344 37.007812 28.730469 37.007812 18.523438 C 37.007812 8.324219 28.703125 0.0195312 18.503906 0.0195312 Z M 18.503906 35.582031 C 9.097656 35.582031 1.441406 27.929688 1.441406 18.523438 C 1.441406 9.117188 9.097656 1.464844 18.503906 1.464844 C 27.910156 1.464844 35.5625 9.117188 35.5625 18.523438 C 35.5625 27.929688 27.910156 35.582031 18.503906 35.582031 Z M 18.503906 35.582031 " fill-opacity="1" fill-rule="nonzero"/></g><path fill="#9cd6c9" d="M 18.503906 2.425781 C 9.628906 2.425781 2.40625 9.648438 2.40625 18.523438 C 2.40625 27.398438 9.628906 34.621094 18.503906 34.621094 C 27.378906 34.621094 34.601562 27.398438 34.601562 18.523438 C 34.601562 9.648438 27.378906 2.425781 18.503906 2.425781 Z M 18.503906 2.425781 " fill-opacity="1" fill-rule="nonzero"/><g clip-path="url(#2e032654d1)"><path fill="#000000" d="M 19.859375 18.523438 L 19.859375 13.753906 L 21.445312 11.230469 C 21.527344 11.105469 21.488281 10.941406 21.367188 10.859375 L 20.699219 10.425781 C 20.636719 10.386719 20.5625 10.371094 20.492188 10.386719 C 20.421875 10.402344 20.359375 10.445312 20.320312 10.507812 L 19.492188 11.828125 C 19.316406 11.457031 18.941406 11.195312 18.503906 11.195312 C 18.066406 11.195312 17.6875 11.457031 17.515625 11.828125 L 16.683594 10.507812 C 16.644531 10.445312 16.585938 10.402344 16.511719 10.386719 C 16.441406 10.371094 16.367188 10.386719 16.308594 10.425781 L 15.640625 10.859375 C 15.515625 10.941406 15.480469 11.105469 15.558594 11.230469 L 17.144531 13.753906 L 17.144531 18.523438 C 17.144531 18.671875 17.269531 18.792969 17.417969 18.792969 L 19.589844 18.792969 C 19.738281 18.792969 19.859375 18.671875 19.859375 18.523438 Z M 19.316406 13.738281 L 19.316406 18.25 L 18.773438 18.25 L 18.773438 15.808594 L 18.230469 15.808594 L 18.230469 18.25 L 17.6875 18.25 L 17.6875 13.742188 C 17.691406 13.734375 17.695312 13.707031 17.695312 13.699219 C 17.699219 13.640625 17.683594 13.585938 17.652344 13.539062 L 16.160156 11.167969 L 16.371094 11.03125 L 17.664062 13.082031 C 17.742188 13.207031 17.898438 13.246094 18.023438 13.175781 L 18.054688 13.160156 C 18.066406 13.15625 18.074219 13.148438 18.082031 13.144531 C 18.167969 13.109375 18.226562 13.03125 18.242188 12.9375 C 18.257812 12.84375 18.222656 12.75 18.152344 12.691406 C 18.027344 12.585938 17.960938 12.4375 17.960938 12.28125 C 17.960938 11.980469 18.203125 11.738281 18.503906 11.738281 C 18.800781 11.738281 19.046875 11.980469 19.046875 12.28125 C 19.046875 12.4375 18.976562 12.585938 18.855469 12.691406 C 18.785156 12.75 18.753906 12.84375 18.765625 12.9375 C 18.777344 13.027344 18.839844 13.109375 18.925781 13.144531 C 18.933594 13.148438 18.941406 13.15625 18.949219 13.160156 L 18.980469 13.175781 C 19.105469 13.246094 19.265625 13.207031 19.339844 13.082031 L 20.632812 11.03125 L 20.84375 11.167969 L 19.355469 13.539062 C 19.324219 13.585938 19.308594 13.640625 19.3125 13.699219 C 19.3125 13.707031 19.316406 13.730469 19.316406 13.738281 Z M 19.316406 13.738281 " fill-opacity="1" fill-rule="nonzero"/></g><g clip-path="url(#f43aeaa515)"><path fill="#000000" d="M 25.558594 22.863281 L 25.289062 22.863281 L 25.289062 21.167969 C 25.289062 20.480469 24.804688 19.90625 24.160156 19.761719 C 24.207031 19.636719 24.234375 19.503906 24.234375 19.367188 C 24.234375 18.753906 23.730469 18.25 23.117188 18.25 C 22.5 18.25 22 18.753906 22 19.367188 C 22 19.503906 22.027344 19.636719 22.074219 19.761719 C 21.429688 19.90625 20.945312 20.480469 20.945312 21.167969 L 20.945312 22.863281 L 20.632812 22.863281 C 20.058594 22.863281 19.589844 23.332031 19.589844 23.910156 L 19.589844 26.394531 C 19.589844 26.542969 19.710938 26.664062 19.859375 26.664062 L 20.675781 26.664062 C 20.824219 26.664062 20.945312 26.542969 20.945312 26.394531 L 20.945312 24.492188 L 21.761719 24.492188 L 21.761719 26.394531 C 21.761719 26.542969 21.882812 26.664062 22.03125 26.664062 L 24.171875 26.664062 C 24.320312 26.664062 24.445312 26.542969 24.445312 26.394531 L 24.445312 24.492188 L 25.289062 24.492188 L 25.289062 26.394531 C 25.289062 26.542969 25.410156 26.664062 25.558594 26.664062 L 26.375 26.664062 C 26.523438 26.664062 26.644531 26.542969 26.644531 26.394531 L 26.644531 23.949219 C 26.644531 23.351562 26.15625 22.863281 25.558594 22.863281 Z M 21.488281 21.167969 C 21.488281 20.675781 21.890625 20.273438 22.386719 20.273438 L 22.5625 20.273438 C 22.675781 20.273438 22.777344 20.203125 22.816406 20.097656 C 22.859375 19.992188 22.828125 19.871094 22.742188 19.796875 C 22.613281 19.683594 22.542969 19.53125 22.542969 19.367188 C 22.542969 19.050781 22.800781 18.792969 23.117188 18.792969 C 23.433594 18.792969 23.691406 19.050781 23.691406 19.367188 C 23.691406 19.53125 23.617188 19.683594 23.492188 19.796875 C 23.40625 19.871094 23.375 19.988281 23.414062 20.09375 C 23.457031 20.203125 23.558594 20.273438 23.671875 20.273438 L 23.847656 20.273438 C 24.34375 20.273438 24.746094 20.671875 24.746094 21.167969 L 24.746094 22.863281 L 24.445312 22.863281 L 24.445312 20.84375 L 23.902344 20.84375 L 23.902344 22.863281 L 22.332031 22.863281 L 22.332031 20.84375 L 21.789062 20.84375 L 21.789062 22.863281 L 21.488281 22.863281 Z M 22.84375 26.121094 L 22.300781 26.121094 L 22.300781 24.492188 L 22.84375 24.492188 Z M 23.902344 26.121094 L 23.386719 26.121094 L 23.386719 24.492188 L 23.902344 24.492188 Z M 26.101562 26.121094 L 25.832031 26.121094 L 25.832031 24.222656 C 25.832031 24.070312 25.710938 23.949219 25.558594 23.949219 L 20.675781 23.949219 C 20.523438 23.949219 20.402344 24.070312 20.402344 24.222656 L 20.402344 26.121094 L 20.132812 26.121094 L 20.132812 23.910156 C 20.132812 23.632812 20.355469 23.40625 20.632812 23.40625 L 25.558594 23.40625 C 25.859375 23.40625 26.101562 23.652344 26.101562 23.949219 Z M 26.101562 26.121094 " fill-opacity="1" fill-rule="nonzero"/></g><g clip-path="url(#ab83a4976f)"><path fill="#000000" d="M 10.632812 20.964844 L 11.175781 20.964844 L 11.175781 23.4375 C 10.839844 23.78125 10.632812 24.25 10.632812 24.765625 C 10.632812 25.8125 11.484375 26.664062 12.53125 26.664062 C 13.582031 26.664062 14.433594 25.8125 14.433594 24.765625 C 14.433594 24.234375 14.210938 23.753906 13.859375 23.40625 L 14.234375 23.40625 C 14.492188 23.40625 14.703125 23.617188 14.703125 23.875 L 14.703125 26.121094 C 14.703125 26.273438 14.824219 26.394531 14.976562 26.394531 L 16.0625 26.394531 C 16.210938 26.394531 16.332031 26.273438 16.332031 26.121094 L 16.332031 23.679688 C 16.332031 22.722656 15.625 21.929688 14.703125 21.800781 L 14.703125 19.429688 C 14.703125 19.109375 14.535156 18.824219 14.28125 18.664062 C 14.414062 18.4375 14.464844 18.167969 14.410156 17.894531 C 14.324219 17.464844 13.976562 17.125 13.546875 17.046875 C 13.226562 16.992188 12.898438 17.074219 12.652344 17.28125 C 12.402344 17.488281 12.261719 17.792969 12.261719 18.117188 C 12.261719 18.3125 12.3125 18.5 12.410156 18.664062 C 12.183594 18.808594 12.027344 19.054688 11.996094 19.335938 L 10.632812 19.335938 C 10.484375 19.335938 10.363281 19.457031 10.363281 19.609375 L 10.363281 20.695312 C 10.363281 20.84375 10.484375 20.964844 10.632812 20.964844 Z M 13.890625 24.765625 C 13.890625 25.511719 13.28125 26.121094 12.53125 26.121094 C 11.785156 26.121094 11.175781 25.511719 11.175781 24.765625 C 11.175781 24.015625 11.785156 23.40625 12.53125 23.40625 C 13.28125 23.40625 13.890625 24.015625 13.890625 24.765625 Z M 12.53125 19.429688 C 12.53125 19.230469 12.695312 19.066406 12.898438 19.066406 C 13.019531 19.066406 13.125 18.988281 13.15625 18.871094 C 13.191406 18.757812 13.148438 18.632812 13.046875 18.566406 C 12.894531 18.46875 12.804688 18.296875 12.804688 18.117188 C 12.804688 17.953125 12.875 17.804688 13 17.699219 C 13.125 17.59375 13.285156 17.554688 13.449219 17.582031 C 13.660156 17.621094 13.835938 17.792969 13.878906 18 C 13.921875 18.226562 13.835938 18.445312 13.644531 18.566406 C 13.546875 18.632812 13.5 18.757812 13.535156 18.871094 C 13.570312 18.988281 13.675781 19.066406 13.796875 19.066406 C 13.996094 19.066406 14.160156 19.230469 14.160156 19.429688 L 14.160156 22.050781 C 14.160156 22.199219 14.28125 22.324219 14.433594 22.324219 C 15.179688 22.324219 15.789062 22.929688 15.789062 23.679688 L 15.789062 25.851562 L 15.246094 25.851562 L 15.246094 23.875 C 15.246094 23.320312 14.792969 22.863281 14.234375 22.863281 L 12.53125 22.863281 Z M 10.90625 19.878906 L 11.988281 19.878906 L 11.988281 22.945312 C 11.894531 22.972656 11.804688 23.007812 11.71875 23.050781 L 11.71875 20.695312 C 11.71875 20.542969 11.597656 20.421875 11.449219 20.421875 L 10.90625 20.421875 Z M 10.90625 19.878906 " fill-opacity="1" fill-rule="nonzero"/></g><path fill="#000000" d="M 12.53125 25.578125 C 12.980469 25.578125 13.347656 25.214844 13.347656 24.765625 C 13.347656 24.316406 12.980469 23.949219 12.53125 23.949219 C 12.085938 23.949219 11.71875 24.316406 11.71875 24.765625 C 11.71875 25.214844 12.085938 25.578125 12.53125 25.578125 Z M 12.53125 24.492188 C 12.683594 24.492188 12.804688 24.613281 12.804688 24.765625 C 12.804688 24.914062 12.683594 25.035156 12.53125 25.035156 C 12.382812 25.035156 12.261719 24.914062 12.261719 24.765625 C 12.261719 24.613281 12.382812 24.492188 12.53125 24.492188 Z M 12.53125 24.492188 " fill-opacity="1" fill-rule="nonzero"/><g clip-path="url(#ee5db7ef34)"><path fill="#000000" d="M 10.910156 18.804688 L 11.453125 18.785156 C 11.449219 18.699219 11.449219 18.609375 11.449219 18.523438 C 11.449219 16.519531 12.304688 14.601562 13.800781 13.261719 L 13.4375 12.859375 C 11.828125 14.300781 10.90625 16.363281 10.90625 18.523438 C 10.90625 18.617188 10.90625 18.710938 10.910156 18.804688 Z M 10.910156 18.804688 " fill-opacity="1" fill-rule="nonzero"/></g><g clip-path="url(#a24142410b)"><path fill="#000000" d="M 16.933594 25.402344 L 16.816406 25.933594 C 17.367188 26.058594 17.933594 26.121094 18.503906 26.121094 C 18.691406 26.121094 18.882812 26.113281 19.066406 26.101562 L 19.027344 25.558594 C 18.335938 25.609375 17.617188 25.558594 16.933594 25.402344 Z M 16.933594 25.402344 " fill-opacity="1" fill-rule="nonzero"/></g><g clip-path="url(#1372069219)"><path fill="#000000" d="M 25.972656 19.929688 C 26.058594 19.46875 26.101562 18.996094 26.101562 18.523438 C 26.101562 16.363281 25.179688 14.300781 23.570312 12.859375 L 23.207031 13.261719 C 24.703125 14.601562 25.558594 16.519531 25.558594 18.523438 C 25.558594 18.964844 25.519531 19.402344 25.4375 19.828125 Z M 25.972656 19.929688 " fill-opacity="1" fill-rule="nonzero"/></g><path fill="#000000" d="M 14.703125 13.910156 L 14.703125 12.28125 C 14.703125 12.132812 14.582031 12.011719 14.433594 12.011719 L 12.804688 12.011719 L 12.804688 12.550781 L 14.160156 12.550781 L 14.160156 13.910156 Z M 14.703125 13.910156 " fill-opacity="1" fill-rule="nonzero"/><path fill="#000000" d="M 22.300781 12.28125 L 22.300781 13.910156 L 22.84375 13.910156 L 22.84375 12.550781 L 24.203125 12.550781 L 24.203125 12.011719 L 22.574219 12.011719 C 22.425781 12.011719 22.300781 12.132812 22.300781 12.28125 Z M 22.300781 12.28125 " fill-opacity="1" fill-rule="nonzero"/></svg>