<svg xmlns="http://www.w3.org/2000/svg" xmlns:xlink="http://www.w3.org/1999/xlink" width="50" zoomAndPan="magnify" viewBox="0 0 37.5 40.5" height="54" preserveAspectRatio="xMidYMid meet" version="1.0"><defs><clipPath id="5d4d6934ee"><path d="M 0 0.0195312 L 37.007812 0.0195312 L 37.007812 39.988281 L 0 39.988281 Z M 0 0.0195312 " clip-rule="nonzero"/></clipPath><clipPath id="5c3f9274d5"><path d="M 0 0.0195312 L 37.007812 0.0195312 L 37.007812 37.027344 L 0 37.027344 Z M 0 0.0195312 " clip-rule="nonzero"/></clipPath><clipPath id="8a6c26a3c4"><path d="M 14 8.234375 L 23 8.234375 L 23 19 L 14 19 Z M 14 8.234375 " clip-rule="nonzero"/></clipPath><clipPath id="22e146b477"><path d="M 19 18 L 28.9375 18 L 28.9375 28.957031 L 19 28.957031 Z M 19 18 " clip-rule="nonzero"/></clipPath><clipPath id="db9e5012b5"><path d="M 8.214844 16 L 16 16 L 16 28.957031 L 8.214844 28.957031 Z M 8.214844 16 " clip-rule="nonzero"/></clipPath><clipPath id="837e366fa2"><path d="M 8.214844 11 L 13 11 L 13 19 L 8.214844 19 Z M 8.214844 11 " clip-rule="nonzero"/></clipPath><clipPath id="3c453b4226"><path d="M 16 27 L 20 27 L 20 28.957031 L 16 28.957031 Z M 16 27 " clip-rule="nonzero"/></clipPath><clipPath id="0130898aba"><path d="M 24 11 L 28.9375 11 L 28.9375 21 L 24 21 Z M 24 11 " clip-rule="nonzero"/></clipPath></defs><g clip-path="url(#5d4d6934ee)"><path fill="#ffffff" d="M 0 0.0195312 L 37.007812 0.0195312 L 37.007812 39.988281 L 0 39.988281 Z M 0 0.0195312 " fill-opacity="1" fill-rule="nonzero"/><path fill="#ffffff" d="M 0 0.0195312 L 37.007812 0.0195312 L 37.007812 39.988281 L 0 39.988281 Z M 0 0.0195312 " fill-opacity="1" fill-rule="nonzero"/></g><g clip-path="url(#5c3f9274d5)"><path fill="#9cd6c9" d="M 18.503906 0.0195312 C 8.296875 0.0195312 0 8.324219 0 18.523438 C 0 28.730469 8.296875 37.027344 18.503906 37.027344 C 28.703125 37.027344 37.007812 28.730469 37.007812 18.523438 C 37.007812 8.324219 28.703125 0.0195312 18.503906 0.0195312 Z M 18.503906 35.582031 C 9.097656 35.582031 1.441406 27.929688 1.441406 18.523438 C 1.441406 9.117188 9.097656 1.464844 18.503906 1.464844 C 27.910156 1.464844 35.5625 9.117188 35.5625 18.523438 C 35.5625 27.929688 27.910156 35.582031 18.503906 35.582031 Z M 18.503906 35.582031 " fill-opacity="1" fill-rule="nonzero"/></g><path fill="#9cd6c9" d="M 18.503906 2.425781 C 9.628906 2.425781 2.40625 9.648438 2.40625 18.523438 C 2.40625 27.398438 9.628906 34.621094 18.503906 34.621094 C 27.378906 34.621094 34.601562 27.398438 34.601562 18.523438 C 34.601562 9.648438 27.378906 2.425781 18.503906 2.425781 Z M 18.503906 2.425781 " fill-opacity="1" fill-rule="nonzero"/><g clip-path="url(#8a6c26a3c4)"><path fill="#000000" d="M 20.304688 18.597656 L 20.304688 12.527344 L 22.324219 9.316406 C 22.425781 9.15625 22.378906 8.945312 22.21875 8.84375 L 21.371094 8.292969 C 21.292969 8.242188 21.199219 8.222656 21.109375 8.242188 C 21.019531 8.261719 20.941406 8.316406 20.890625 8.398438 L 19.832031 10.078125 C 19.613281 9.601562 19.132812 9.269531 18.578125 9.269531 C 18.019531 9.269531 17.539062 9.601562 17.320312 10.078125 L 16.261719 8.398438 C 16.214844 8.316406 16.136719 8.261719 16.042969 8.242188 C 15.953125 8.222656 15.859375 8.242188 15.78125 8.292969 L 14.933594 8.84375 C 14.777344 8.945312 14.730469 9.15625 14.832031 9.316406 L 16.851562 12.527344 L 16.851562 18.597656 C 16.851562 18.789062 17.003906 18.941406 17.195312 18.941406 L 19.957031 18.941406 C 20.148438 18.941406 20.304688 18.789062 20.304688 18.597656 Z M 19.613281 12.503906 L 19.613281 18.25 L 18.921875 18.25 L 18.921875 15.144531 L 18.230469 15.144531 L 18.230469 18.25 L 17.542969 18.25 L 17.542969 12.511719 C 17.542969 12.503906 17.546875 12.464844 17.546875 12.457031 C 17.550781 12.386719 17.53125 12.3125 17.496094 12.253906 L 15.597656 9.238281 L 15.867188 9.0625 L 17.511719 11.675781 C 17.609375 11.828125 17.808594 11.882812 17.96875 11.792969 L 18.007812 11.769531 C 18.019531 11.765625 18.027344 11.757812 18.039062 11.753906 C 18.148438 11.707031 18.226562 11.605469 18.246094 11.488281 C 18.265625 11.371094 18.21875 11.25 18.128906 11.171875 C 17.972656 11.039062 17.886719 10.855469 17.886719 10.652344 C 17.886719 10.273438 18.195312 9.960938 18.578125 9.960938 C 18.957031 9.960938 19.269531 10.273438 19.269531 10.652344 C 19.269531 10.855469 19.183594 11.039062 19.023438 11.171875 C 18.933594 11.25 18.894531 11.371094 18.910156 11.484375 C 18.929688 11.601562 19.007812 11.703125 19.113281 11.753906 C 19.125 11.757812 19.136719 11.765625 19.144531 11.769531 L 19.183594 11.792969 C 19.347656 11.882812 19.546875 11.828125 19.644531 11.675781 L 21.289062 9.0625 L 21.558594 9.238281 L 19.660156 12.253906 C 19.621094 12.3125 19.601562 12.386719 19.609375 12.457031 C 19.609375 12.464844 19.613281 12.496094 19.613281 12.503906 Z M 19.613281 12.503906 " fill-opacity="1" fill-rule="nonzero"/></g><g clip-path="url(#22e146b477)"><path fill="#000000" d="M 27.558594 24.125 L 27.210938 24.125 L 27.210938 21.964844 C 27.210938 21.089844 26.597656 20.355469 25.773438 20.175781 C 25.835938 20.015625 25.867188 19.84375 25.867188 19.671875 C 25.867188 18.890625 25.230469 18.25 24.449219 18.25 C 23.664062 18.25 23.027344 18.890625 23.027344 19.671875 C 23.027344 19.84375 23.0625 20.015625 23.121094 20.175781 C 22.300781 20.355469 21.6875 21.089844 21.6875 21.964844 L 21.6875 24.125 L 21.289062 24.125 C 20.554688 24.125 19.957031 24.71875 19.957031 25.453125 L 19.957031 28.613281 C 19.957031 28.804688 20.113281 28.957031 20.304688 28.957031 L 21.339844 28.957031 C 21.53125 28.957031 21.6875 28.804688 21.6875 28.613281 L 21.6875 26.195312 L 22.722656 26.195312 L 22.722656 28.613281 C 22.722656 28.804688 22.875 28.957031 23.066406 28.957031 L 25.792969 28.957031 C 25.984375 28.957031 26.136719 28.804688 26.136719 28.613281 L 26.136719 26.195312 L 27.210938 26.195312 L 27.210938 28.613281 C 27.210938 28.804688 27.367188 28.957031 27.558594 28.957031 L 28.59375 28.957031 C 28.785156 28.957031 28.9375 28.804688 28.9375 28.613281 L 28.9375 25.503906 C 28.9375 24.742188 28.320312 24.125 27.558594 24.125 Z M 22.375 21.964844 C 22.375 21.335938 22.886719 20.824219 23.519531 20.824219 L 23.746094 20.824219 C 23.890625 20.824219 24.019531 20.734375 24.070312 20.597656 C 24.121094 20.464844 24.082031 20.3125 23.972656 20.21875 C 23.808594 20.074219 23.71875 19.882812 23.71875 19.671875 C 23.71875 19.269531 24.046875 18.941406 24.449219 18.941406 C 24.851562 18.941406 25.179688 19.269531 25.179688 19.671875 C 25.179688 19.882812 25.089844 20.074219 24.925781 20.21875 C 24.816406 20.3125 24.777344 20.464844 24.828125 20.597656 C 24.878906 20.734375 25.007812 20.824219 25.152344 20.824219 L 25.378906 20.824219 C 26.007812 20.824219 26.523438 21.335938 26.523438 21.964844 L 26.523438 24.125 L 26.136719 24.125 L 26.136719 21.550781 L 25.445312 21.550781 L 25.445312 24.125 L 23.453125 24.125 L 23.453125 21.550781 L 22.761719 21.550781 L 22.761719 24.125 L 22.375 24.125 Z M 24.105469 28.269531 L 23.414062 28.269531 L 23.414062 26.195312 L 24.105469 26.195312 Z M 25.445312 28.269531 L 24.792969 28.269531 L 24.792969 26.195312 L 25.445312 26.195312 Z M 28.25 28.269531 L 27.902344 28.269531 L 27.902344 25.851562 C 27.902344 25.660156 27.75 25.503906 27.558594 25.503906 L 21.339844 25.503906 C 21.148438 25.503906 20.996094 25.660156 20.996094 25.851562 L 20.996094 28.269531 L 20.648438 28.269531 L 20.648438 25.453125 C 20.648438 25.101562 20.9375 24.8125 21.289062 24.8125 L 27.558594 24.8125 C 27.9375 24.8125 28.25 25.125 28.25 25.503906 Z M 28.25 28.269531 " fill-opacity="1" fill-rule="nonzero"/></g><g clip-path="url(#db9e5012b5)"><path fill="#000000" d="M 8.5625 21.707031 L 9.25 21.707031 L 9.25 24.851562 C 8.824219 25.289062 8.5625 25.882812 8.5625 26.542969 C 8.5625 27.875 9.644531 28.957031 10.980469 28.957031 C 12.3125 28.957031 13.394531 27.875 13.394531 26.542969 C 13.394531 25.863281 13.117188 25.253906 12.667969 24.8125 L 13.144531 24.8125 C 13.472656 24.8125 13.742188 25.082031 13.742188 25.410156 L 13.742188 28.269531 C 13.742188 28.460938 13.894531 28.613281 14.085938 28.613281 L 15.46875 28.613281 C 15.660156 28.613281 15.8125 28.460938 15.8125 28.269531 L 15.8125 25.160156 C 15.8125 23.945312 14.910156 22.933594 13.742188 22.765625 L 13.742188 19.753906 C 13.742188 19.34375 13.527344 18.984375 13.207031 18.777344 C 13.375 18.488281 13.4375 18.144531 13.367188 17.796875 C 13.257812 17.253906 12.816406 16.820312 12.269531 16.71875 C 11.859375 16.644531 11.445312 16.753906 11.128906 17.019531 C 10.8125 17.28125 10.632812 17.667969 10.632812 18.078125 C 10.632812 18.328125 10.699219 18.570312 10.824219 18.777344 C 10.535156 18.960938 10.332031 19.273438 10.296875 19.632812 L 8.5625 19.632812 C 8.371094 19.632812 8.214844 19.789062 8.214844 19.980469 L 8.214844 21.359375 C 8.214844 21.550781 8.371094 21.707031 8.5625 21.707031 Z M 12.707031 26.542969 C 12.707031 27.492188 11.929688 28.269531 10.980469 28.269531 C 10.027344 28.269531 9.25 27.492188 9.25 26.542969 C 9.25 25.589844 10.027344 24.8125 10.980469 24.8125 C 11.929688 24.8125 12.707031 25.589844 12.707031 26.542969 Z M 10.980469 19.753906 C 10.980469 19.496094 11.1875 19.289062 11.445312 19.289062 C 11.597656 19.289062 11.730469 19.1875 11.773438 19.042969 C 11.816406 18.894531 11.761719 18.738281 11.632812 18.65625 C 11.441406 18.527344 11.324219 18.3125 11.324219 18.078125 C 11.324219 17.875 11.414062 17.679688 11.574219 17.546875 C 11.734375 17.414062 11.9375 17.363281 12.148438 17.398438 C 12.414062 17.449219 12.636719 17.667969 12.691406 17.933594 C 12.75 18.21875 12.636719 18.496094 12.394531 18.65625 C 12.269531 18.738281 12.210938 18.894531 12.257812 19.042969 C 12.300781 19.1875 12.433594 19.289062 12.585938 19.289062 C 12.84375 19.289062 13.050781 19.496094 13.050781 19.753906 L 13.050781 23.085938 C 13.050781 23.277344 13.207031 23.433594 13.394531 23.433594 C 14.347656 23.433594 15.125 24.207031 15.125 25.160156 L 15.125 27.921875 L 14.433594 27.921875 L 14.433594 25.410156 C 14.433594 24.699219 13.855469 24.125 13.144531 24.125 L 10.980469 24.125 Z M 8.90625 20.324219 L 10.289062 20.324219 L 10.289062 24.226562 C 10.167969 24.261719 10.054688 24.308594 9.941406 24.359375 L 9.941406 21.359375 C 9.941406 21.167969 9.789062 21.015625 9.597656 21.015625 L 8.90625 21.015625 Z M 8.90625 20.324219 " fill-opacity="1" fill-rule="nonzero"/></g><path fill="#000000" d="M 10.980469 27.578125 C 11.550781 27.578125 12.015625 27.113281 12.015625 26.542969 C 12.015625 25.96875 11.550781 25.503906 10.980469 25.503906 C 10.40625 25.503906 9.941406 25.96875 9.941406 26.542969 C 9.941406 27.113281 10.40625 27.578125 10.980469 27.578125 Z M 10.980469 26.195312 C 11.167969 26.195312 11.324219 26.351562 11.324219 26.542969 C 11.324219 26.730469 11.167969 26.886719 10.980469 26.886719 C 10.789062 26.886719 10.632812 26.730469 10.632812 26.542969 C 10.632812 26.351562 10.789062 26.195312 10.980469 26.195312 Z M 10.980469 26.195312 " fill-opacity="1" fill-rule="nonzero"/><g clip-path="url(#837e366fa2)"><path fill="#000000" d="M 8.914062 18.957031 L 9.601562 18.929688 C 9.597656 18.820312 9.597656 18.707031 9.597656 18.597656 C 9.597656 16.046875 10.6875 13.605469 12.589844 11.902344 L 12.128906 11.386719 C 10.082031 13.222656 8.90625 15.851562 8.90625 18.597656 C 8.90625 18.71875 8.910156 18.835938 8.914062 18.957031 Z M 8.914062 18.957031 " fill-opacity="1" fill-rule="nonzero"/></g><g clip-path="url(#3c453b4226)"><path fill="#000000" d="M 16.582031 27.355469 L 16.429688 28.027344 C 17.128906 28.1875 17.851562 28.269531 18.578125 28.269531 C 18.816406 28.269531 19.058594 28.257812 19.292969 28.242188 L 19.242188 27.554688 C 18.363281 27.617188 17.449219 27.550781 16.582031 27.355469 Z M 16.582031 27.355469 " fill-opacity="1" fill-rule="nonzero"/></g><g clip-path="url(#0130898aba)"><path fill="#000000" d="M 28.082031 20.386719 C 28.191406 19.800781 28.25 19.199219 28.25 18.597656 C 28.25 15.851562 27.074219 13.222656 25.023438 11.386719 L 24.5625 11.902344 C 26.464844 13.605469 27.558594 16.046875 27.558594 18.597656 C 27.558594 19.15625 27.507812 19.714844 27.402344 20.261719 Z M 28.082031 20.386719 " fill-opacity="1" fill-rule="nonzero"/></g><path fill="#000000" d="M 13.742188 12.726562 L 13.742188 10.652344 C 13.742188 10.460938 13.585938 10.308594 13.394531 10.308594 L 11.324219 10.308594 L 11.324219 11 L 13.050781 11 L 13.050781 12.726562 Z M 13.742188 12.726562 " fill-opacity="1" fill-rule="nonzero"/><path fill="#000000" d="M 23.414062 10.652344 L 23.414062 12.726562 L 24.105469 12.726562 L 24.105469 11 L 25.832031 11 L 25.832031 10.308594 L 23.757812 10.308594 C 23.566406 10.308594 23.414062 10.460938 23.414062 10.652344 Z M 23.414062 10.652344 " fill-opacity="1" fill-rule="nonzero"/></svg>