<svg xmlns="http://www.w3.org/2000/svg" xmlns:xlink="http://www.w3.org/1999/xlink" width="50" zoomAndPan="magnify" viewBox="0 0 37.5 40.5" height="54" preserveAspectRatio="xMidYMid meet" version="1.0"><defs><clipPath id="0e2a46a2c3"><path d="M 0 0.0195312 L 37.007812 0.0195312 L 37.007812 39.988281 L 0 39.988281 Z M 0 0.0195312 " clip-rule="nonzero"/></clipPath><clipPath id="c8fd02d661"><path d="M 0 0.0195312 L 37.007812 0.0195312 L 37.007812 37.027344 L 0 37.027344 Z M 0 0.0195312 " clip-rule="nonzero"/></clipPath><clipPath id="96cfb2ce57"><path d="M 9.113281 9.4375 L 27.617188 9.4375 L 27.617188 27.941406 L 9.113281 27.941406 Z M 9.113281 9.4375 " clip-rule="nonzero"/></clipPath></defs><g clip-path="url(#0e2a46a2c3)"><path fill="#ffffff" d="M 0 0.0195312 L 37.007812 0.0195312 L 37.007812 39.988281 L 0 39.988281 Z M 0 0.0195312 " fill-opacity="1" fill-rule="nonzero"/><path fill="#ffffff" d="M 0 0.0195312 L 37.007812 0.0195312 L 37.007812 39.988281 L 0 39.988281 Z M 0 0.0195312 " fill-opacity="1" fill-rule="nonzero"/></g><g clip-path="url(#c8fd02d661)"><path fill="#9cd6c9" d="M 18.503906 0.0195312 C 8.296875 0.0195312 0 8.324219 0 18.523438 C 0 28.730469 8.296875 37.027344 18.503906 37.027344 C 28.703125 37.027344 37.007812 28.730469 37.007812 18.523438 C 37.007812 8.324219 28.703125 0.0195312 18.503906 0.0195312 Z M 18.503906 35.582031 C 9.097656 35.582031 1.441406 27.929688 1.441406 18.523438 C 1.441406 9.117188 9.097656 1.464844 18.503906 1.464844 C 27.910156 1.464844 35.5625 9.117188 35.5625 18.523438 C 35.5625 27.929688 27.910156 35.582031 18.503906 35.582031 Z M 18.503906 35.582031 " fill-opacity="1" fill-rule="nonzero"/></g><path fill="#9cd6c9" d="M 18.503906 2.425781 C 9.628906 2.425781 2.40625 9.648438 2.40625 18.523438 C 2.40625 27.398438 9.628906 34.621094 18.503906 34.621094 C 27.378906 34.621094 34.601562 27.398438 34.601562 18.523438 C 34.601562 9.648438 27.378906 2.425781 18.503906 2.425781 Z M 18.503906 2.425781 " fill-opacity="1" fill-rule="nonzero"/><g clip-path="url(#96cfb2ce57)"><path fill="#282828" d="M 27.605469 25.257812 C 27.605469 25.304688 27.605469 25.339844 27.605469 25.390625 L 27.605469 27.691406 C 27.605469 27.820312 27.5 27.929688 27.371094 27.929688 C 27.246094 27.929688 27.140625 27.820312 27.140625 27.691406 L 27.140625 25.390625 C 27.140625 25.390625 27.140625 25.375 27.140625 25.375 C 27.140625 25.339844 27.140625 25.304688 27.140625 25.269531 C 27.140625 24.585938 26.640625 23.988281 25.957031 23.84375 L 25.050781 23.664062 C 24.820312 23.601562 24.613281 23.554688 24.367188 23.507812 C 23.113281 23.230469 21.699219 22.921875 20.851562 21.699219 C 20.679688 21.433594 20.527344 21.160156 20.421875 20.859375 L 19.171875 21.984375 C 19.054688 22.09375 18.902344 22.140625 18.753906 22.140625 C 18.613281 22.140625 18.476562 22.09375 18.359375 21.984375 C 18.242188 22.082031 18.105469 22.140625 17.964844 22.140625 C 17.8125 22.140625 17.675781 22.09375 17.546875 21.984375 L 16.304688 20.871094 C 16.203125 21.160156 16.0625 21.433594 15.886719 21.699219 C 15.042969 22.921875 13.625 23.230469 12.375 23.507812 C 12.140625 23.554688 11.921875 23.601562 11.699219 23.664062 L 10.785156 23.855469 C 10.089844 23.976562 9.589844 24.574219 9.589844 25.269531 C 9.589844 25.304688 9.589844 25.339844 9.589844 25.375 C 9.589844 25.375 9.589844 25.390625 9.589844 25.390625 L 9.589844 27.691406 C 9.589844 27.820312 9.484375 27.929688 9.355469 27.929688 C 9.230469 27.929688 9.125 27.820312 9.125 27.691406 L 9.125 25.390625 C 9.125 25.339844 9.125 25.304688 9.125 25.257812 C 9.136719 24.347656 9.785156 23.542969 10.691406 23.363281 L 11.597656 23.183594 C 11.816406 23.136719 12.046875 23.074219 12.269531 23.027344 C 13.5 22.765625 14.761719 22.488281 15.492188 21.410156 C 15.691406 21.132812 15.832031 20.824219 15.921875 20.488281 C 15.898438 20.402344 15.910156 20.320312 15.96875 20.246094 C 16.050781 20.152344 16.203125 20.140625 16.292969 20.222656 L 17.847656 21.613281 C 17.917969 21.671875 18.011719 21.671875 18.070312 21.613281 C 18.136719 21.554688 18.136719 21.457031 18.09375 21.386719 L 16.5625 19.277344 C 16.269531 18.882812 15.921875 18.546875 15.503906 18.28125 L 15.121094 18.03125 C 15.097656 18.019531 15.074219 17.996094 15.054688 17.96875 L 11.898438 13.378906 C 11.828125 13.273438 11.851562 13.128906 11.957031 13.046875 C 12.058594 12.972656 12.199219 12.996094 12.28125 13.105469 L 15.402344 17.648438 L 15.75 17.875 C 16.214844 18.175781 16.605469 18.546875 16.933594 18.988281 L 17.070312 19.179688 C 17.046875 19.074219 17.105469 18.964844 17.199219 18.917969 C 17.699219 18.691406 17.929688 18.28125 18 18.164062 L 18 13.117188 C 17.964844 13.152344 17.941406 13.175781 17.90625 13.214844 C 17.699219 13.441406 17.535156 13.703125 17.441406 13.980469 C 17.363281 14.195312 17.328125 14.554688 17.269531 15.285156 C 17.257812 15.453125 17.246094 15.609375 17.234375 15.742188 C 17.1875 16.304688 17.164062 16.605469 16.988281 17 C 16.886719 17.238281 16.734375 17.457031 16.5625 17.648438 C 16.515625 17.695312 16.457031 17.730469 16.386719 17.730469 C 16.328125 17.730469 16.269531 17.707031 16.234375 17.671875 C 16.144531 17.585938 16.132812 17.429688 16.222656 17.335938 C 16.363281 17.167969 16.480469 16.988281 16.574219 16.796875 C 16.710938 16.484375 16.734375 16.234375 16.78125 15.707031 C 16.792969 15.574219 16.804688 15.417969 16.816406 15.238281 C 16.886719 14.507812 16.921875 14.101562 17.023438 13.8125 C 17.152344 13.476562 17.339844 13.164062 17.59375 12.890625 C 17.765625 12.710938 17.964844 12.480469 18.023438 12.386719 L 18.023438 11.8125 C 18.023438 11.785156 18.023438 11.773438 18.035156 11.75 C 17.976562 11.8125 17.917969 11.859375 17.847656 11.90625 C 16.921875 12.578125 16.445312 13.585938 16.433594 14.890625 C 16.433594 16.554688 15.367188 16.941406 15.320312 16.953125 C 15.296875 16.964844 15.273438 16.964844 15.25 16.964844 C 15.15625 16.964844 15.066406 16.902344 15.03125 16.796875 C 14.984375 16.675781 15.054688 16.53125 15.179688 16.496094 C 15.214844 16.484375 15.980469 16.183594 15.980469 14.890625 C 15.980469 13.441406 16.539062 12.277344 17.59375 11.511719 C 18.3125 10.984375 17.988281 10.121094 17.976562 10.074219 C 17.964844 10.050781 17.953125 10.023438 17.929688 10 C 17.929688 10 17.894531 9.976562 17.835938 9.964844 C 17.734375 9.953125 16.652344 10.050781 15.832031 10.78125 C 14.367188 12.050781 14.496094 14.601562 14.542969 15.105469 C 14.554688 15.238281 14.460938 15.359375 14.332031 15.371094 C 14.320312 15.371094 14.320312 15.371094 14.3125 15.371094 C 14.195312 15.371094 14.089844 15.273438 14.078125 15.15625 C 14.019531 14.386719 13.9375 11.800781 15.492188 10.410156 C 16.457031 9.558594 17.699219 9.4375 17.894531 9.484375 C 18.011719 9.511719 18.105469 9.570312 18.148438 9.605469 C 18.195312 9.570312 18.289062 9.511719 18.40625 9.484375 C 18.601562 9.449219 19.84375 9.558594 20.804688 10.410156 C 22.371094 11.800781 22.292969 14.386719 22.234375 15.140625 C 22.222656 15.273438 22.105469 15.371094 21.976562 15.359375 C 21.851562 15.347656 21.757812 15.226562 21.769531 15.09375 C 21.816406 14.589844 21.945312 12.027344 20.515625 10.757812 C 19.691406 10.039062 18.613281 9.941406 18.5 9.953125 C 18.453125 9.964844 18.417969 9.988281 18.417969 10 C 18.417969 10 18.417969 10 18.40625 10.011719 C 18.519531 10.398438 18.566406 11.054688 18.160156 11.582031 C 18.183594 11.570312 18.195312 11.570312 18.21875 11.570312 C 18.277344 11.570312 19.679688 11.511719 20.421875 13.261719 C 20.46875 13.378906 20.421875 13.523438 20.308594 13.574219 C 20.191406 13.621094 20.050781 13.574219 20.007812 13.453125 C 19.554688 12.386719 18.835938 12.132812 18.476562 12.074219 L 18.476562 13.703125 C 18.507812 13.871094 18.824219 15.128906 19.867188 15.621094 C 21.199219 16.246094 21.269531 16.988281 21.269531 17.070312 C 21.269531 17.203125 21.179688 17.3125 21.050781 17.324219 C 21.050781 17.324219 21.039062 17.324219 21.039062 17.324219 C 20.910156 17.324219 20.804688 17.226562 20.804688 17.097656 C 20.804688 17.097656 20.738281 16.554688 19.667969 16.066406 C 19.101562 15.800781 18.730469 15.371094 18.476562 14.949219 L 18.476562 18.199219 C 18.542969 18.332031 18.789062 18.726562 19.273438 18.953125 C 19.390625 19.011719 19.449219 19.144531 19.390625 19.265625 C 19.355469 19.347656 19.265625 19.410156 19.183594 19.410156 C 19.148438 19.410156 19.113281 19.398438 19.089844 19.382812 C 18.683594 19.191406 18.417969 18.917969 18.253906 18.691406 C 18.09375 18.917969 17.824219 19.191406 17.417969 19.382812 C 17.382812 19.398438 17.363281 19.410156 17.328125 19.410156 C 17.292969 19.410156 17.257812 19.398438 17.222656 19.382812 L 18.382812 20.992188 L 19.808594 19.011719 C 20.132812 18.570312 20.527344 18.1875 20.992188 17.898438 L 21.328125 17.683594 L 23.984375 13.152344 C 24.054688 13.046875 24.195312 13.007812 24.296875 13.070312 C 24.402344 13.140625 24.4375 13.285156 24.378906 13.394531 L 21.6875 17.96875 C 21.664062 18.007812 21.640625 18.03125 21.605469 18.054688 L 21.222656 18.304688 C 20.816406 18.570312 20.457031 18.90625 20.167969 19.300781 L 18.625 21.398438 C 18.578125 21.46875 18.578125 21.566406 18.648438 21.625 C 18.707031 21.6875 18.8125 21.6875 18.871094 21.625 L 20.421875 20.234375 C 20.515625 20.152344 20.667969 20.164062 20.75 20.257812 C 20.796875 20.320312 20.816406 20.402344 20.796875 20.476562 C 20.886719 20.8125 21.039062 21.132812 21.234375 21.421875 C 21.976562 22.488281 23.242188 22.765625 24.460938 23.039062 C 24.679688 23.085938 24.914062 23.136719 25.144531 23.195312 L 26.039062 23.375 C 26.941406 23.554688 27.59375 24.347656 27.605469 25.257812 Z M 14.320312 22.308594 C 14.332031 22.308594 14.34375 22.308594 14.355469 22.308594 C 14.472656 22.308594 14.566406 22.226562 14.589844 22.105469 L 14.671875 21.492188 C 14.671875 21.46875 14.671875 21.433594 14.671875 21.410156 L 14.230469 19.492188 C 14.21875 19.445312 14.195312 19.398438 14.160156 19.371094 L 10.425781 16.015625 C 10.332031 15.933594 10.179688 15.945312 10.101562 16.042969 C 10.019531 16.136719 10.03125 16.292969 10.121094 16.375 L 13.800781 19.671875 L 14.207031 21.457031 L 14.125 22.035156 C 14.101562 22.164062 14.195312 22.285156 14.320312 22.308594 Z M 26.144531 16.363281 C 26.234375 16.269531 26.234375 16.125 26.144531 16.027344 C 26.050781 15.933594 25.910156 15.933594 25.816406 16.027344 L 22.546875 19.371094 C 22.511719 19.410156 22.5 19.445312 22.488281 19.480469 L 22.035156 21.386719 C 22.023438 21.410156 22.023438 21.445312 22.035156 21.46875 L 22.117188 22.082031 C 22.128906 22.199219 22.234375 22.285156 22.347656 22.285156 C 22.359375 22.285156 22.371094 22.285156 22.382812 22.285156 C 22.511719 22.273438 22.605469 22.152344 22.582031 22.019531 L 22.511719 21.457031 L 22.941406 19.660156 Z M 17.800781 10.886719 C 17.929688 10.851562 18 10.71875 17.976562 10.601562 C 17.941406 10.46875 17.8125 10.398438 17.699219 10.421875 C 17.246094 10.527344 16.421875 10.839844 15.785156 11.691406 C 15.03125 12.6875 15.042969 13.789062 15.074219 14.207031 C 15.085938 14.328125 15.191406 14.421875 15.308594 14.421875 C 15.320312 14.421875 15.320312 14.421875 15.332031 14.421875 C 15.457031 14.410156 15.550781 14.292969 15.539062 14.160156 C 15.503906 13.789062 15.503906 12.839844 16.15625 11.980469 C 16.699219 11.246094 17.417969 10.984375 17.800781 10.886719 Z M 19.796875 23.640625 C 19.773438 23.242188 19.625 22.894531 19.34375 22.644531 C 19.066406 22.394531 18.695312 22.261719 18.324219 22.273438 C 17.941406 22.296875 17.582031 22.464844 17.328125 22.765625 C 17.070312 23.050781 16.945312 23.433594 16.96875 23.832031 C 16.988281 24.226562 17.152344 24.585938 17.441406 24.847656 C 17.535156 24.933594 17.6875 24.933594 17.765625 24.824219 C 17.847656 24.730469 17.847656 24.574219 17.746094 24.488281 C 17.558594 24.308594 17.441406 24.070312 17.417969 23.808594 C 17.40625 23.542969 17.488281 23.28125 17.664062 23.085938 C 17.835938 22.882812 18.070312 22.777344 18.335938 22.765625 C 18.589844 22.753906 18.847656 22.835938 19.03125 23.015625 C 19.265625 23.230469 19.320312 23.496094 19.332031 23.675781 C 19.34375 24 19.242188 24.285156 19.113281 24.417969 C 18.949219 24.597656 18.730469 24.71875 18.507812 24.8125 C 18.464844 24.835938 18.40625 24.863281 18.359375 24.886719 C 17.976562 25.054688 17.535156 25.246094 17.28125 25.675781 C 16.96875 26.203125 16.957031 26.863281 17.234375 27.332031 C 17.441406 27.675781 17.753906 27.84375 17.988281 27.929688 C 18.011719 27.941406 18.035156 27.941406 18.070312 27.941406 C 18.160156 27.941406 18.253906 27.882812 18.289062 27.785156 C 18.335938 27.664062 18.265625 27.523438 18.148438 27.472656 C 17.988281 27.414062 17.777344 27.304688 17.640625 27.078125 C 17.417969 26.707031 17.5 26.238281 17.6875 25.929688 C 17.871094 25.628906 18.195312 25.484375 18.542969 25.328125 C 18.601562 25.304688 18.648438 25.28125 18.707031 25.257812 C 18.972656 25.136719 19.253906 24.992188 19.472656 24.742188 C 19.679688 24.464844 19.820312 24.046875 19.796875 23.640625 Z M 18.347656 24.394531 C 18.195312 24.394531 18.058594 24.347656 17.929688 24.226562 C 17.675781 23.988281 17.652344 23.578125 17.882812 23.316406 C 18.117188 23.050781 18.507812 23.027344 18.765625 23.265625 C 19.019531 23.507812 19.042969 23.914062 18.8125 24.179688 C 18.695312 24.320312 18.519531 24.394531 18.347656 24.394531 Z M 18.453125 23.628906 C 18.417969 23.601562 18.382812 23.589844 18.347656 23.589844 C 18.300781 23.589844 18.253906 23.613281 18.230469 23.652344 C 18.171875 23.722656 18.171875 23.820312 18.242188 23.878906 C 18.3125 23.9375 18.40625 23.9375 18.464844 23.867188 C 18.519531 23.792969 18.519531 23.6875 18.453125 23.628906 Z M 18.429688 27.101562 C 18.277344 27.101562 18.128906 27.042969 18 26.933594 C 17.734375 26.695312 17.710938 26.277344 17.953125 26 C 18.183594 25.722656 18.589844 25.699219 18.859375 25.953125 C 18.984375 26.070312 19.066406 26.226562 19.066406 26.40625 C 19.078125 26.585938 19.019531 26.753906 18.902344 26.886719 C 18.777344 27.03125 18.601562 27.101562 18.429688 27.101562 Z M 18.601562 26.429688 C 18.601562 26.382812 18.578125 26.335938 18.542969 26.3125 C 18.507812 26.277344 18.476562 26.261719 18.429688 26.261719 C 18.382812 26.261719 18.335938 26.289062 18.300781 26.324219 C 18.230469 26.394531 18.242188 26.515625 18.3125 26.574219 C 18.382812 26.648438 18.5 26.636719 18.554688 26.5625 C 18.589844 26.527344 18.601562 26.480469 18.601562 26.429688 Z M 18.601562 26.429688 " fill-opacity="1" fill-rule="nonzero"/></g></svg>