<svg xmlns="http://www.w3.org/2000/svg" xmlns:xlink="http://www.w3.org/1999/xlink" width="50" zoomAndPan="magnify" viewBox="0 0 37.5 40.5" height="54" preserveAspectRatio="xMidYMid meet" version="1.0"><defs><clipPath id="8ed831bf05"><path d="M 0 0.0195312 L 37.007812 0.0195312 L 37.007812 39.988281 L 0 39.988281 Z M 0 0.0195312 " clip-rule="nonzero"/></clipPath><clipPath id="e5c12b9b82"><path d="M 0 0.0195312 L 37.007812 0.0195312 L 37.007812 37.027344 L 0 37.027344 Z M 0 0.0195312 " clip-rule="nonzero"/></clipPath><clipPath id="be93307de6"><path d="M 9.777344 9.191406 L 27.539062 9.191406 L 27.539062 27.691406 L 9.777344 27.691406 Z M 9.777344 9.191406 " clip-rule="nonzero"/></clipPath></defs><g clip-path="url(#8ed831bf05)"><path fill="#ffffff" d="M 0 0.0195312 L 37.007812 0.0195312 L 37.007812 39.988281 L 0 39.988281 Z M 0 0.0195312 " fill-opacity="1" fill-rule="nonzero"/><path fill="#ffffff" d="M 0 0.0195312 L 37.007812 0.0195312 L 37.007812 39.988281 L 0 39.988281 Z M 0 0.0195312 " fill-opacity="1" fill-rule="nonzero"/></g><g clip-path="url(#e5c12b9b82)"><path fill="#9cd6c9" d="M 18.503906 0.0195312 C 8.296875 0.0195312 0 8.324219 0 18.523438 C 0 28.730469 8.296875 37.027344 18.503906 37.027344 C 28.703125 37.027344 37.007812 28.730469 37.007812 18.523438 C 37.007812 8.324219 28.703125 0.0195312 18.503906 0.0195312 Z M 18.503906 35.582031 C 9.097656 35.582031 1.441406 27.929688 1.441406 18.523438 C 1.441406 9.117188 9.097656 1.464844 18.503906 1.464844 C 27.910156 1.464844 35.5625 9.117188 35.5625 18.523438 C 35.5625 27.929688 27.910156 35.582031 18.503906 35.582031 Z M 18.503906 35.582031 " fill-opacity="1" fill-rule="nonzero"/></g><path fill="#9cd6c9" d="M 18.503906 2.425781 C 9.628906 2.425781 2.40625 9.648438 2.40625 18.523438 C 2.40625 27.398438 9.628906 34.621094 18.503906 34.621094 C 27.378906 34.621094 34.601562 27.398438 34.601562 18.523438 C 34.601562 9.648438 27.378906 2.425781 18.503906 2.425781 Z M 18.503906 2.425781 " fill-opacity="1" fill-rule="nonzero"/><g clip-path="url(#be93307de6)"><path fill="#000000" d="M 27.292969 20.515625 C 27.246094 20.488281 27.21875 20.488281 27.171875 20.464844 C 27.464844 20.058594 27.539062 19.722656 27.492188 19.101562 C 27.492188 19.003906 27.417969 18.910156 27.292969 18.910156 C 25.792969 18.597656 24.488281 17.804688 23.109375 16.320312 C 22.398438 15.53125 21.070312 16.273438 21.464844 17.351562 C 21.289062 17.519531 21.21875 18.238281 21.167969 18.453125 C 20.824219 18.40625 20.578125 18.644531 20.503906 18.910156 L 20.035156 20.875 C 20.011719 20.847656 19.988281 20.847656 19.9375 20.824219 L 19.347656 20.707031 C 19.003906 20.585938 18.707031 20.464844 18.4375 20.296875 C 18.3125 20.226562 18.140625 20.25 18.042969 20.394531 C 17.820312 20.824219 18.585938 20.96875 18.878906 21.113281 L 17.746094 23.558594 C 17.574219 23.917969 17.574219 24.324219 17.675781 24.660156 C 17.574219 24.96875 17.035156 24.898438 16.34375 24.203125 C 15.433594 23.316406 14.132812 22.71875 13.097656 22.527344 C 13.148438 22.480469 13.171875 22.429688 13.222656 22.359375 L 14.082031 20.777344 C 14.378906 20.226562 14.328125 19.722656 14.105469 19.21875 C 14.941406 18.789062 15.140625 18.046875 14.550781 17.183594 C 13.171875 14.90625 15.089844 13.972656 16.492188 15.9375 C 16.566406 16.035156 16.691406 16.082031 16.8125 16.035156 L 17.648438 15.722656 C 17.773438 15.675781 17.820312 15.578125 17.820312 15.457031 C 17.796875 14.308594 18.3125 12.941406 19.101562 12.773438 L 21.042969 12.4375 C 21.363281 13.015625 21.636719 13.636719 21.5625 14.332031 C 21.535156 14.714844 21.511719 15.148438 21.78125 15.578125 C 21.980469 15.890625 22.445312 15.601562 22.25 15.289062 C 21.929688 14.789062 22.226562 14.1875 22.101562 13.636719 C 22.003906 13.132812 21.832031 12.679688 21.585938 12.246094 C 22.519531 11.746094 22.792969 10.234375 22.273438 9.394531 C 22.199219 9.277344 22.027344 9.226562 21.90625 9.300781 C 20.429688 10.066406 19.46875 9.539062 18.066406 9.492188 C 15.1875 9.394531 12.628906 10.402344 11.671875 12.964844 C 11.082031 14.691406 11.574219 16.917969 12.875 18.332031 C 13.589844 19.21875 14.058594 19.84375 13.664062 20.539062 L 12.804688 22.09375 C 12.53125 22.550781 12.238281 22.503906 11.964844 22.957031 L 11.425781 23.84375 C 10.785156 24.898438 10.097656 25.882812 9.800781 27.175781 C 9.777344 27.320312 9.875 27.460938 10.023438 27.511719 C 10.171875 27.535156 10.316406 27.4375 10.367188 27.292969 C 10.734375 25.761719 11.71875 24.5625 12.457031 23.246094 C 12.53125 23.148438 12.582031 23.078125 12.65625 23.003906 C 13.589844 23.054688 15.066406 23.652344 16.027344 24.585938 C 16.8125 25.355469 17.5 25.59375 18.09375 25.136719 C 19.050781 25.976562 19.640625 26.625 20.035156 27.34375 C 20.207031 27.652344 20.699219 27.390625 20.527344 27.078125 C 20.109375 26.3125 19.46875 25.59375 18.460938 24.730469 C 18.386719 24.683594 18.339844 24.585938 18.3125 24.515625 C 18.3125 24.46875 18.289062 24.417969 18.265625 24.394531 C 18.214844 24.203125 18.238281 23.964844 18.339844 23.773438 L 19.46875 21.28125 L 19.863281 21.351562 C 19.886719 21.351562 19.9375 21.351562 19.960938 21.351562 C 19.863281 21.785156 19.886719 22.167969 20.035156 22.550781 L 20.773438 25.066406 L 20.921875 27.222656 C 20.945312 27.582031 21.414062 27.605469 21.390625 27.199219 L 21.242188 24.96875 L 20.503906 22.382812 C 20.378906 22.023438 20.355469 21.832031 20.429688 21.472656 L 20.996094 18.957031 C 21.042969 18.789062 21.265625 18.765625 21.363281 18.859375 C 21.316406 19.21875 21.191406 19.484375 21.167969 19.867188 L 21.144531 21.496094 C 21.144531 21.566406 21.191406 21.617188 21.265625 21.617188 C 21.339844 21.617188 21.390625 21.566406 21.390625 21.496094 L 21.464844 19.867188 C 21.464844 19.601562 21.535156 19.410156 21.585938 19.148438 L 21.832031 17.664062 C 21.90625 17.351562 22.421875 17.445312 22.398438 17.757812 L 22.324219 19.171875 L 22.128906 19.988281 L 22.101562 21.496094 C 22.101562 21.640625 22.324219 21.664062 22.347656 21.519531 L 22.421875 20.035156 L 22.816406 18.332031 C 22.890625 18.070312 23.257812 18.117188 23.257812 18.40625 L 23.136719 20.179688 L 23.285156 21.566406 C 23.285156 21.710938 23.53125 21.6875 23.53125 21.542969 L 23.457031 20.15625 L 23.457031 19.148438 C 23.601562 19.125 23.75 19.195312 23.800781 19.386719 L 24.195312 21.734375 C 24.242188 21.976562 24.269531 22.214844 24.21875 22.429688 L 23.726562 24.996094 L 23.652344 27.222656 C 23.628906 27.628906 24.09375 27.582031 24.121094 27.222656 L 24.195312 25.042969 L 24.660156 22.671875 C 25.25 22.621094 25.472656 22.3125 25.621094 22.09375 C 25.742188 21.902344 25.769531 21.878906 25.941406 21.925781 C 26.800781 22.144531 27.539062 21.566406 27.464844 20.683594 C 27.464844 20.609375 27.390625 20.539062 27.292969 20.515625 M 13.023438 17.664062 C 11.277344 15.410156 11.769531 12.054688 14.425781 10.761719 C 15.3125 10.28125 16.765625 10.019531 18.09375 10.066406 C 19.496094 10.113281 20.453125 10.617188 21.953125 9.921875 C 22.152344 10.570312 22.003906 11.578125 21.191406 11.886719 L 19.050781 12.269531 C 17.894531 12.511719 17.378906 14.140625 17.328125 15.316406 L 16.863281 15.480469 C 15.015625 13.132812 12.433594 14.761719 14.132812 17.496094 C 14.523438 18.140625 14.5 18.453125 13.886719 18.789062 C 13.640625 18.359375 13.320312 18.023438 13.023438 17.664062 M 26.753906 21.402344 C 26.582031 21.542969 26.308594 21.59375 26.039062 21.519531 C 25.546875 21.402344 25.351562 21.6875 25.203125 21.878906 C 25.078125 22.046875 24.980469 22.191406 24.710938 22.238281 C 24.734375 21.855469 24.292969 19.746094 24.242188 19.339844 C 24.195312 19.003906 23.921875 18.859375 23.652344 18.789062 C 23.652344 18.523438 23.675781 18.191406 23.480469 17.972656 C 23.257812 17.78125 23.085938 17.757812 22.816406 17.804688 C 22.816406 17.277344 22.347656 17.015625 21.90625 17.085938 C 21.808594 16.535156 22.375 16.199219 22.792969 16.609375 C 24.195312 18.117188 25.523438 18.957031 27.046875 19.292969 C 27.074219 19.769531 26.972656 19.988281 26.703125 20.296875 C 26.1875 20.105469 25.695312 19.84375 25.226562 19.386719 C 25.128906 19.292969 24.980469 19.292969 24.90625 19.386719 C 24.808594 19.484375 24.808594 19.628906 24.90625 19.699219 C 25.597656 20.347656 26.285156 20.632812 27 20.875 C 26.972656 21.113281 26.898438 21.28125 26.753906 21.402344 " fill-opacity="1" fill-rule="nonzero"/></g><path fill="#000000" d="M 19.886719 16.175781 C 19.789062 16.175781 19.691406 16.105469 19.667969 16.007812 C 19.617188 15.890625 19.691406 15.769531 19.816406 15.722656 L 20.527344 15.507812 L 19.816406 15.121094 C 19.691406 15.050781 19.667969 14.929688 19.714844 14.8125 C 19.789062 14.691406 19.914062 14.667969 20.035156 14.714844 L 21.21875 15.363281 C 21.289062 15.410156 21.339844 15.480469 21.339844 15.578125 C 21.339844 15.675781 21.265625 15.746094 21.167969 15.769531 L 19.9375 16.152344 C 19.9375 16.175781 19.914062 16.175781 19.886719 16.175781 " fill-opacity="1" fill-rule="nonzero"/></svg>