<svg xmlns="http://www.w3.org/2000/svg" xmlns:xlink="http://www.w3.org/1999/xlink" width="50" zoomAndPan="magnify" viewBox="0 0 37.5 40.5" height="54" preserveAspectRatio="xMidYMid meet" version="1.0"><defs><clipPath id="f8d6b43e71"><path d="M 0 0.0195312 L 37.007812 0.0195312 L 37.007812 39.988281 L 0 39.988281 Z M 0 0.0195312 " clip-rule="nonzero"/></clipPath><clipPath id="ea924c9f50"><path d="M 0 0.0195312 L 37.007812 0.0195312 L 37.007812 37.027344 L 0 37.027344 Z M 0 0.0195312 " clip-rule="nonzero"/></clipPath><clipPath id="e4178bb836"><path d="M 8.632812 23 L 28.617188 23 L 28.617188 28.488281 L 8.632812 28.488281 Z M 8.632812 23 " clip-rule="nonzero"/></clipPath><clipPath id="c5a28b16c0"><path d="M 8.632812 27.222656 L 21.804688 27.222656 L 21.804688 28.488281 L 8.632812 28.488281 Z M 8.632812 27.222656 " clip-rule="nonzero"/></clipPath><clipPath id="e3c70c6937"><path d="M 13 11.476562 L 19 11.476562 L 19 17 L 13 17 Z M 13 11.476562 " clip-rule="nonzero"/></clipPath></defs><g clip-path="url(#f8d6b43e71)"><path fill="#ffffff" d="M 0 0.0195312 L 37.007812 0.0195312 L 37.007812 39.988281 L 0 39.988281 Z M 0 0.0195312 " fill-opacity="1" fill-rule="nonzero"/><path fill="#ffffff" d="M 0 0.0195312 L 37.007812 0.0195312 L 37.007812 39.988281 L 0 39.988281 Z M 0 0.0195312 " fill-opacity="1" fill-rule="nonzero"/></g><g clip-path="url(#ea924c9f50)"><path fill="#9cd6c9" d="M 18.503906 0.0195312 C 8.296875 0.0195312 0 8.324219 0 18.523438 C 0 28.730469 8.296875 37.027344 18.503906 37.027344 C 28.703125 37.027344 37.007812 28.730469 37.007812 18.523438 C 37.007812 8.324219 28.703125 0.0195312 18.503906 0.0195312 Z M 18.503906 35.582031 C 9.097656 35.582031 1.441406 27.929688 1.441406 18.523438 C 1.441406 9.117188 9.097656 1.464844 18.503906 1.464844 C 27.910156 1.464844 35.5625 9.117188 35.5625 18.523438 C 35.5625 27.929688 27.910156 35.582031 18.503906 35.582031 Z M 18.503906 35.582031 " fill-opacity="1" fill-rule="nonzero"/></g><path fill="#9cd6c9" d="M 18.503906 2.425781 C 9.628906 2.425781 2.40625 9.648438 2.40625 18.523438 C 2.40625 27.398438 9.628906 34.621094 18.503906 34.621094 C 27.378906 34.621094 34.601562 27.398438 34.601562 18.523438 C 34.601562 9.648438 27.378906 2.425781 18.503906 2.425781 Z M 18.503906 2.425781 " fill-opacity="1" fill-rule="nonzero"/><g clip-path="url(#e4178bb836)"><path fill="#040606" d="M 28.566406 27.269531 C 28.4375 26.699219 28.050781 26.386719 27.464844 26.386719 C 26.171875 26.386719 24.878906 26.382812 23.582031 26.390625 C 23.378906 26.390625 23.234375 26.339844 23.085938 26.191406 C 22.195312 25.285156 21.292969 24.390625 20.394531 23.488281 C 20.203125 23.289062 19.941406 23.183594 19.664062 23.191406 C 16.308594 23.191406 12.953125 23.191406 9.601562 23.191406 C 9.113281 23.191406 8.824219 23.40625 8.679688 23.863281 C 8.667969 23.890625 8.652344 23.917969 8.632812 23.941406 L 8.632812 26.289062 C 8.640625 26.296875 8.652344 26.308594 8.660156 26.316406 C 8.902344 26.941406 9.0625 27.046875 9.746094 27.046875 C 13.414062 27.046875 17.082031 27.046875 20.746094 27.042969 C 20.898438 27.035156 21.042969 27.09375 21.140625 27.203125 C 21.445312 27.523438 21.761719 27.824219 22.070312 28.136719 C 22.285156 28.355469 22.582031 28.480469 22.890625 28.472656 L 27.417969 28.472656 C 28.050781 28.472656 28.425781 28.175781 28.570312 27.570312 C 28.578125 27.539062 28.597656 27.511719 28.617188 27.488281 L 28.617188 27.371094 C 28.59375 27.339844 28.578125 27.304688 28.566406 27.269531 " fill-opacity="1" fill-rule="nonzero"/></g><g clip-path="url(#c5a28b16c0)"><path fill="#040606" d="M 20.484375 27.617188 C 16.820312 27.621094 13.160156 27.625 9.5 27.621094 C 9.183594 27.625 8.878906 27.523438 8.632812 27.332031 L 8.632812 28.488281 C 8.722656 28.484375 8.8125 28.476562 8.902344 28.476562 C 13.039062 28.476562 17.175781 28.480469 21.308594 28.484375 L 21.527344 28.484375 C 21.53125 28.460938 21.542969 28.433594 21.554688 28.414062 C 21.332031 28.207031 21.105469 28.003906 20.890625 27.789062 C 20.789062 27.675781 20.636719 27.609375 20.484375 27.617188 " fill-opacity="1" fill-rule="nonzero"/></g><path fill="#040606" d="M 14.433594 22.625 C 14.539062 22.625 14.644531 22.640625 14.691406 22.507812 C 14.890625 21.949219 15.277344 21.535156 15.730469 21.164062 C 16.125 20.84375 16.425781 20.464844 16.277344 19.894531 L 16.332031 19.875 C 16.441406 19.972656 16.558594 20.0625 16.65625 20.167969 C 17.175781 20.753906 17.851562 21.179688 18.609375 21.410156 C 19.3125 21.625 19.992188 21.925781 20.683594 22.175781 C 21.191406 22.359375 21.660156 22.140625 21.816406 21.667969 C 21.960938 21.234375 21.726562 20.804688 21.242188 20.617188 C 20.410156 20.304688 19.578125 20 18.75 19.675781 C 18.5625 19.605469 18.390625 19.503906 18.242188 19.371094 C 17.519531 18.703125 16.808594 18.023438 16.085938 17.359375 C 15.957031 17.238281 15.808594 17.113281 15.644531 17.058594 C 15.007812 16.847656 14.351562 16.710938 13.679688 16.726562 C 13.191406 16.738281 12.839844 16.929688 12.644531 17.414062 C 11.964844 19.105469 11.261719 20.792969 10.566406 22.476562 C 10.554688 22.527344 10.542969 22.578125 10.539062 22.632812 L 11.195312 22.632812 C 12.273438 22.632812 13.355469 22.625 14.433594 22.625 " fill-opacity="1" fill-rule="nonzero"/><path fill="#040606" d="M 24.511719 25.582031 C 25.167969 25.585938 25.796875 25.335938 26.265625 24.878906 C 26.734375 24.425781 27 23.804688 27.003906 23.15625 C 27.019531 21.75 25.792969 20.675781 24.550781 20.722656 C 23.300781 20.667969 22.074219 21.714844 22.074219 23.136719 C 22.070312 24.472656 23.175781 25.582031 24.511719 25.582031 " fill-opacity="1" fill-rule="nonzero"/><g clip-path="url(#e3c70c6937)"><path fill="#040606" d="M 16.300781 16.535156 C 17.148438 16.535156 17.933594 16.089844 18.359375 15.367188 C 18.785156 14.640625 18.789062 13.75 18.367188 13.023438 C 17.945312 12.296875 17.160156 11.847656 16.308594 11.84375 C 16.226562 11.84375 16.144531 11.847656 16.0625 11.859375 C 15.804688 11.625 15.394531 11.496094 15.066406 11.554688 C 14.464844 11.660156 14.105469 11.996094 14 12.566406 C 13.960938 12.761719 14.019531 12.996094 14.144531 13.199219 C 14.003906 13.507812 13.933594 13.835938 13.933594 14.171875 C 13.917969 15.539062 15.003906 16.523438 16.300781 16.535156 " fill-opacity="1" fill-rule="nonzero"/></g></svg>