<svg xmlns="http://www.w3.org/2000/svg" xmlns:xlink="http://www.w3.org/1999/xlink" width="50" zoomAndPan="magnify" viewBox="0 0 37.5 40.5" height="54" preserveAspectRatio="xMidYMid meet" version="1.0"><defs><clipPath id="a5062fb1fd"><path d="M 0 0.0195312 L 37.007812 0.0195312 L 37.007812 39.988281 L 0 39.988281 Z M 0 0.0195312 " clip-rule="nonzero"/></clipPath><clipPath id="2b0a377124"><path d="M 0 0.0195312 L 37.007812 0.0195312 L 37.007812 37.027344 L 0 37.027344 Z M 0 0.0195312 " clip-rule="nonzero"/></clipPath><clipPath id="d67be9a662"><path d="M 9 7.875 L 28.976562 7.875 L 28.976562 29.335938 L 9 29.335938 Z M 9 7.875 " clip-rule="nonzero"/></clipPath><clipPath id="842d43178b"><path d="M 24 10 L 28.976562 10 L 28.976562 14 L 24 14 Z M 24 10 " clip-rule="nonzero"/></clipPath><clipPath id="27b84b960b"><path d="M 8.253906 10 L 13 10 L 13 14 L 8.253906 14 Z M 8.253906 10 " clip-rule="nonzero"/></clipPath></defs><g clip-path="url(#a5062fb1fd)"><path fill="#ffffff" d="M 0 0.0195312 L 37.007812 0.0195312 L 37.007812 39.988281 L 0 39.988281 Z M 0 0.0195312 " fill-opacity="1" fill-rule="nonzero"/><path fill="#ffffff" d="M 0 0.0195312 L 37.007812 0.0195312 L 37.007812 39.988281 L 0 39.988281 Z M 0 0.0195312 " fill-opacity="1" fill-rule="nonzero"/></g><g clip-path="url(#2b0a377124)"><path fill="#9cd6c9" d="M 18.503906 0.0195312 C 8.296875 0.0195312 0 8.324219 0 18.523438 C 0 28.730469 8.296875 37.027344 18.503906 37.027344 C 28.703125 37.027344 37.007812 28.730469 37.007812 18.523438 C 37.007812 8.324219 28.703125 0.0195312 18.503906 0.0195312 Z M 18.503906 35.582031 C 9.097656 35.582031 1.441406 27.929688 1.441406 18.523438 C 1.441406 9.117188 9.097656 1.464844 18.503906 1.464844 C 27.910156 1.464844 35.5625 9.117188 35.5625 18.523438 C 35.5625 27.929688 27.910156 35.582031 18.503906 35.582031 Z M 18.503906 35.582031 " fill-opacity="1" fill-rule="nonzero"/></g><path fill="#9cd6c9" d="M 18.503906 2.425781 C 9.628906 2.425781 2.40625 9.648438 2.40625 18.523438 C 2.40625 27.398438 9.628906 34.621094 18.503906 34.621094 C 27.378906 34.621094 34.601562 27.398438 34.601562 18.523438 C 34.601562 9.648438 27.378906 2.425781 18.503906 2.425781 Z M 18.503906 2.425781 " fill-opacity="1" fill-rule="nonzero"/><g clip-path="url(#d67be9a662)"><path fill="#1d1d1b" d="M 23.992188 13.242188 C 23.050781 11.828125 24.164062 8.195312 24.175781 8.160156 C 24.207031 8.058594 24.152344 7.953125 24.050781 7.921875 C 23.949219 7.890625 23.839844 7.945312 23.808594 8.046875 C 23.761719 8.203125 22.632812 11.890625 23.671875 13.453125 C 24.199219 14.246094 24.742188 15.15625 25.253906 16.105469 C 24.027344 18.109375 21.898438 20.464844 18.621094 20.542969 C 15.484375 20.457031 13.363281 18.183594 12.125 16.257812 C 12.65625 15.25 13.230469 14.289062 13.785156 13.453125 C 14.824219 11.890625 13.695312 8.203125 13.648438 8.046875 C 13.617188 7.945312 13.507812 7.890625 13.40625 7.921875 C 13.304688 7.953125 13.25 8.058594 13.28125 8.160156 C 13.292969 8.195312 14.402344 11.828125 13.464844 13.242188 C 11.761719 15.804688 9.878906 19.5625 9.519531 22.1875 C 9.148438 24.898438 10.367188 29.027344 10.421875 29.199219 C 10.445312 29.285156 10.523438 29.335938 10.605469 29.335938 C 10.621094 29.335938 10.640625 29.335938 10.660156 29.328125 C 10.761719 29.300781 10.820312 29.191406 10.789062 29.089844 C 10.777344 29.050781 9.542969 24.867188 9.902344 22.238281 C 10.046875 21.164062 10.460938 19.890625 11.011719 18.589844 L 16.84375 23.535156 C 16.976562 23.828125 17.914062 26.078125 16.820312 29.082031 C 16.78125 29.179688 16.832031 29.289062 16.933594 29.324219 C 16.953125 29.332031 16.976562 29.335938 17 29.335938 C 17.078125 29.335938 17.152344 29.289062 17.179688 29.210938 C 18.03125 26.875 17.722656 25.003906 17.433594 24.039062 L 17.648438 24.21875 C 17.925781 24.457031 18.269531 24.574219 18.613281 24.574219 C 18.957031 24.574219 19.300781 24.457031 19.582031 24.214844 L 19.789062 24.039062 C 19.503906 25.003906 19.195312 26.878906 20.046875 29.210938 C 20.074219 29.289062 20.148438 29.335938 20.226562 29.335938 C 20.25 29.335938 20.273438 29.332031 20.292969 29.324219 C 20.394531 29.289062 20.445312 29.179688 20.40625 29.082031 C 19.308594 26.066406 20.257812 23.8125 20.386719 23.535156 L 26.378906 18.429688 C 26.960938 19.785156 27.402344 21.121094 27.554688 22.238281 C 27.914062 24.867188 26.679688 29.050781 26.667969 29.089844 C 26.636719 29.191406 26.695312 29.300781 26.796875 29.328125 C 26.816406 29.335938 26.832031 29.335938 26.851562 29.335938 C 26.933594 29.335938 27.011719 29.285156 27.035156 29.199219 C 27.085938 29.027344 28.304688 24.898438 27.933594 22.1875 C 27.574219 19.5625 25.695312 15.804688 23.992188 13.242188 Z M 19.332031 23.925781 C 18.917969 24.28125 18.3125 24.28125 17.894531 23.925781 L 11.171875 18.222656 C 11.402344 17.695312 11.65625 17.167969 11.921875 16.648438 C 13.226562 18.609375 15.40625 20.835938 18.621094 20.925781 C 21.972656 20.847656 24.167969 18.539062 25.457031 16.5 C 25.726562 17.015625 25.980469 17.539062 26.214844 18.0625 Z M 19.332031 23.925781 " fill-opacity="1" fill-rule="nonzero"/></g><path fill="#1d1d1b" d="M 18.613281 16.398438 C 18.722656 16.398438 18.808594 16.3125 18.808594 16.207031 L 18.808594 15.289062 C 18.808594 15.183594 18.722656 15.097656 18.613281 15.097656 C 18.507812 15.097656 18.421875 15.183594 18.421875 15.289062 L 18.421875 16.207031 C 18.421875 16.3125 18.507812 16.398438 18.613281 16.398438 Z M 18.613281 16.398438 " fill-opacity="1" fill-rule="nonzero"/><g clip-path="url(#842d43178b)"><path fill="#1d1d1b" d="M 28.785156 11.761719 L 25.179688 11.761719 L 26.296875 10.847656 C 26.378906 10.78125 26.390625 10.660156 26.324219 10.578125 C 26.257812 10.496094 26.136719 10.484375 26.054688 10.550781 L 24.523438 11.804688 C 24.519531 11.804688 24.519531 11.808594 24.515625 11.8125 C 24.503906 11.824219 24.492188 11.839844 24.484375 11.855469 C 24.480469 11.863281 24.472656 11.867188 24.46875 11.875 C 24.460938 11.898438 24.453125 11.925781 24.453125 11.953125 C 24.453125 11.980469 24.460938 12.007812 24.46875 12.03125 C 24.472656 12.039062 24.480469 12.042969 24.484375 12.050781 C 24.492188 12.066406 24.503906 12.082031 24.515625 12.09375 C 24.519531 12.09375 24.519531 12.097656 24.523438 12.101562 L 26.054688 13.355469 C 26.089844 13.382812 26.132812 13.398438 26.175781 13.398438 C 26.230469 13.398438 26.285156 13.375 26.324219 13.328125 C 26.390625 13.246094 26.378906 13.125 26.296875 13.058594 L 25.179688 12.144531 L 28.785156 12.144531 C 28.890625 12.144531 28.976562 12.058594 28.976562 11.953125 C 28.976562 11.847656 28.890625 11.761719 28.785156 11.761719 Z M 28.785156 11.761719 " fill-opacity="1" fill-rule="nonzero"/></g><g clip-path="url(#27b84b960b)"><path fill="#1d1d1b" d="M 10.933594 13.058594 C 10.851562 13.125 10.839844 13.246094 10.90625 13.328125 C 10.945312 13.375 11 13.398438 11.054688 13.398438 C 11.097656 13.398438 11.140625 13.382812 11.175781 13.355469 L 12.707031 12.101562 C 12.710938 12.097656 12.710938 12.09375 12.714844 12.09375 C 12.726562 12.082031 12.738281 12.066406 12.746094 12.050781 C 12.75 12.042969 12.757812 12.039062 12.761719 12.03125 C 12.769531 12.007812 12.777344 11.980469 12.777344 11.953125 C 12.777344 11.925781 12.769531 11.898438 12.761719 11.875 C 12.757812 11.867188 12.75 11.863281 12.746094 11.855469 C 12.738281 11.839844 12.726562 11.824219 12.714844 11.8125 C 12.710938 11.808594 12.710938 11.804688 12.707031 11.804688 L 11.175781 10.550781 C 11.09375 10.484375 10.972656 10.496094 10.90625 10.578125 C 10.839844 10.660156 10.851562 10.78125 10.933594 10.847656 L 12.050781 11.761719 L 8.445312 11.761719 C 8.339844 11.761719 8.253906 11.847656 8.253906 11.953125 C 8.253906 12.058594 8.339844 12.144531 8.445312 12.144531 L 12.050781 12.144531 Z M 10.933594 13.058594 " fill-opacity="1" fill-rule="nonzero"/></g></svg>