<svg xmlns="http://www.w3.org/2000/svg" xmlns:xlink="http://www.w3.org/1999/xlink" width="50" zoomAndPan="magnify" viewBox="0 0 37.5 40.5" height="54" preserveAspectRatio="xMidYMid meet" version="1.0"><defs><clipPath id="f6b9814898"><path d="M 0 0.0195312 L 37.007812 0.0195312 L 37.007812 39.988281 L 0 39.988281 Z M 0 0.0195312 " clip-rule="nonzero"/></clipPath><clipPath id="1bd0b98a5c"><path d="M 0 0.0195312 L 37.007812 0.0195312 L 37.007812 37.027344 L 0 37.027344 Z M 0 0.0195312 " clip-rule="nonzero"/></clipPath><clipPath id="be5eb6fd8a"><path d="M 9.671875 9.152344 L 26 9.152344 L 26 27.65625 L 9.671875 27.65625 Z M 9.671875 9.152344 " clip-rule="nonzero"/></clipPath><clipPath id="95986412de"><path d="M 13 9.152344 L 21 9.152344 L 21 12 L 13 12 Z M 13 9.152344 " clip-rule="nonzero"/></clipPath><clipPath id="b4fccae2da"><path d="M 25 14 L 27.433594 14 L 27.433594 19 L 25 19 Z M 25 14 " clip-rule="nonzero"/></clipPath></defs><g clip-path="url(#f6b9814898)"><path fill="#ffffff" d="M 0 0.0195312 L 37.007812 0.0195312 L 37.007812 39.988281 L 0 39.988281 Z M 0 0.0195312 " fill-opacity="1" fill-rule="nonzero"/><path fill="#ffffff" d="M 0 0.0195312 L 37.007812 0.0195312 L 37.007812 39.988281 L 0 39.988281 Z M 0 0.0195312 " fill-opacity="1" fill-rule="nonzero"/></g><g clip-path="url(#1bd0b98a5c)"><path fill="#9cd6c9" d="M 18.503906 0.0195312 C 8.296875 0.0195312 0 8.324219 0 18.523438 C 0 28.730469 8.296875 37.027344 18.503906 37.027344 C 28.703125 37.027344 37.007812 28.730469 37.007812 18.523438 C 37.007812 8.324219 28.703125 0.0195312 18.503906 0.0195312 Z M 18.503906 35.582031 C 9.097656 35.582031 1.441406 27.929688 1.441406 18.523438 C 1.441406 9.117188 9.097656 1.464844 18.503906 1.464844 C 27.910156 1.464844 35.5625 9.117188 35.5625 18.523438 C 35.5625 27.929688 27.910156 35.582031 18.503906 35.582031 Z M 18.503906 35.582031 " fill-opacity="1" fill-rule="nonzero"/></g><path fill="#9cd6c9" d="M 18.503906 2.425781 C 9.628906 2.425781 2.40625 9.648438 2.40625 18.523438 C 2.40625 27.398438 9.628906 34.621094 18.503906 34.621094 C 27.378906 34.621094 34.601562 27.398438 34.601562 18.523438 C 34.601562 9.648438 27.378906 2.425781 18.503906 2.425781 Z M 18.503906 2.425781 " fill-opacity="1" fill-rule="nonzero"/><g clip-path="url(#be5eb6fd8a)"><path fill="#231f20" d="M 24.3125 27.65625 L 10.597656 27.65625 C 10.085938 27.65625 9.671875 27.246094 9.671875 26.746094 L 9.671875 10.464844 C 9.671875 9.964844 10.085938 9.554688 10.597656 9.554688 L 14.066406 9.554688 C 14.148438 9.554688 14.214844 9.621094 14.214844 9.703125 L 14.214844 11.300781 C 14.214844 11.402344 14.300781 11.484375 14.402344 11.484375 L 20.398438 11.484375 C 20.5 11.484375 20.585938 11.402344 20.585938 11.300781 L 20.585938 9.703125 C 20.585938 9.621094 20.652344 9.554688 20.734375 9.554688 L 24.3125 9.554688 C 24.824219 9.554688 25.238281 9.964844 25.238281 10.464844 L 25.238281 12.996094 C 25.238281 13.011719 25.234375 13.023438 25.230469 13.039062 L 25.070312 13.5625 C 25.046875 13.636719 24.96875 13.679688 24.894531 13.660156 L 24.542969 13.574219 C 24.507812 13.566406 24.472656 13.585938 24.460938 13.621094 L 23.492188 17.117188 C 23.488281 17.140625 23.496094 17.160156 23.5 17.167969 C 23.507812 17.175781 23.519531 17.191406 23.542969 17.199219 L 23.628906 17.222656 C 23.667969 17.230469 23.699219 17.257812 23.71875 17.289062 C 23.738281 17.324219 23.746094 17.363281 23.734375 17.398438 L 22.535156 21.769531 L 22.902344 23.21875 L 23.996094 22.152344 L 24.945312 18.488281 C 24.964844 18.417969 25.035156 18.371094 25.109375 18.378906 C 25.183594 18.390625 25.238281 18.453125 25.238281 18.523438 L 25.238281 26.746094 C 25.238281 27.246094 24.824219 27.65625 24.3125 27.65625 Z M 10.597656 9.847656 C 10.25 9.847656 9.96875 10.125 9.96875 10.464844 L 9.96875 26.746094 C 9.96875 27.085938 10.25 27.363281 10.597656 27.363281 L 24.3125 27.363281 C 24.660156 27.363281 24.941406 27.085938 24.941406 26.746094 L 24.941406 19.683594 L 24.273438 22.265625 C 24.265625 22.296875 24.246094 22.320312 24.222656 22.339844 L 23.839844 22.714844 L 22.925781 23.605469 C 22.890625 23.640625 22.835938 23.65625 22.78125 23.640625 C 22.730469 23.628906 22.691406 23.585938 22.679688 23.535156 L 22.238281 21.800781 C 22.230469 21.777344 22.230469 21.753906 22.238281 21.730469 L 23.410156 17.460938 C 23.339844 17.429688 23.285156 17.378906 23.246094 17.3125 C 23.195312 17.230469 23.183594 17.132812 23.207031 17.039062 L 24.175781 13.546875 C 24.226562 13.359375 24.421875 13.246094 24.613281 13.292969 L 24.828125 13.34375 L 24.941406 12.976562 L 24.941406 10.464844 C 24.941406 10.125 24.660156 9.847656 24.3125 9.847656 L 20.878906 9.847656 L 20.878906 11.300781 C 20.878906 11.5625 20.664062 11.773438 20.398438 11.773438 L 14.402344 11.773438 C 14.136719 11.773438 13.921875 11.5625 13.921875 11.300781 L 13.921875 9.847656 Z M 10.597656 9.847656 " fill-opacity="1" fill-rule="nonzero"/></g><path fill="#231f20" d="M 23.351562 26.402344 L 11.554688 26.402344 C 11.261719 26.402344 11.023438 26.167969 11.023438 25.882812 L 11.023438 11.328125 C 11.023438 11.042969 11.261719 10.808594 11.554688 10.808594 L 14.066406 10.808594 C 14.148438 10.808594 14.214844 10.875 14.214844 10.953125 L 14.214844 11.300781 C 14.214844 11.402344 14.300781 11.484375 14.402344 11.484375 L 20.398438 11.484375 C 20.5 11.484375 20.585938 11.402344 20.585938 11.300781 L 20.585938 10.953125 C 20.585938 10.875 20.652344 10.808594 20.734375 10.808594 L 23.351562 10.808594 C 23.644531 10.808594 23.882812 11.042969 23.882812 11.328125 L 23.882812 15.6875 C 23.882812 15.703125 23.882812 15.714844 23.878906 15.726562 L 23.492188 17.117188 C 23.488281 17.140625 23.496094 17.160156 23.5 17.167969 C 23.507812 17.175781 23.519531 17.191406 23.542969 17.199219 L 23.628906 17.222656 C 23.667969 17.230469 23.699219 17.257812 23.71875 17.289062 C 23.738281 17.324219 23.746094 17.363281 23.734375 17.398438 L 22.535156 21.769531 L 22.902344 23.21875 L 23.632812 22.507812 C 23.675781 22.464844 23.738281 22.453125 23.792969 22.476562 C 23.847656 22.5 23.882812 22.550781 23.882812 22.609375 L 23.882812 25.882812 C 23.882812 26.167969 23.644531 26.402344 23.351562 26.402344 Z M 11.554688 11.101562 C 11.425781 11.101562 11.320312 11.203125 11.320312 11.328125 L 11.320312 25.882812 C 11.320312 26.007812 11.425781 26.113281 11.554688 26.113281 L 23.351562 26.113281 C 23.484375 26.113281 23.585938 26.007812 23.585938 25.882812 L 23.585938 22.960938 L 22.925781 23.605469 C 22.890625 23.640625 22.835938 23.65625 22.78125 23.640625 C 22.730469 23.628906 22.691406 23.585938 22.679688 23.535156 L 22.238281 21.800781 C 22.230469 21.777344 22.230469 21.753906 22.238281 21.730469 L 23.410156 17.460938 C 23.339844 17.429688 23.285156 17.378906 23.246094 17.3125 C 23.195312 17.230469 23.183594 17.132812 23.207031 17.039062 L 23.585938 15.667969 L 23.585938 11.328125 C 23.585938 11.203125 23.484375 11.101562 23.351562 11.101562 L 20.878906 11.101562 L 20.878906 11.300781 C 20.878906 11.5625 20.664062 11.773438 20.398438 11.773438 L 14.402344 11.773438 C 14.136719 11.773438 13.921875 11.5625 13.921875 11.300781 L 13.921875 11.101562 Z M 11.554688 11.101562 " fill-opacity="1" fill-rule="nonzero"/><path fill="#231f20" d="M 15.222656 15.984375 L 13.09375 15.984375 C 12.871094 15.984375 12.695312 15.808594 12.695312 15.59375 L 12.695312 13.503906 C 12.695312 13.289062 12.871094 13.113281 13.09375 13.113281 L 15.222656 13.113281 C 15.441406 13.113281 15.621094 13.289062 15.621094 13.503906 L 15.621094 15.59375 C 15.621094 15.808594 15.441406 15.984375 15.222656 15.984375 Z M 13.09375 13.402344 C 13.035156 13.402344 12.988281 13.449219 12.988281 13.503906 L 12.988281 15.59375 C 12.988281 15.648438 13.035156 15.695312 13.09375 15.695312 L 15.222656 15.695312 C 15.277344 15.695312 15.324219 15.648438 15.324219 15.59375 L 15.324219 13.503906 C 15.324219 13.449219 15.277344 13.402344 15.222656 13.402344 Z M 13.09375 13.402344 " fill-opacity="1" fill-rule="nonzero"/><path fill="#231f20" d="M 19.898438 14.058594 L 16.789062 14.058594 C 16.707031 14.058594 16.640625 13.992188 16.640625 13.914062 C 16.640625 13.832031 16.707031 13.769531 16.789062 13.769531 L 19.898438 13.769531 C 19.980469 13.769531 20.046875 13.832031 20.046875 13.914062 C 20.046875 13.992188 19.980469 14.058594 19.898438 14.058594 Z M 19.898438 14.058594 " fill-opacity="1" fill-rule="nonzero"/><path fill="#231f20" d="M 21.949219 15.339844 L 16.789062 15.339844 C 16.707031 15.339844 16.640625 15.273438 16.640625 15.195312 C 16.640625 15.113281 16.707031 15.050781 16.789062 15.050781 L 21.949219 15.050781 C 22.03125 15.050781 22.097656 15.113281 22.097656 15.195312 C 22.097656 15.273438 22.03125 15.339844 21.949219 15.339844 Z M 21.949219 15.339844 " fill-opacity="1" fill-rule="nonzero"/><path fill="#231f20" d="M 15.222656 20.042969 L 13.09375 20.042969 C 12.871094 20.042969 12.695312 19.867188 12.695312 19.652344 L 12.695312 17.5625 C 12.695312 17.34375 12.871094 17.167969 13.09375 17.167969 L 15.222656 17.167969 C 15.441406 17.167969 15.621094 17.34375 15.621094 17.5625 L 15.621094 19.652344 C 15.621094 19.867188 15.441406 20.042969 15.222656 20.042969 Z M 13.09375 17.460938 C 13.035156 17.460938 12.988281 17.503906 12.988281 17.5625 L 12.988281 19.652344 C 12.988281 19.707031 13.035156 19.75 13.09375 19.75 L 15.222656 19.75 C 15.277344 19.75 15.324219 19.707031 15.324219 19.652344 L 15.324219 17.5625 C 15.324219 17.503906 15.277344 17.460938 15.222656 17.460938 Z M 13.09375 17.460938 " fill-opacity="1" fill-rule="nonzero"/><path fill="#231f20" d="M 19.898438 18.117188 L 16.789062 18.117188 C 16.707031 18.117188 16.640625 18.050781 16.640625 17.96875 C 16.640625 17.890625 16.707031 17.824219 16.789062 17.824219 L 19.898438 17.824219 C 19.980469 17.824219 20.046875 17.890625 20.046875 17.96875 C 20.046875 18.050781 19.980469 18.117188 19.898438 18.117188 Z M 19.898438 18.117188 " fill-opacity="1" fill-rule="nonzero"/><path fill="#231f20" d="M 21.949219 19.398438 L 16.789062 19.398438 C 16.707031 19.398438 16.640625 19.332031 16.640625 19.25 C 16.640625 19.171875 16.707031 19.105469 16.789062 19.105469 L 21.949219 19.105469 C 22.03125 19.105469 22.097656 19.171875 22.097656 19.25 C 22.097656 19.332031 22.03125 19.398438 21.949219 19.398438 Z M 21.949219 19.398438 " fill-opacity="1" fill-rule="nonzero"/><path fill="#231f20" d="M 15.222656 24.101562 L 13.09375 24.101562 C 12.871094 24.101562 12.695312 23.925781 12.695312 23.707031 L 12.695312 21.617188 C 12.695312 21.402344 12.871094 21.226562 13.09375 21.226562 L 15.222656 21.226562 C 15.441406 21.226562 15.621094 21.402344 15.621094 21.617188 L 15.621094 23.707031 C 15.621094 23.925781 15.441406 24.101562 15.222656 24.101562 Z M 13.09375 21.515625 C 13.035156 21.515625 12.988281 21.5625 12.988281 21.617188 L 12.988281 23.707031 C 12.988281 23.765625 13.035156 23.808594 13.09375 23.808594 L 15.222656 23.808594 C 15.277344 23.808594 15.324219 23.765625 15.324219 23.707031 L 15.324219 21.617188 C 15.324219 21.5625 15.277344 21.515625 15.222656 21.515625 Z M 13.09375 21.515625 " fill-opacity="1" fill-rule="nonzero"/><path fill="#231f20" d="M 14.511719 23.175781 C 14.472656 23.175781 14.433594 23.160156 14.40625 23.132812 L 13.738281 22.476562 C 13.679688 22.417969 13.679688 22.328125 13.738281 22.269531 C 13.796875 22.214844 13.890625 22.214844 13.949219 22.269531 L 14.511719 22.824219 L 15.972656 21.390625 C 16.027344 21.332031 16.121094 21.332031 16.179688 21.390625 C 16.238281 21.445312 16.238281 21.539062 16.179688 21.59375 L 14.613281 23.132812 C 14.585938 23.160156 14.546875 23.175781 14.511719 23.175781 Z M 14.511719 23.175781 " fill-opacity="1" fill-rule="nonzero"/><path fill="#231f20" d="M 19.898438 22.171875 L 16.789062 22.171875 C 16.707031 22.171875 16.640625 22.105469 16.640625 22.027344 C 16.640625 21.945312 16.707031 21.882812 16.789062 21.882812 L 19.898438 21.882812 C 19.980469 21.882812 20.046875 21.945312 20.046875 22.027344 C 20.046875 22.105469 19.980469 22.171875 19.898438 22.171875 Z M 19.898438 22.171875 " fill-opacity="1" fill-rule="nonzero"/><path fill="#231f20" d="M 21.949219 23.453125 L 16.789062 23.453125 C 16.707031 23.453125 16.640625 23.390625 16.640625 23.308594 C 16.640625 23.226562 16.707031 23.164062 16.789062 23.164062 L 21.949219 23.164062 C 22.03125 23.164062 22.097656 23.226562 22.097656 23.308594 C 22.097656 23.390625 22.03125 23.453125 21.949219 23.453125 Z M 21.949219 23.453125 " fill-opacity="1" fill-rule="nonzero"/><g clip-path="url(#95986412de)"><path fill="#231f20" d="M 20.398438 11.773438 L 14.402344 11.773438 C 14.136719 11.773438 13.921875 11.5625 13.921875 11.300781 L 13.921875 9.625 C 13.921875 9.363281 14.136719 9.152344 14.402344 9.152344 L 20.398438 9.152344 C 20.664062 9.152344 20.878906 9.363281 20.878906 9.625 L 20.878906 11.300781 C 20.878906 11.5625 20.664062 11.773438 20.398438 11.773438 Z M 14.402344 9.441406 C 14.300781 9.441406 14.214844 9.523438 14.214844 9.625 L 14.214844 11.300781 C 14.214844 11.402344 14.300781 11.484375 14.402344 11.484375 L 20.398438 11.484375 C 20.5 11.484375 20.585938 11.402344 20.585938 11.300781 L 20.585938 9.625 C 20.585938 9.523438 20.5 9.441406 20.398438 9.441406 Z M 14.402344 9.441406 " fill-opacity="1" fill-rule="nonzero"/></g><path fill="#231f20" d="M 22.824219 23.648438 C 22.808594 23.648438 22.796875 23.644531 22.78125 23.640625 C 22.730469 23.628906 22.691406 23.585938 22.679688 23.535156 L 22.238281 21.800781 C 22.230469 21.777344 22.230469 21.753906 22.238281 21.730469 L 23.449219 17.324219 C 23.46875 17.246094 23.550781 17.203125 23.628906 17.222656 L 24.03125 17.324219 L 25.316406 17.65625 C 25.394531 17.675781 25.441406 17.753906 25.421875 17.832031 L 24.273438 22.265625 C 24.265625 22.296875 24.246094 22.320312 24.222656 22.339844 L 22.925781 23.605469 C 22.898438 23.632812 22.859375 23.648438 22.824219 23.648438 Z M 22.535156 21.769531 L 22.902344 23.21875 L 23.996094 22.152344 L 25.101562 17.902344 L 23.695312 17.539062 Z M 22.535156 21.769531 " fill-opacity="1" fill-rule="nonzero"/><path fill="#231f20" d="M 22.824219 23.648438 C 22.808594 23.648438 22.796875 23.644531 22.78125 23.640625 C 22.730469 23.628906 22.691406 23.585938 22.679688 23.535156 L 22.238281 21.800781 C 22.222656 21.734375 22.253906 21.667969 22.316406 21.636719 C 22.378906 21.605469 22.453125 21.621094 22.496094 21.675781 C 22.5 21.679688 22.671875 21.886719 23 22.023438 C 23.089844 22.058594 23.179688 22.085938 23.265625 22.105469 C 23.769531 22.21875 24.054688 22.101562 24.070312 22.097656 C 24.132812 22.070312 24.210938 22.089844 24.25 22.148438 C 24.289062 22.207031 24.28125 22.285156 24.230469 22.332031 L 22.925781 23.605469 C 22.898438 23.632812 22.859375 23.648438 22.824219 23.648438 Z M 22.632812 22.164062 L 22.902344 23.21875 L 23.695312 22.445312 C 23.558594 22.445312 23.390625 22.433594 23.203125 22.390625 C 23.097656 22.367188 22.992188 22.335938 22.886719 22.289062 C 22.792969 22.25 22.707031 22.207031 22.632812 22.164062 Z M 22.632812 22.164062 " fill-opacity="1" fill-rule="nonzero"/><path fill="#231f20" d="M 26.117188 13.953125 C 26.105469 13.953125 26.09375 13.953125 26.078125 13.949219 L 24.894531 13.660156 C 24.855469 13.648438 24.820312 13.625 24.800781 13.589844 C 24.78125 13.554688 24.777344 13.515625 24.789062 13.476562 L 24.960938 12.914062 C 25.035156 12.671875 25.230469 12.484375 25.480469 12.417969 C 25.613281 12.382812 25.75 12.386719 25.878906 12.421875 C 26.199219 12.511719 26.421875 12.800781 26.421875 13.125 C 26.421875 13.1875 26.414062 13.246094 26.398438 13.304688 L 26.257812 13.84375 C 26.242188 13.910156 26.183594 13.953125 26.117188 13.953125 Z M 25.117188 13.414062 L 26.007812 13.632812 L 26.109375 13.234375 C 26.121094 13.199219 26.125 13.164062 26.125 13.125 C 26.125 12.929688 25.988281 12.753906 25.796875 12.703125 C 25.71875 12.679688 25.636719 12.679688 25.558594 12.699219 C 25.40625 12.738281 25.289062 12.851562 25.246094 12.996094 Z M 25.117188 13.414062 " fill-opacity="1" fill-rule="nonzero"/><path fill="#231f20" d="M 25.390625 17.964844 C 25.359375 17.964844 25.328125 17.960938 25.296875 17.953125 L 25.242188 17.9375 L 23.554688 17.503906 L 23.46875 17.480469 C 23.375 17.457031 23.292969 17.398438 23.246094 17.3125 C 23.195312 17.230469 23.183594 17.132812 23.207031 17.039062 L 24.175781 13.546875 C 24.226562 13.359375 24.421875 13.246094 24.613281 13.292969 L 26.480469 13.746094 C 26.578125 13.773438 26.65625 13.832031 26.707031 13.914062 C 26.757812 14 26.769531 14.097656 26.742188 14.191406 L 26.464844 15.160156 L 25.816406 17.441406 L 25.742188 17.703125 C 25.699219 17.859375 25.550781 17.964844 25.390625 17.964844 Z M 24.527344 13.570312 C 24.496094 13.570312 24.46875 13.59375 24.460938 13.621094 L 23.492188 17.117188 C 23.488281 17.140625 23.496094 17.160156 23.5 17.167969 C 23.507812 17.175781 23.519531 17.191406 23.542969 17.199219 L 23.628906 17.222656 L 25.375 17.671875 C 25.410156 17.679688 25.445312 17.660156 25.457031 17.625 L 25.53125 17.363281 L 26.179688 15.082031 L 26.457031 14.113281 C 26.464844 14.089844 26.457031 14.070312 26.449219 14.0625 C 26.445312 14.050781 26.433594 14.035156 26.410156 14.03125 L 24.542969 13.574219 C 24.539062 13.574219 24.53125 13.570312 24.527344 13.570312 Z M 24.527344 13.570312 " fill-opacity="1" fill-rule="nonzero"/><g clip-path="url(#b4fccae2da)"><path fill="#231f20" d="M 26.394531 18.394531 C 26.246094 18.394531 26.105469 18.320312 26.019531 18.199219 L 25.910156 18.039062 C 25.753906 17.808594 25.707031 17.519531 25.78125 17.25 L 26.292969 15.449219 C 26.316406 15.371094 26.289062 15.285156 26.226562 15.230469 C 26.183594 15.191406 26.164062 15.136719 26.179688 15.082031 L 26.355469 14.46875 C 26.367188 14.429688 26.390625 14.398438 26.425781 14.378906 C 26.460938 14.363281 26.5 14.355469 26.539062 14.367188 L 26.789062 14.4375 C 27.007812 14.496094 27.191406 14.636719 27.300781 14.835938 C 27.410156 15.03125 27.433594 15.257812 27.367188 15.472656 L 26.734375 17.484375 C 26.722656 17.53125 26.722656 17.582031 26.742188 17.625 L 26.808594 17.773438 C 26.878906 17.933594 26.847656 18.121094 26.730469 18.25 C 26.6875 18.292969 26.636719 18.328125 26.582031 18.351562 C 26.523438 18.378906 26.460938 18.394531 26.394531 18.394531 Z M 26.488281 15.082031 C 26.585938 15.207031 26.621094 15.375 26.578125 15.527344 L 26.066406 17.328125 C 26.015625 17.515625 26.046875 17.714844 26.15625 17.878906 L 26.265625 18.035156 C 26.296875 18.078125 26.34375 18.105469 26.394531 18.105469 C 26.417969 18.105469 26.4375 18.097656 26.460938 18.089844 C 26.480469 18.082031 26.496094 18.070312 26.507812 18.054688 C 26.550781 18.007812 26.5625 17.945312 26.539062 17.890625 L 26.472656 17.738281 C 26.425781 17.632812 26.417969 17.511719 26.453125 17.402344 L 27.082031 15.386719 C 27.125 15.25 27.109375 15.101562 27.039062 14.972656 C 26.96875 14.847656 26.851562 14.753906 26.710938 14.714844 L 26.601562 14.6875 Z M 26.488281 15.082031 " fill-opacity="1" fill-rule="nonzero"/></g><path fill="#231f20" d="M 14.511719 15.058594 C 14.472656 15.058594 14.433594 15.046875 14.40625 15.019531 L 13.738281 14.363281 C 13.679688 14.304688 13.679688 14.214844 13.738281 14.15625 C 13.796875 14.101562 13.890625 14.101562 13.949219 14.15625 L 14.511719 14.710938 L 15.972656 13.277344 C 16.027344 13.21875 16.121094 13.21875 16.179688 13.277344 C 16.238281 13.332031 16.238281 13.425781 16.179688 13.480469 L 14.613281 15.019531 C 14.585938 15.046875 14.550781 15.058594 14.511719 15.058594 Z M 14.511719 15.058594 " fill-opacity="1" fill-rule="nonzero"/><path fill="#231f20" d="M 14.511719 19.117188 C 14.472656 19.117188 14.433594 19.101562 14.40625 19.074219 L 13.738281 18.417969 C 13.679688 18.363281 13.679688 18.269531 13.738281 18.214844 C 13.796875 18.15625 13.890625 18.15625 13.949219 18.214844 L 14.511719 18.765625 L 15.972656 17.332031 C 16.027344 17.277344 16.121094 17.277344 16.179688 17.332031 C 16.238281 17.390625 16.238281 17.480469 16.179688 17.539062 L 14.613281 19.074219 C 14.585938 19.101562 14.550781 19.117188 14.511719 19.117188 Z M 14.511719 19.117188 " fill-opacity="1" fill-rule="nonzero"/></svg>