<svg xmlns="http://www.w3.org/2000/svg" xmlns:xlink="http://www.w3.org/1999/xlink" width="50" zoomAndPan="magnify" viewBox="0 0 37.5 40.5" height="54" preserveAspectRatio="xMidYMid meet" version="1.0"><defs><clipPath id="cf89ddfa9f"><path d="M 0 0.0195312 L 37.007812 0.0195312 L 37.007812 39.988281 L 0 39.988281 Z M 0 0.0195312 " clip-rule="nonzero"/></clipPath><clipPath id="c69a257e01"><path d="M 0 0.0195312 L 37.007812 0.0195312 L 37.007812 37.027344 L 0 37.027344 Z M 0 0.0195312 " clip-rule="nonzero"/></clipPath><clipPath id="71acca42a3"><path d="M 9.441406 10.039062 L 27.203125 10.039062 L 27.203125 26.992188 L 9.441406 26.992188 Z M 9.441406 10.039062 " clip-rule="nonzero"/></clipPath></defs><g clip-path="url(#cf89ddfa9f)"><path fill="#ffffff" d="M 0 0.0195312 L 37.007812 0.0195312 L 37.007812 39.988281 L 0 39.988281 Z M 0 0.0195312 " fill-opacity="1" fill-rule="nonzero"/><path fill="#ffffff" d="M 0 0.0195312 L 37.007812 0.0195312 L 37.007812 39.988281 L 0 39.988281 Z M 0 0.0195312 " fill-opacity="1" fill-rule="nonzero"/></g><g clip-path="url(#c69a257e01)"><path fill="#9cd6c9" d="M 18.503906 0.0195312 C 8.296875 0.0195312 0 8.324219 0 18.523438 C 0 28.730469 8.296875 37.027344 18.503906 37.027344 C 28.703125 37.027344 37.007812 28.730469 37.007812 18.523438 C 37.007812 8.324219 28.703125 0.0195312 18.503906 0.0195312 Z M 18.503906 35.582031 C 9.097656 35.582031 1.441406 27.929688 1.441406 18.523438 C 1.441406 9.117188 9.097656 1.464844 18.503906 1.464844 C 27.910156 1.464844 35.5625 9.117188 35.5625 18.523438 C 35.5625 27.929688 27.910156 35.582031 18.503906 35.582031 Z M 18.503906 35.582031 " fill-opacity="1" fill-rule="nonzero"/></g><path fill="#9cd6c9" d="M 18.503906 2.425781 C 9.628906 2.425781 2.40625 9.648438 2.40625 18.523438 C 2.40625 27.398438 9.628906 34.621094 18.503906 34.621094 C 27.378906 34.621094 34.601562 27.398438 34.601562 18.523438 C 34.601562 9.648438 27.378906 2.425781 18.503906 2.425781 Z M 18.503906 2.425781 " fill-opacity="1" fill-rule="nonzero"/><path fill="#000000" d="M 23.652344 14.40625 L 23.453125 14.605469 L 23.855469 15.007812 L 24.054688 14.808594 C 25.265625 13.59375 25.265625 11.617188 24.054688 10.40625 L 23.855469 10.203125 L 23.453125 10.605469 L 23.652344 10.804688 C 24.648438 11.796875 24.648438 13.414062 23.652344 14.40625 " fill-opacity="1" fill-rule="nonzero"/><path fill="#000000" d="M 22.652344 13.808594 L 23.054688 14.207031 L 23.253906 14.007812 C 23.628906 13.632812 23.832031 13.136719 23.832031 12.605469 C 23.832031 12.078125 23.628906 11.578125 23.253906 11.207031 L 23.054688 11.003906 L 22.652344 11.40625 L 22.855469 11.605469 C 23.121094 11.871094 23.265625 12.226562 23.265625 12.605469 C 23.265625 12.984375 23.121094 13.339844 22.855469 13.605469 L 22.652344 13.808594 " fill-opacity="1" fill-rule="nonzero"/><path fill="#000000" d="M 13.132812 14.007812 L 13.335938 14.207031 L 13.734375 13.808594 L 13.535156 13.605469 C 13.269531 13.339844 13.121094 12.984375 13.121094 12.605469 C 13.121094 12.226562 13.269531 11.871094 13.535156 11.605469 L 13.734375 11.40625 L 13.335938 11.003906 L 13.132812 11.207031 C 12.761719 11.578125 12.554688 12.078125 12.554688 12.605469 C 12.554688 13.136719 12.761719 13.632812 13.132812 14.007812 " fill-opacity="1" fill-rule="nonzero"/><path fill="#000000" d="M 12.535156 15.007812 L 12.933594 14.605469 L 12.734375 14.40625 C 11.742188 13.414062 11.742188 11.796875 12.734375 10.804688 L 12.933594 10.605469 L 12.535156 10.203125 L 12.332031 10.40625 C 11.121094 11.617188 11.121094 13.59375 12.332031 14.808594 L 12.535156 15.007812 " fill-opacity="1" fill-rule="nonzero"/><path fill="#000000" d="M 21.894531 25.605469 C 22.457031 25.605469 21.894531 25.605469 22.457031 25.605469 L 22.457031 25.039062 L 21.894531 25.039062 L 21.894531 25.605469 " fill-opacity="1" fill-rule="nonzero"/><path fill="#000000" d="M 20.761719 25.605469 C 21.328125 25.605469 20.761719 25.605469 21.328125 25.605469 L 21.328125 25.039062 L 20.761719 25.039062 L 20.761719 25.605469 " fill-opacity="1" fill-rule="nonzero"/><path fill="#000000" d="M 19.769531 23.90625 L 18.921875 23.90625 C 18.6875 23.90625 18.496094 23.714844 18.496094 23.480469 C 18.496094 23.246094 18.6875 23.054688 18.921875 23.054688 L 19.769531 23.054688 C 20.003906 23.054688 20.195312 23.246094 20.195312 23.480469 C 20.195312 23.714844 20.003906 23.90625 19.769531 23.90625 Z M 19.769531 22.492188 L 18.921875 22.492188 C 18.375 22.492188 17.929688 22.9375 17.929688 23.480469 C 17.929688 24.027344 18.375 24.472656 18.921875 24.472656 L 19.769531 24.472656 C 20.316406 24.472656 20.761719 24.027344 20.761719 23.480469 C 20.761719 22.9375 20.316406 22.492188 19.769531 22.492188 " fill-opacity="1" fill-rule="nonzero"/><path fill="#000000" d="M 22.742188 22.347656 C 22.742188 21.804688 23.1875 21.359375 23.730469 21.359375 C 24.277344 21.359375 24.722656 21.804688 24.722656 22.347656 C 24.722656 22.894531 24.277344 23.339844 23.730469 23.339844 C 23.1875 23.339844 22.742188 22.894531 22.742188 22.347656 Z M 25.289062 22.347656 C 25.289062 21.492188 24.589844 20.792969 23.730469 20.792969 C 22.875 20.792969 22.175781 21.492188 22.175781 22.347656 C 22.175781 23.207031 22.875 23.90625 23.730469 23.90625 C 24.589844 23.90625 25.289062 23.207031 25.289062 22.347656 " fill-opacity="1" fill-rule="nonzero"/><g clip-path="url(#71acca42a3)"><path fill="#000000" d="M 26.988281 26.453125 L 10.007812 26.453125 L 10.007812 25.605469 L 18.78125 25.605469 L 18.78125 25.039062 L 10.011719 25.039062 L 10.921875 20.589844 C 11.019531 20.050781 11.488281 19.660156 12.039062 19.660156 L 24.957031 19.660156 C 25.503906 19.660156 25.972656 20.050781 26.070312 20.597656 L 26.980469 25.039062 L 23.589844 25.039062 L 23.589844 25.605469 L 26.988281 25.605469 Z M 11.3125 17.964844 L 11.03125 17.398438 L 12.269531 17.398438 L 12.269531 17.964844 Z M 12.835938 18.527344 L 12.835938 16.832031 L 13.402344 16.832031 L 13.402344 19.09375 L 12.835938 19.09375 Z M 13.96875 18.527344 L 23.308594 18.527344 L 23.308594 19.09375 L 13.96875 19.09375 Z M 13.96875 17.398438 L 23.308594 17.398438 L 23.308594 17.964844 L 13.96875 17.964844 Z M 17.3125 15.027344 L 17.59375 15 C 17.777344 14.980469 17.964844 15.015625 18.082031 15.089844 L 18.535156 15.371094 C 18.726562 15.496094 18.976562 15.554688 19.226562 15.554688 C 19.476562 15.554688 19.726562 15.496094 19.921875 15.371094 L 20.371094 15.089844 C 20.503906 15.003906 20.722656 14.972656 20.921875 15.007812 L 20.933594 15.007812 L 20.785156 16.832031 L 15.644531 16.832031 L 15.328125 13.03125 C 15.359375 13.035156 15.386719 13.046875 15.414062 13.054688 C 15.421875 13.054688 15.429688 13.058594 15.4375 13.0625 C 15.472656 13.074219 15.507812 13.089844 15.539062 13.109375 L 15.988281 13.390625 C 16.375 13.636719 16.984375 13.636719 17.371094 13.390625 L 17.820312 13.109375 C 18.027344 12.980469 18.402344 12.980469 18.605469 13.109375 L 19.054688 13.390625 C 19.101562 13.421875 19.148438 13.445312 19.203125 13.464844 C 19.21875 13.472656 19.234375 13.480469 19.253906 13.484375 C 19.289062 13.5 19.324219 13.511719 19.363281 13.523438 C 19.382812 13.527344 19.40625 13.53125 19.425781 13.539062 C 19.460938 13.546875 19.496094 13.554688 19.535156 13.558594 C 19.554688 13.5625 19.578125 13.5625 19.597656 13.566406 C 19.636719 13.570312 19.675781 13.570312 19.710938 13.574219 C 19.722656 13.574219 19.734375 13.574219 19.75 13.574219 C 19.761719 13.574219 19.773438 13.574219 19.785156 13.574219 C 19.808594 13.574219 19.828125 13.570312 19.851562 13.570312 C 19.882812 13.570312 19.910156 13.566406 19.941406 13.5625 C 19.960938 13.558594 19.980469 13.554688 20 13.554688 C 20.035156 13.546875 20.066406 13.539062 20.097656 13.53125 C 20.113281 13.527344 20.132812 13.523438 20.148438 13.519531 C 20.195312 13.507812 20.242188 13.492188 20.285156 13.472656 C 20.339844 13.449219 20.394531 13.421875 20.441406 13.390625 L 20.890625 13.109375 C 20.921875 13.089844 20.953125 13.074219 20.992188 13.058594 C 20.996094 13.058594 21 13.058594 21.003906 13.054688 C 21.035156 13.046875 21.066406 13.039062 21.101562 13.03125 L 20.980469 14.441406 C 20.65625 14.394531 20.316406 14.453125 20.066406 14.609375 L 19.617188 14.894531 C 19.414062 15.023438 19.039062 15.023438 18.835938 14.894531 L 18.386719 14.609375 C 18.15625 14.464844 17.84375 14.402344 17.535156 14.433594 L 17.253906 14.464844 Z M 21.300781 10.605469 L 21.148438 12.453125 C 21.144531 12.453125 21.140625 12.453125 21.136719 12.453125 C 21.089844 12.457031 21.046875 12.464844 21.003906 12.472656 C 21 12.472656 20.996094 12.472656 20.992188 12.472656 C 20.949219 12.480469 20.902344 12.492188 20.859375 12.507812 C 20.847656 12.511719 20.839844 12.515625 20.832031 12.515625 C 20.796875 12.527344 20.765625 12.542969 20.730469 12.554688 C 20.722656 12.558594 20.710938 12.5625 20.703125 12.570312 C 20.664062 12.585938 20.625 12.605469 20.589844 12.628906 L 20.140625 12.914062 C 19.933594 13.042969 19.5625 13.042969 19.355469 12.914062 L 18.90625 12.628906 C 18.714844 12.507812 18.464844 12.445312 18.214844 12.445312 C 17.964844 12.445312 17.714844 12.507812 17.519531 12.628906 L 17.070312 12.914062 C 16.867188 13.042969 16.492188 13.042969 16.289062 12.914062 L 15.839844 12.628906 C 15.804688 12.605469 15.765625 12.585938 15.726562 12.570312 C 15.714844 12.5625 15.707031 12.558594 15.695312 12.554688 C 15.664062 12.542969 15.628906 12.527344 15.597656 12.519531 C 15.585938 12.515625 15.578125 12.511719 15.570312 12.507812 C 15.523438 12.492188 15.480469 12.480469 15.433594 12.472656 C 15.433594 12.472656 15.429688 12.472656 15.425781 12.472656 C 15.382812 12.464844 15.335938 12.457031 15.292969 12.453125 C 15.289062 12.453125 15.285156 12.453125 15.28125 12.453125 L 15.125 10.605469 Z M 23.875 18.527344 L 23.875 16.832031 L 24.441406 16.832031 L 24.441406 19.09375 L 23.875 19.09375 Z M 25.003906 17.398438 L 25.964844 17.398438 L 25.679688 17.964844 L 25.003906 17.964844 Z M 26.628906 20.488281 C 26.484375 19.699219 25.804688 19.121094 25.003906 19.097656 L 25.003906 18.527344 L 26.03125 18.527344 L 26.878906 16.832031 L 25.003906 16.832031 L 25.003906 16.265625 L 23.308594 16.265625 L 23.308594 16.832031 L 21.351562 16.832031 L 21.667969 13.046875 L 21.917969 10.039062 L 14.511719 10.039062 L 14.761719 13.046875 L 15.078125 16.832031 L 13.96875 16.832031 L 13.96875 16.265625 L 12.269531 16.265625 L 12.269531 16.832031 L 10.117188 16.832031 L 10.964844 18.527344 L 12.269531 18.527344 L 12.269531 19.09375 L 12.039062 19.09375 C 11.214844 19.09375 10.511719 19.683594 10.367188 20.484375 L 9.445312 24.980469 L 9.445312 25.039062 L 9.441406 25.039062 L 9.441406 25.605469 L 9.445312 25.605469 L 9.441406 27.019531 L 27.554688 27.019531 L 27.554688 25.039062 L 26.628906 20.488281 " fill-opacity="1" fill-rule="nonzero"/></g><path fill="#000000" d="M 12.511719 21.074219 L 16.234375 21.074219 L 16.234375 23.90625 L 12.039062 23.90625 Z M 11.371094 24.472656 L 16.800781 24.472656 L 16.800781 20.511719 L 12.03125 20.511719 L 11.371094 24.472656 " fill-opacity="1" fill-rule="nonzero"/><path fill="#000000" d="M 19.628906 25.605469 C 20.195312 25.605469 19.628906 25.605469 20.195312 25.605469 L 20.195312 25.039062 L 19.628906 25.039062 L 19.628906 25.605469 " fill-opacity="1" fill-rule="nonzero"/><path fill="#000000" d="M 13.121094 22.773438 L 15.101562 22.773438 L 15.101562 22.207031 L 13.121094 22.207031 L 13.121094 22.773438 " fill-opacity="1" fill-rule="nonzero"/><path fill="#000000" d="M 21.894531 20.511719 L 17.648438 20.511719 L 17.648438 21.074219 L 21.894531 21.074219 L 21.894531 20.511719 " fill-opacity="1" fill-rule="nonzero"/></svg>